{
copyright = "Copyright (c) 2015, Cadson Demak (info@cadsondemak.com)";
customParameters = (
{
name = vendorID;
value = CDK;
},
{
name = description;
value = "Copyright (c) 2015, Cadson Demak (info@cadsondemak.com)";
},
{
name = license;

glyphs = (
{
glyphname = A;
lastChange = "2015-11-29 23:52:20 +0000";
layers = (
{
layerId = "72ACC467-88F1-4B5B-B511-FE0603CECF6A";
name = "Light Italic";
paths = (
{
closed = 1;
nodes = (
"62 0 LINE",
"184 201 LINE",
"521 201 LINE",
"559 0 LINE",
"610 0 LINE",
"479 699 LINE",
"432 699 LINE",
"5 0 LINE"
);
},
{
closed = 1;
nodes = (
"444 633 LINE",
"515 246 LINE",
"210 246 LINE"
);
}
);
width = 715;
}
);
leftKerningGroup = A;
note = A;
rightKerningGroup = A;
unicode = 0041;
},
{
glyphname = Aacute;
lastChange = "2015-11-29 23:52:20 +0000";
layers = (
{
layerId = "72ACC467-88F1-4B5B-B511-FE0603CECF6A";
name = "Light Italic";
paths = (
{
closed = 1;
nodes = (
"62 0 LINE",
"184 201 LINE",
"521 201 LINE",
"559 0 LINE",
"610 0 LINE",
"479 699 LINE",
"432 699 LINE",
"5 0 LINE"
);
},
{
closed = 1;
nodes = (
"444 633 LINE",
"515 246 LINE",
"210 246 LINE"
);
},
{
closed = 1;
nodes = (
"496 754 LINE",
"610 923 LINE",
"556 923 LINE",
"450 754 LINE"
);
}
);
width = 715;
}
);
leftKerningGroup = A;
note = Aacute;
rightKerningGroup = A;
unicode = 00C1;
},
{
glyphname = Abreve;
lastChange = "2015-11-29 23:52:23 +0000";
layers = (
{
layerId = "72ACC467-88F1-4B5B-B511-FE0603CECF6A";
name = "Light Italic";
paths = (
{
closed = 1;
nodes = (
"62 0 LINE",
"184 201 LINE",
"521 201 LINE",
"559 0 LINE",
"610 0 LINE",
"479 699 LINE",
"432 699 LINE",
"5 0 LINE"
);
},
{
closed = 1;
nodes = (
"444 633 LINE",
"515 246 LINE",
"210 246 LINE"
);
},
{
closed = 1;
nodes = (
"544 755 OFFCURVE",
"606 807 OFFCURVE",
"620 874 CURVE",
"579 874 LINE",
"569 827 OFFCURVE",
"529 794 OFFCURVE",
"475 794 CURVE SMOOTH",
"421 794 OFFCURVE",
"395 827 OFFCURVE",
"405 874 CURVE",
"363 874 LINE",
"349 807 OFFCURVE",
"389 755 OFFCURVE",
"467 755 CURVE SMOOTH"
);
}
);
width = 715;
}
);
leftKerningGroup = A;
note = Abreve;
rightKerningGroup = A;
unicode = 0102;
},
{
glyphname = Abreveacute;
lastChange = "2015-11-29 23:52:22 +0000";
layers = (
{
layerId = "72ACC467-88F1-4B5B-B511-FE0603CECF6A";
name = "Light Italic";
paths = (
{
closed = 1;
nodes = (
"62 0 LINE",
"184 201 LINE",
"521 201 LINE",
"559 0 LINE",
"610 0 LINE",
"479 699 LINE",
"432 699 LINE",
"5 0 LINE"
);
},
{
closed = 1;
nodes = (
"444 633 LINE",
"515 246 LINE",
"210 246 LINE"
);
},
{
closed = 1;
nodes = (
"543 746 OFFCURVE",
"604 797 OFFCURVE",
"618 864 CURVE",
"577 864 LINE",
"567 817 OFFCURVE",
"528 784 OFFCURVE",
"474 784 CURVE SMOOTH",
"420 784 OFFCURVE",
"394 817 OFFCURVE",
"404 864 CURVE",
"363 864 LINE",
"349 797 OFFCURVE",
"389 746 OFFCURVE",
"466 746 CURVE SMOOTH"
);
},
{
closed = 1;
nodes = (
"493 840 LINE",
"580 961 LINE",
"534 961 LINE",
"455 840 LINE"
);
}
);
width = 715;
}
);
leftKerningGroup = A;
note = Abreveacute;
rightKerningGroup = A;
unicode = 1EAE;
},
{
glyphname = Abrevedotbelow;
lastChange = "2015-11-29 23:52:21 +0000";
layers = (
{
layerId = "72ACC467-88F1-4B5B-B511-FE0603CECF6A";
name = "Light Italic";
paths = (
{
closed = 1;
nodes = (
"62 0 LINE",
"184 201 LINE",
"521 201 LINE",
"559 0 LINE",
"610 0 LINE",
"479 699 LINE",
"432 699 LINE",
"5 0 LINE"
);
},
{
closed = 1;
nodes = (
"299 -137 OFFCURVE",
"320 -119 OFFCURVE",
"325 -98 CURVE",
"329 -77 OFFCURVE",
"315 -60 OFFCURVE",
"296 -60 CURVE SMOOTH",
"275 -60 OFFCURVE",
"253 -77 OFFCURVE",
"249 -98 CURVE",
"244 -119 OFFCURVE",
"258 -137 OFFCURVE",
"279 -137 CURVE SMOOTH"
);
},
{
closed = 1;
nodes = (
"444 633 LINE",
"515 246 LINE",
"210 246 LINE"
);
},
{
closed = 1;
nodes = (
"543 749 OFFCURVE",
"605 801 OFFCURVE",
"619 868 CURVE",
"578 868 LINE",
"568 821 OFFCURVE",
"528 788 OFFCURVE",
"474 788 CURVE SMOOTH",
"420 788 OFFCURVE",
"394 821 OFFCURVE",
"404 868 CURVE",
"362 868 LINE",
"348 801 OFFCURVE",
"388 749 OFFCURVE",
"466 749 CURVE SMOOTH"
);
}
);
width = 715;
}
);
leftKerningGroup = A;
note = Abrevedotbelow;
rightKerningGroup = A;
unicode = 1EB6;
},
{
glyphname = Abrevegrave;
lastChange = "2015-11-29 23:52:21 +0000";
layers = (
{
layerId = "72ACC467-88F1-4B5B-B511-FE0603CECF6A";
name = "Light Italic";
paths = (
{
closed = 1;
nodes = (
"62 0 LINE",
"184 201 LINE",
"521 201 LINE",
"559 0 LINE",
"610 0 LINE",
"479 699 LINE",
"432 699 LINE",
"5 0 LINE"
);
},
{
closed = 1;
nodes = (
"444 633 LINE",
"515 246 LINE",
"210 246 LINE"
);
},
{
closed = 1;
nodes = (
"543 746 OFFCURVE",
"604 797 OFFCURVE",
"618 864 CURVE",
"577 864 LINE",
"567 817 OFFCURVE",
"528 784 OFFCURVE",
"474 784 CURVE SMOOTH",
"420 784 OFFCURVE",
"394 817 OFFCURVE",
"404 864 CURVE",
"363 864 LINE",
"349 797 OFFCURVE",
"389 746 OFFCURVE",
"466 746 CURVE SMOOTH"
);
},
{
closed = 1;
nodes = (
"517 840 LINE",
"490 961 LINE",
"443 961 LINE",
"479 840 LINE"
);
}
);
width = 715;
}
);
leftKerningGroup = A;
note = Abrevegrave;
rightKerningGroup = A;
unicode = 1EB0;
},
{
glyphname = Abrevehookabove;
lastChange = "2015-11-29 23:52:23 +0000";
layers = (
{
layerId = "72ACC467-88F1-4B5B-B511-FE0603CECF6A";
name = "Light Italic";
paths = (
{
closed = 1;
nodes = (
"62 0 LINE",
"184 201 LINE",
"521 201 LINE",
"559 0 LINE",
"610 0 LINE",
"479 699 LINE",
"432 699 LINE",
"5 0 LINE"
);
},
{
closed = 1;
nodes = (
"444 633 LINE",
"515 246 LINE",
"210 246 LINE"
);
},
{
closed = 1;
nodes = (
"543 745 OFFCURVE",
"604 796 OFFCURVE",
"618 863 CURVE",
"578 863 LINE",
"568 816 OFFCURVE",
"528 783 OFFCURVE",
"474 783 CURVE SMOOTH",
"420 783 OFFCURVE",
"394 816 OFFCURVE",
"404 863 CURVE",
"363 863 LINE",
"349 796 OFFCURVE",
"389 745 OFFCURVE",
"466 745 CURVE SMOOTH"
);
},
{
closed = 1;
nodes = (
"493 828 LINE",
"498 854 LINE",
"543 858 OFFCURVE",
"573 883 OFFCURVE",
"580 917 CURVE SMOOTH",
"588 955 OFFCURVE",
"568 981 OFFCURVE",
"516 981 CURVE SMOOTH",
"496 981 OFFCURVE",
"473 977 OFFCURVE",
"459 972 CURVE",
"453 942 LINE",
"465 947 OFFCURVE",
"486 950 OFFCURVE",
"502 950 CURVE SMOOTH",
"532 950 OFFCURVE",
"544 941 OFFCURVE",
"539 917 CURVE SMOOTH",
"533 889 OFFCURVE",
"511 878 OFFCURVE",
"467 878 CURVE",
"457 828 LINE"
);
}
);
width = 715;
}
);
leftKerningGroup = A;
note = Abrevehookabove;
rightKerningGroup = A;
unicode = 1EB2;
},
{
glyphname = Abrevetilde;
lastChange = "2015-11-29 23:52:21 +0000";
layers = (
{
layerId = "72ACC467-88F1-4B5B-B511-FE0603CECF6A";
name = "Light Italic";
paths = (
{
closed = 1;
nodes = (
"62 0 LINE",
"184 201 LINE",
"521 201 LINE",
"559 0 LINE",
"610 0 LINE",
"479 699 LINE",
"432 699 LINE",
"5 0 LINE"
);
},
{
closed = 1;
nodes = (
"444 633 LINE",
"515 246 LINE",
"210 246 LINE"
);
},
{
closed = 1;
nodes = (
"545 745 OFFCURVE",
"606 796 OFFCURVE",
"620 863 CURVE",
"580 863 LINE",
"570 816 OFFCURVE",
"530 783 OFFCURVE",
"476 783 CURVE SMOOTH",
"422 783 OFFCURVE",
"396 816 OFFCURVE",
"406 863 CURVE",
"365 863 LINE",
"351 796 OFFCURVE",
"391 745 OFFCURVE",
"468 745 CURVE SMOOTH"
);
},
{
closed = 1;
nodes = (
"375 921 OFFCURVE",
"400 931 OFFCURVE",
"430 931 CURVE SMOOTH",
"478 931 OFFCURVE",
"514 887 OFFCURVE",
"570 887 CURVE SMOOTH",
"605 887 OFFCURVE",
"631 896 OFFCURVE",
"653 923 CURVE",
"663 969 LINE",
"634 934 OFFCURVE",
"609 923 OFFCURVE",
"578 923 CURVE SMOOTH",
"529 923 OFFCURVE",
"490 968 OFFCURVE",
"438 968 CURVE SMOOTH",
"404 968 OFFCURVE",
"375 958 OFFCURVE",
"354 931 CURVE",
"344 886 LINE"
);
}
);
width = 715;
}
);
leftKerningGroup = A;
note = Abrevetilde;
rightKerningGroup = A;
unicode = 1EB4;
},
{
glyphname = Acaron;
lastChange = "2015-11-29 23:52:23 +0000";
layers = (
{
layerId = "72ACC467-88F1-4B5B-B511-FE0603CECF6A";
name = "Light Italic";
paths = (
{
closed = 1;
nodes = (
"62 0 LINE",
"184 201 LINE",
"521 201 LINE",
"559 0 LINE",
"610 0 LINE",
"479 699 LINE",
"432 699 LINE",
"5 0 LINE"
);
},
{
closed = 1;
nodes = (
"444 633 LINE",
"515 246 LINE",
"210 246 LINE"
);
},
{
closed = 1;
nodes = (
"491 763 LINE",
"657 919 LINE",
"603 919 LINE",
"477 798 LINE",
"403 919 LINE",
"348 919 LINE",
"446 763 LINE"
);
}
);
width = 715;
}
);
leftKerningGroup = A;
note = Acaron;
rightKerningGroup = A;
unicode = 01CD;
},
{
glyphname = Acircumflex;
lastChange = "2015-11-29 23:52:21 +0000";
layers = (
{
layerId = "72ACC467-88F1-4B5B-B511-FE0603CECF6A";
name = "Light Italic";
paths = (
{
closed = 1;
nodes = (
"62 0 LINE",
"184 201 LINE",
"521 201 LINE",
"559 0 LINE",
"610 0 LINE",
"479 699 LINE",
"432 699 LINE",
"5 0 LINE"
);
},
{
closed = 1;
nodes = (
"444 633 LINE",
"515 246 LINE",
"210 246 LINE"
);
},
{
closed = 1;
nodes = (
"368 758 LINE",
"493 879 LINE",
"568 758 LINE",
"622 758 LINE",
"523 914 LINE",
"478 914 LINE",
"314 758 LINE"
);
}
);
width = 715;
}
);
leftKerningGroup = A;
note = Acircumflex;
rightKerningGroup = A;
unicode = 00C2;
},
{
glyphname = Acircumflexacute;
lastChange = "2015-11-29 23:52:22 +0000";
layers = (
{
layerId = "72ACC467-88F1-4B5B-B511-FE0603CECF6A";
name = "Light Italic";
paths = (
{
closed = 1;
nodes = (
"62 0 LINE",
"184 201 LINE",
"521 201 LINE",
"559 0 LINE",
"610 0 LINE",
"479 699 LINE",
"432 699 LINE",
"5 0 LINE"
);
},
{
closed = 1;
nodes = (
"444 633 LINE",
"515 246 LINE",
"210 246 LINE"
);
},
{
closed = 1;
nodes = (
"366 744 LINE",
"480 835 LINE",
"556 744 LINE",
"609 744 LINE",
"505 868 LINE",
"468 868 LINE",
"312 744 LINE"
);
},
{
closed = 1;
nodes = (
"603 837 LINE",
"702 951 LINE",
"656 951 LINE",
"565 837 LINE"
);
}
);
width = 715;
}
);
leftKerningGroup = A;
note = Acircumflexacute;
rightKerningGroup = A;
unicode = 1EA4;
},
{
glyphname = Acircumflexdotbelow;
lastChange = "2015-11-29 23:52:20 +0000";
layers = (
{
layerId = "72ACC467-88F1-4B5B-B511-FE0603CECF6A";
name = "Light Italic";
paths = (
{
closed = 1;
nodes = (
"62 0 LINE",
"184 201 LINE",
"521 201 LINE",
"559 0 LINE",
"610 0 LINE",
"479 699 LINE",
"432 699 LINE",
"5 0 LINE"
);
},
{
closed = 1;
nodes = (
"299 -137 OFFCURVE",
"320 -119 OFFCURVE",
"325 -98 CURVE",
"329 -77 OFFCURVE",
"315 -60 OFFCURVE",
"296 -60 CURVE SMOOTH",
"275 -60 OFFCURVE",
"253 -77 OFFCURVE",
"249 -98 CURVE",
"244 -119 OFFCURVE",
"258 -137 OFFCURVE",
"279 -137 CURVE SMOOTH"
);
},
{
closed = 1;
nodes = (
"444 633 LINE",
"515 246 LINE",
"210 246 LINE"
);
},
{
closed = 1;
nodes = (
"370 764 LINE",
"495 885 LINE",
"570 764 LINE",
"624 764 LINE",
"525 920 LINE",
"480 920 LINE",
"316 764 LINE"
);
}
);
width = 715;
}
);
leftKerningGroup = A;
note = Acircumflexdotbelow;
rightKerningGroup = A;
unicode = 1EAC;
},
{
glyphname = Acircumflexgrave;
lastChange = "2015-11-29 23:52:21 +0000";
layers = (
{
layerId = "72ACC467-88F1-4B5B-B511-FE0603CECF6A";
name = "Light Italic";
paths = (
{
closed = 1;
nodes = (
"62 0 LINE",
"184 201 LINE",
"521 201 LINE",
"559 0 LINE",
"610 0 LINE",
"479 699 LINE",
"432 699 LINE",
"5 0 LINE"
);
},
{
closed = 1;
nodes = (
"444 633 LINE",
"515 246 LINE",
"210 246 LINE"
);
},
{
closed = 1;
nodes = (
"403 837 LINE",
"359 951 LINE",
"313 951 LINE",
"365 837 LINE"
);
},
{
closed = 1;
nodes = (
"372 744 LINE",
"486 835 LINE",
"562 744 LINE",
"615 744 LINE",
"512 868 LINE",
"475 868 LINE",
"319 744 LINE"
);
}
);
width = 715;
}
);
leftKerningGroup = A;
note = Acircumflexgrave;
rightKerningGroup = A;
unicode = 1EA6;
},
{
glyphname = Acircumflexhookabove;
lastChange = "2015-11-29 23:52:22 +0000";
layers = (
{
layerId = "72ACC467-88F1-4B5B-B511-FE0603CECF6A";
name = "Light Italic";
paths = (
{
closed = 1;
nodes = (
"62 0 LINE",
"184 201 LINE",
"521 201 LINE",
"559 0 LINE",
"610 0 LINE",
"479 699 LINE",
"432 699 LINE",
"5 0 LINE"
);
},
{
closed = 1;
nodes = (
"444 633 LINE",
"515 246 LINE",
"210 246 LINE"
);
},
{
closed = 1;
nodes = (
"372 744 LINE",
"486 835 LINE",
"562 744 LINE",
"614 744 LINE",
"511 868 LINE",
"474 868 LINE",
"318 744 LINE"
);
},
{
closed = 1;
nodes = (
"608 828 LINE",
"613 854 LINE",
"658 858 OFFCURVE",
"688 883 OFFCURVE",
"695 917 CURVE SMOOTH",
"703 955 OFFCURVE",
"683 981 OFFCURVE",
"631 981 CURVE SMOOTH",
"611 981 OFFCURVE",
"589 977 OFFCURVE",
"575 972 CURVE",
"569 942 LINE",
"581 947 OFFCURVE",
"601 950 OFFCURVE",
"617 950 CURVE SMOOTH",
"647 950 OFFCURVE",
"659 941 OFFCURVE",
"654 917 CURVE SMOOTH",
"648 889 OFFCURVE",
"626 878 OFFCURVE",
"583 878 CURVE",
"573 828 LINE"
);
}
);
width = 715;
}
);
leftKerningGroup = A;
note = Acircumflexhookabove;
rightKerningGroup = A;
unicode = 1EA8;
},
{
glyphname = Acircumflextilde;
lastChange = "2015-11-29 23:52:23 +0000";
layers = (
{
layerId = "72ACC467-88F1-4B5B-B511-FE0603CECF6A";
name = "Light Italic";
paths = (
{
closed = 1;
nodes = (
"62 0 LINE",
"184 201 LINE",
"521 201 LINE",
"559 0 LINE",
"610 0 LINE",
"479 699 LINE",
"432 699 LINE",
"5 0 LINE"
);
},
{
closed = 1;
nodes = (
"444 633 LINE",
"515 246 LINE",
"210 246 LINE"
);
},
{
closed = 1;
nodes = (
"368 744 LINE",
"482 835 LINE",
"558 744 LINE",
"610 744 LINE",
"507 868 LINE",
"470 868 LINE",
"314 744 LINE"
);
},
{
closed = 1;
nodes = (
"375 917 OFFCURVE",
"399 927 OFFCURVE",
"429 927 CURVE SMOOTH",
"478 927 OFFCURVE",
"513 882 OFFCURVE",
"570 882 CURVE SMOOTH",
"603 882 OFFCURVE",
"631 892 OFFCURVE",
"653 919 CURVE",
"663 964 LINE",
"633 929 OFFCURVE",
"607 919 OFFCURVE",
"578 919 CURVE SMOOTH",
"528 919 OFFCURVE",
"490 964 OFFCURVE",
"437 964 CURVE SMOOTH",
"403 964 OFFCURVE",
"376 954 OFFCURVE",
"353 927 CURVE",
"343 881 LINE"
);
}
);
width = 715;
}
);
leftKerningGroup = A;
note = Acircumflextilde;
rightKerningGroup = A;
unicode = 1EAA;
},
{
glyphname = Adieresis;
lastChange = "2015-11-29 23:52:24 +0000";
layers = (
{
layerId = "72ACC467-88F1-4B5B-B511-FE0603CECF6A";
name = "Light Italic";
paths = (
{
closed = 1;
nodes = (
"62 0 LINE",
"184 201 LINE",
"521 201 LINE",
"559 0 LINE",
"610 0 LINE",
"479 699 LINE",
"432 699 LINE",
"5 0 LINE"
);
},
{
closed = 1;
nodes = (
"444 633 LINE",
"515 246 LINE",
"210 246 LINE"
);
},
{
closed = 1;
nodes = (
"384 759 OFFCURVE",
"406 777 OFFCURVE",
"411 798 CURVE",
"415 819 OFFCURVE",
"401 836 OFFCURVE",
"381 836 CURVE SMOOTH",
"360 836 OFFCURVE",
"339 819 OFFCURVE",
"335 798 CURVE",
"330 777 OFFCURVE",
"343 759 OFFCURVE",
"364 759 CURVE SMOOTH"
);
},
{
closed = 1;
nodes = (
"592 759 OFFCURVE",
"614 777 OFFCURVE",
"619 798 CURVE",
"623 819 OFFCURVE",
"609 836 OFFCURVE",
"588 836 CURVE SMOOTH",
"567 836 OFFCURVE",
"545 819 OFFCURVE",
"541 798 CURVE",
"536 777 OFFCURVE",
"550 759 OFFCURVE",
"571 759 CURVE SMOOTH"
);
}
);
width = 715;
}
);
leftKerningGroup = A;
note = Adieresis;
rightKerningGroup = A;
unicode = 00C4;
},
{
glyphname = Adotbelow;
lastChange = "2015-11-29 23:52:21 +0000";
layers = (
{
layerId = "72ACC467-88F1-4B5B-B511-FE0603CECF6A";
name = "Light Italic";
paths = (
{
closed = 1;
nodes = (
"62 0 LINE",
"184 201 LINE",
"521 201 LINE",
"559 0 LINE",
"610 0 LINE",
"479 699 LINE",
"432 699 LINE",
"5 0 LINE"
);
},
{
closed = 1;
nodes = (
"299 -137 OFFCURVE",
"320 -119 OFFCURVE",
"325 -98 CURVE",
"329 -77 OFFCURVE",
"315 -60 OFFCURVE",
"296 -60 CURVE SMOOTH",
"275 -60 OFFCURVE",
"253 -77 OFFCURVE",
"249 -98 CURVE",
"244 -119 OFFCURVE",
"258 -137 OFFCURVE",
"279 -137 CURVE SMOOTH"
);
},
{
closed = 1;
nodes = (
"444 633 LINE",
"515 246 LINE",
"210 246 LINE"
);
}
);
width = 715;
}
);
leftKerningGroup = A;
note = Adotbelow;
rightKerningGroup = A;
unicode = 1EA0;
},
{
glyphname = Agrave;
lastChange = "2015-11-29 23:52:20 +0000";
layers = (
{
layerId = "72ACC467-88F1-4B5B-B511-FE0603CECF6A";
name = "Light Italic";
paths = (
{
closed = 1;
nodes = (
"62 0 LINE",
"184 201 LINE",
"521 201 LINE",
"559 0 LINE",
"610 0 LINE",
"479 699 LINE",
"432 699 LINE",
"5 0 LINE"
);
},
{
closed = 1;
nodes = (
"444 633 LINE",
"515 246 LINE",
"210 246 LINE"
);
},
{
closed = 1;
nodes = (
"489 754 LINE",
"456 923 LINE",
"401 923 LINE",
"444 754 LINE"
);
}
);
width = 715;
}
);
leftKerningGroup = A;
note = Agrave;
rightKerningGroup = A;
unicode = 00C0;
},
{
glyphname = Ahookabove;
lastChange = "2015-11-29 23:52:21 +0000";
layers = (
{
layerId = "72ACC467-88F1-4B5B-B511-FE0603CECF6A";
name = "Light Italic";
paths = (
{
closed = 1;
nodes = (
"62 0 LINE",
"184 201 LINE",
"521 201 LINE",
"559 0 LINE",
"610 0 LINE",
"479 699 LINE",
"432 699 LINE",
"5 0 LINE"
);
},
{
closed = 1;
nodes = (
"444 633 LINE",
"515 246 LINE",
"210 246 LINE"
);
},
{
closed = 1;
nodes = (
"488 743 LINE",
"496 782 LINE",
"560 787 OFFCURVE",
"600 824 OFFCURVE",
"610 873 CURVE SMOOTH",
"621 925 OFFCURVE",
"592 962 OFFCURVE",
"517 962 CURVE SMOOTH",
"493 962 OFFCURVE",
"465 958 OFFCURVE",
"449 953 CURVE",
"442 918 LINE",
"455 924 OFFCURVE",
"484 927 OFFCURVE",
"502 927 CURVE SMOOTH",
"549 927 OFFCURVE",
"571 910 OFFCURVE",
"563 871 CURVE SMOOTH",
"554 828 OFFCURVE",
"525 808 OFFCURVE",
"457 808 CURVE",
"443 743 LINE"
);
}
);
width = 715;
}
);
leftKerningGroup = A;
note = Ahookabove;
rightKerningGroup = A;
unicode = 1EA2;
},
{
glyphname = Amacron;
lastChange = "2015-11-29 23:52:21 +0000";
layers = (
{
layerId = "72ACC467-88F1-4B5B-B511-FE0603CECF6A";
name = "Light Italic";
paths = (
{
closed = 1;
nodes = (
"62 0 LINE",
"184 201 LINE",
"521 201 LINE",
"559 0 LINE",
"610 0 LINE",
"479 699 LINE",
"432 699 LINE",
"5 0 LINE"
);
},
{
closed = 1;
nodes = (
"444 633 LINE",
"515 246 LINE",
"210 246 LINE"
);
},
{
closed = 1;
nodes = (
"619 793 LINE",
"627 832 LINE",
"338 832 LINE",
"331 793 LINE"
);
}
);
width = 715;
}
);
leftKerningGroup = A;
note = Amacron;
rightKerningGroup = A;
unicode = 0100;
},
{
glyphname = Aogonek;
lastChange = "2015-11-29 23:52:20 +0000";
layers = (
{
layerId = "72ACC467-88F1-4B5B-B511-FE0603CECF6A";
name = "Light Italic";
paths = (
{
closed = 1;
nodes = (
"552 -208 OFFCURVE",
"572 -205 OFFCURVE",
"586 -199 CURVE",
"594 -162 LINE",
"581 -167 OFFCURVE",
"564 -171 OFFCURVE",
"547 -171 CURVE SMOOTH",
"515 -171 OFFCURVE",
"499 -155 OFFCURVE",
"506 -119 CURVE SMOOTH",
"516 -73 OFFCURVE",
"553 -35 OFFCURVE",
"610 0 CURVE",
"479 699 LINE",
"432 699 LINE",
"5 0 LINE",
"62 0 LINE",
"184 201 LINE",
"521 201 LINE",
"559 0 LINE",
"513 -27 OFFCURVE",
"469 -72 OFFCURVE",
"458 -124 CURVE SMOOTH",
"446 -181 OFFCURVE",
"481 -208 OFFCURVE",
"529 -208 CURVE SMOOTH"
);
},
{
closed = 1;
nodes = (
"444 633 LINE",
"515 246 LINE",
"210 246 LINE"
);
}
);
width = 718;
}
);
leftKerningGroup = A;
note = Aogonek;
rightKerningGroup = A;
unicode = 0104;
},
{
glyphname = Aring;
lastChange = "2015-11-29 23:52:20 +0000";
layers = (
{
layerId = "72ACC467-88F1-4B5B-B511-FE0603CECF6A";
name = "Light Italic";
paths = (
{
closed = 1;
nodes = (
"62 0 LINE",
"184 201 LINE",
"521 201 LINE",
"559 0 LINE",
"610 0 LINE",
"484 671 LINE",
"524 685 OFFCURVE",
"559 722 OFFCURVE",
"568 764 CURVE SMOOTH",
"579 818 OFFCURVE",
"544 863 OFFCURVE",
"490 863 CURVE SMOOTH",
"435 863 OFFCURVE",
"381 818 OFFCURVE",
"369 764 CURVE SMOOTH",
"360 721 OFFCURVE",
"379 684 OFFCURVE",
"414 670 CURVE",
"5 0 LINE"
);
},
{
closed = 1;
nodes = (
"444 633 LINE",
"515 246 LINE",
"210 246 LINE"
);
},
{
closed = 1;
nodes = (
"420 700 OFFCURVE",
"398 729 OFFCURVE",
"406 764 CURVE SMOOTH",
"413 798 OFFCURVE",
"446 827 OFFCURVE",
"482 827 CURVE SMOOTH",
"517 827 OFFCURVE",
"539 798 OFFCURVE",
"532 764 CURVE SMOOTH",
"524 729 OFFCURVE",
"490 700 OFFCURVE",
"455 700 CURVE SMOOTH"
);
}
);
width = 715;
}
);
leftKerningGroup = A;
note = Aring;
rightKerningGroup = A;
unicode = 00C5;
},
{
glyphname = Aringacute;
lastChange = "2015-11-29 23:52:22 +0000";
layers = (
{
layerId = "72ACC467-88F1-4B5B-B511-FE0603CECF6A";
name = "Light Italic";
paths = (
{
closed = 1;
nodes = (
"62 0 LINE",
"184 201 LINE",
"521 201 LINE",
"559 0 LINE",
"610 0 LINE",
"484 671 LINE",
"524 685 OFFCURVE",
"559 722 OFFCURVE",
"568 764 CURVE SMOOTH",
"579 818 OFFCURVE",
"544 863 OFFCURVE",
"490 863 CURVE SMOOTH",
"435 863 OFFCURVE",
"381 818 OFFCURVE",
"369 764 CURVE SMOOTH",
"360 721 OFFCURVE",
"379 684 OFFCURVE",
"414 670 CURVE",
"5 0 LINE"
);
},
{
closed = 1;
nodes = (
"444 633 LINE",
"515 246 LINE",
"210 246 LINE"
);
},
{
closed = 1;
nodes = (
"420 700 OFFCURVE",
"398 729 OFFCURVE",
"406 764 CURVE SMOOTH",
"413 798 OFFCURVE",
"446 827 OFFCURVE",
"482 827 CURVE SMOOTH",
"517 827 OFFCURVE",
"539 798 OFFCURVE",
"532 764 CURVE SMOOTH",
"524 729 OFFCURVE",
"490 700 OFFCURVE",
"455 700 CURVE SMOOTH"
);
},
{
closed = 1;
nodes = (
"544 900 LINE",
"658 1035 LINE",
"604 1035 LINE",
"498 900 LINE"
);
}
);
width = 715;
}
);
leftKerningGroup = A;
note = Aringacute;
rightKerningGroup = A;
unicode = 01FA;
},
{
glyphname = Atilde;
lastChange = "2015-11-29 23:52:21 +0000";
layers = (
{
layerId = "72ACC467-88F1-4B5B-B511-FE0603CECF6A";
name = "Light Italic";
paths = (
{
closed = 1;
nodes = (
"62 0 LINE",
"184 201 LINE",
"521 201 LINE",
"559 0 LINE",
"610 0 LINE",
"479 699 LINE",
"432 699 LINE",
"5 0 LINE"
);
},
{
closed = 1;
nodes = (
"444 633 LINE",
"515 246 LINE",
"210 246 LINE"
);
},
{
closed = 1;
nodes = (
"327 806 OFFCURVE",
"359 817 OFFCURVE",
"393 817 CURVE SMOOTH",
"457 817 OFFCURVE",
"486 767 OFFCURVE",
"559 767 CURVE SMOOTH",
"598 767 OFFCURVE",
"634 778 OFFCURVE",
"661 811 CURVE",
"672 862 LINE",
"637 820 OFFCURVE",
"603 809 OFFCURVE",
"568 809 CURVE SMOOTH",
"503 809 OFFCURVE",
"470 859 OFFCURVE",
"402 859 CURVE SMOOTH",
"364 859 OFFCURVE",
"327 847 OFFCURVE",
"300 815 CURVE",
"289 764 LINE"
);
}
);
width = 715;
}
);
leftKerningGroup = A;
note = Atilde;
rightKerningGroup = A;
unicode = 00C3;
},
{
glyphname = AE;
lastChange = "2015-11-29 23:52:22 +0000";
layers = (
{
layerId = "72ACC467-88F1-4B5B-B511-FE0603CECF6A";
name = "Light Italic";
paths = (
{
closed = 1;
nodes = (
"59 0 LINE",
"207 201 LINE",
"464 201 LINE",
"422 0 LINE",
"813 0 LINE",
"822 45 LINE",
"484 45 LINE",
"544 327 LINE",
"788 327 LINE",
"798 372 LINE",
"554 372 LINE",
"614 654 LINE",
"952 654 LINE",
"961 699 LINE",
"521 699 LINE",
"5 0 LINE"
);
},
{
closed = 1;
nodes = (
"542 654 LINE",
"561 654 LINE",
"474 246 LINE",
"240 246 LINE"
);
}
);
width = 918;
}
);
leftKerningGroup = A;
note = AE;
rightKerningGroup = E;
unicode = 00C6;
},
{
glyphname = AEacute;
lastChange = "2015-11-29 23:52:21 +0000";
layers = (
{
layerId = "72ACC467-88F1-4B5B-B511-FE0603CECF6A";
name = "Light Italic";
paths = (
{
closed = 1;
nodes = (
"59 0 LINE",
"207 201 LINE",
"464 201 LINE",
"422 0 LINE",
"813 0 LINE",
"822 45 LINE",
"484 45 LINE",
"544 327 LINE",
"788 327 LINE",
"798 372 LINE",
"554 372 LINE",
"614 654 LINE",
"952 654 LINE",
"961 699 LINE",
"521 699 LINE",
"5 0 LINE"
);
},
{
closed = 1;
nodes = (
"542 654 LINE",
"561 654 LINE",
"474 246 LINE",
"240 246 LINE"
);
},
{
closed = 1;
nodes = (
"667 754 LINE",
"781 923 LINE",
"727 923 LINE",
"621 754 LINE"
);
}
);
width = 918;
}
);
leftKerningGroup = A;
note = AEacute;
rightKerningGroup = E;
unicode = 01FC;
},
{
glyphname = B;
lastChange = "2015-11-29 23:52:21 +0000";
layers = (
{
layerId = "72ACC467-88F1-4B5B-B511-FE0603CECF6A";
name = "Light Italic";
paths = (
{
closed = 1;
nodes = (
"341 0 LINE SMOOTH",
"453 0 OFFCURVE",
"545 69 OFFCURVE",
"568 189 CURVE SMOOTH",
"586 283 OFFCURVE",
"550 341 OFFCURVE",
"482 359 CURVE",
"541 382 OFFCURVE",
"596 437 OFFCURVE",
"612 516 CURVE SMOOTH",
"636 634 OFFCURVE",
"583 699 OFFCURVE",
"472 699 CURVE SMOOTH",
"173 699 LINE",
"25 0 LINE"
);
},
{
closed = 1;
nodes = (
"149 335 LINE",
"391 335 LINE SMOOTH",
"488 335 OFFCURVE",
"538 295 OFFCURVE",
"516 190 CURVE SMOOTH",
"493 83 OFFCURVE",
"424 45 OFFCURVE",
"342 45 CURVE SMOOTH",
"87 45 LINE"
);
},
{
closed = 1;
nodes = (
"217 654 LINE",
"458 654 LINE SMOOTH",
"541 654 OFFCURVE",
"582 620 OFFCURVE",
"560 515 CURVE SMOOTH",
"541 428 OFFCURVE",
"479 380 OFFCURVE",
"408 380 CURVE SMOOTH",
"158 380 LINE"
);
}
);
width = 633;
}
);
note = B;
unicode = 0042;
},
{
glyphname = C;
lastChange = "2015-11-29 23:52:23 +0000";
layers = (
{
layerId = "72ACC467-88F1-4B5B-B511-FE0603CECF6A";
name = "Light Italic";
paths = (
{
closed = 1;
nodes = (
"464 -15 OFFCURVE",
"560 7 OFFCURVE",
"631 68 CURVE",
"642 121 LINE",
"560 55 OFFCURVE",
"475 32 OFFCURVE",
"378 32 CURVE SMOOTH",
"202 32 OFFCURVE",
"88 146 OFFCURVE",
"131 349 CURVE SMOOTH",
"172 544 OFFCURVE",
"331 666 OFFCURVE",
"513 666 CURVE SMOOTH",
"604 666 OFFCURVE",
"681 640 OFFCURVE",
"731 582 CURVE",
"742 635 LINE",
"690 688 OFFCURVE",
"615 714 OFFCURVE",
"520 714 CURVE SMOOTH",
"295 714 OFFCURVE",
"125 569 OFFCURVE",
"79 349 CURVE SMOOTH",
"32 129 OFFCURVE",
"163 -15 OFFCURVE",
"365 -15 CURVE SMOOTH"
);
}
);
width = 722;
}
);
leftKerningGroup = C;
note = C;
rightKerningGroup = C;
unicode = 0043;
},
{
glyphname = Cacute;
lastChange = "2015-11-29 23:52:22 +0000";
layers = (
{
layerId = "72ACC467-88F1-4B5B-B511-FE0603CECF6A";
name = "Light Italic";
paths = (
{
closed = 1;
nodes = (
"464 -15 OFFCURVE",
"560 7 OFFCURVE",
"631 68 CURVE",
"642 121 LINE",
"560 55 OFFCURVE",
"475 32 OFFCURVE",
"378 32 CURVE SMOOTH",
"202 32 OFFCURVE",
"88 146 OFFCURVE",
"131 349 CURVE SMOOTH",
"172 544 OFFCURVE",
"331 666 OFFCURVE",
"513 666 CURVE SMOOTH",
"604 666 OFFCURVE",
"681 640 OFFCURVE",
"731 582 CURVE",
"742 635 LINE",
"690 688 OFFCURVE",
"615 714 OFFCURVE",
"520 714 CURVE SMOOTH",
"295 714 OFFCURVE",
"125 569 OFFCURVE",
"79 349 CURVE SMOOTH",
"32 129 OFFCURVE",
"163 -15 OFFCURVE",
"365 -15 CURVE SMOOTH"
);
},
{
closed = 1;
nodes = (
"535 766 LINE",
"649 935 LINE",
"595 935 LINE",
"489 766 LINE"
);
}
);
width = 722;
}
);
leftKerningGroup = C;
note = Cacute;
rightKerningGroup = C;
unicode = 0106;
},
{
glyphname = Ccaron;
lastChange = "2015-11-29 23:52:23 +0000";
layers = (
{
layerId = "72ACC467-88F1-4B5B-B511-FE0603CECF6A";
name = "Light Italic";
paths = (
{
closed = 1;
nodes = (
"464 -15 OFFCURVE",
"560 7 OFFCURVE",
"631 68 CURVE",
"642 121 LINE",
"560 55 OFFCURVE",
"475 32 OFFCURVE",
"378 32 CURVE SMOOTH",
"202 32 OFFCURVE",
"88 146 OFFCURVE",
"131 349 CURVE SMOOTH",
"172 544 OFFCURVE",
"331 666 OFFCURVE",
"513 666 CURVE SMOOTH",
"604 666 OFFCURVE",
"681 640 OFFCURVE",
"731 582 CURVE",
"742 635 LINE",
"690 688 OFFCURVE",
"615 714 OFFCURVE",
"520 714 CURVE SMOOTH",
"295 714 OFFCURVE",
"125 569 OFFCURVE",
"79 349 CURVE SMOOTH",
"32 129 OFFCURVE",
"163 -15 OFFCURVE",
"365 -15 CURVE SMOOTH"
);
},
{
closed = 1;
nodes = (
"551 769 LINE",
"717 925 LINE",
"663 925 LINE",
"537 804 LINE",
"463 925 LINE",
"408 925 LINE",
"506 769 LINE"
);
}
);
width = 722;
}
);
leftKerningGroup = C;
note = Ccaron;
rightKerningGroup = C;
unicode = 010C;
},
{
glyphname = Ccedilla;
lastChange = "2015-11-29 23:52:21 +0000";
layers = (
{
layerId = "72ACC467-88F1-4B5B-B511-FE0603CECF6A";
name = "Light Italic";
paths = (
{
closed = 1;
nodes = (
"380 -248 OFFCURVE",
"428 -209 OFFCURVE",
"439 -157 CURVE SMOOTH",
"450 -107 OFFCURVE",
"428 -73 OFFCURVE",
"364 -67 CURVE",
"396 -14 LINE",
"484 -10 OFFCURVE",
"567 13 OFFCURVE",
"631 68 CURVE",
"642 121 LINE",
"560 55 OFFCURVE",
"475 32 OFFCURVE",
"378 32 CURVE SMOOTH",
"202 32 OFFCURVE",
"88 146 OFFCURVE",
"131 349 CURVE SMOOTH",
"172 544 OFFCURVE",
"331 666 OFFCURVE",
"513 666 CURVE SMOOTH",
"604 666 OFFCURVE",
"681 640 OFFCURVE",
"731 582 CURVE",
"742 635 LINE",
"690 688 OFFCURVE",
"615 714 OFFCURVE",
"520 714 CURVE SMOOTH",
"295 714 OFFCURVE",
"125 569 OFFCURVE",
"79 349 CURVE SMOOTH",
"33 136 OFFCURVE",
"155 -6 OFFCURVE",
"346 -14 CURVE",
"301 -93 LINE",
"379 -93 OFFCURVE",
"399 -115 OFFCURVE",
"390 -156 CURVE SMOOTH",
"382 -196 OFFCURVE",
"352 -212 OFFCURVE",
"307 -212 CURVE SMOOTH",
"288 -212 OFFCURVE",
"264 -209 OFFCURVE",
"253 -203 CURVE",
"246 -239 LINE",
"258 -244 OFFCURVE",
"284 -248 OFFCURVE",
"308 -248 CURVE SMOOTH"
);
}
);
width = 722;
}
);
leftKerningGroup = C;
note = Ccedilla;
rightKerningGroup = C;
unicode = 00C7;
},
{
glyphname = Ccircumflex;
lastChange = "2015-11-29 23:52:22 +0000";
layers = (
{
layerId = "72ACC467-88F1-4B5B-B511-FE0603CECF6A";
name = "Light Italic";
paths = (
{
closed = 1;
nodes = (
"464 -15 OFFCURVE",
"560 7 OFFCURVE",
"631 68 CURVE",
"642 121 LINE",
"560 55 OFFCURVE",
"475 32 OFFCURVE",
"378 32 CURVE SMOOTH",
"202 32 OFFCURVE",
"88 146 OFFCURVE",
"131 349 CURVE SMOOTH",
"172 544 OFFCURVE",
"331 666 OFFCURVE",
"513 666 CURVE SMOOTH",
"604 666 OFFCURVE",
"681 640 OFFCURVE",
"731 582 CURVE",
"742 635 LINE",
"690 688 OFFCURVE",
"615 714 OFFCURVE",
"520 714 CURVE SMOOTH",
"295 714 OFFCURVE",
"125 569 OFFCURVE",
"79 349 CURVE SMOOTH",
"32 129 OFFCURVE",
"163 -15 OFFCURVE",
"365 -15 CURVE SMOOTH"
);
},
{
closed = 1;
nodes = (
"423 764 LINE",
"548 885 LINE",
"623 764 LINE",
"677 764 LINE",
"578 920 LINE",
"533 920 LINE",
"369 764 LINE"
);
}
);
width = 722;
}
);
leftKerningGroup = C;
note = Ccircumflex;
rightKerningGroup = C;
unicode = 0108;
},
{
glyphname = Cdotaccent;
lastChange = "2015-11-29 23:52:21 +0000";
layers = (
{
layerId = "72ACC467-88F1-4B5B-B511-FE0603CECF6A";
name = "Light Italic";
paths = (
{
closed = 1;
nodes = (
"464 -15 OFFCURVE",
"560 7 OFFCURVE",
"631 68 CURVE",
"642 121 LINE",
"560 55 OFFCURVE",
"475 32 OFFCURVE",
"378 32 CURVE SMOOTH",
"202 32 OFFCURVE",
"88 146 OFFCURVE",
"131 349 CURVE SMOOTH",
"172 544 OFFCURVE",
"331 666 OFFCURVE",
"513 666 CURVE SMOOTH",
"604 666 OFFCURVE",
"681 640 OFFCURVE",
"731 582 CURVE",
"742 635 LINE",
"690 688 OFFCURVE",
"615 714 OFFCURVE",
"520 714 CURVE SMOOTH",
"295 714 OFFCURVE",
"125 569 OFFCURVE",
"79 349 CURVE SMOOTH",
"32 129 OFFCURVE",
"163 -15 OFFCURVE",
"365 -15 CURVE SMOOTH"
);
},
{
closed = 1;
nodes = (
"550 771 OFFCURVE",
"572 789 OFFCURVE",
"577 810 CURVE",
"581 831 OFFCURVE",
"567 848 OFFCURVE",
"547 848 CURVE SMOOTH",
"526 848 OFFCURVE",
"504 831 OFFCURVE",
"500 810 CURVE",
"495 789 OFFCURVE",
"509 771 OFFCURVE",
"530 771 CURVE SMOOTH"
);
}
);
width = 722;
}
);
leftKerningGroup = C;
note = Cdotaccent;
rightKerningGroup = C;
unicode = 010A;
},
{
glyphname = D;
lastChange = "2015-11-29 23:52:23 +0000";
layers = (
{
layerId = "72ACC467-88F1-4B5B-B511-FE0603CECF6A";
name = "Light Italic";
paths = (
{
closed = 1;
nodes = (
"213 0 LINE SMOOTH",
"461 0 OFFCURVE",
"617 116 OFFCURVE",
"668 353 CURVE SMOOTH",
"713 566 OFFCURVE",
"606 699 OFFCURVE",
"380 699 CURVE SMOOTH",
"173 699 LINE",
"25 0 LINE"
);
},
{
closed = 1;
nodes = (
"217 654 LINE",
"367 654 LINE SMOOTH",
"581 654 OFFCURVE",
"655 540 OFFCURVE",
"616 353 CURVE SMOOTH",
"573 152 OFFCURVE",
"444 45 OFFCURVE",
"214 45 CURVE SMOOTH",
"87 45 LINE"
);
}
);
width = 698;
}
);
note = D;
rightKerningGroup = D;
unicode = 0044;
},
{
glyphname = Eth;
lastChange = "2015-11-29 23:52:20 +0000";
layers = (
{
layerId = "72ACC467-88F1-4B5B-B511-FE0603CECF6A";
name = "Light Italic";
paths = (
{
closed = 1;
nodes = (
"247 0 LINE SMOOTH",
"485 0 OFFCURVE",
"651 116 OFFCURVE",
"702 353 CURVE SMOOTH",
"747 566 OFFCURVE",
"640 699 OFFCURVE",
"415 699 CURVE SMOOTH",
"207 699 LINE",
"137 370 LINE",
"63 370 LINE",
"54 328 LINE",
"128 328 LINE",
"59 0 LINE"
);
},
{
closed = 1;
nodes = (
"181 328 LINE",
"393 328 LINE",
"402 370 LINE",
"190 370 LINE",
"250 651 LINE",
"400 651 LINE SMOOTH",
"611 651 OFFCURVE",
"689 540 OFFCURVE",
"650 353 CURVE SMOOTH",
"607 152 OFFCURVE",
"474 47 OFFCURVE",
"249 47 CURVE SMOOTH",
"121 47 LINE"
);
}
);
width = 722;
}
);
note = Eth;
rightKerningGroup = D;
unicode = 00D0;
},
{
glyphname = Dcaron;
lastChange = "2015-11-29 23:52:21 +0000";
layers = (
{
layerId = "72ACC467-88F1-4B5B-B511-FE0603CECF6A";
name = "Light Italic";
paths = (
{
closed = 1;
nodes = (
"213 0 LINE SMOOTH",
"461 0 OFFCURVE",
"617 116 OFFCURVE",
"668 353 CURVE SMOOTH",
"713 566 OFFCURVE",
"606 699 OFFCURVE",
"380 699 CURVE SMOOTH",
"173 699 LINE",
"25 0 LINE"
);
},
{
closed = 1;
nodes = (
"217 654 LINE",
"367 654 LINE SMOOTH",
"581 654 OFFCURVE",
"655 540 OFFCURVE",
"616 353 CURVE SMOOTH",
"573 152 OFFCURVE",
"444 45 OFFCURVE",
"214 45 CURVE SMOOTH",
"87 45 LINE"
);
},
{
closed = 1;
nodes = (
"429 769 LINE",
"595 925 LINE",
"541 925 LINE",
"415 804 LINE",
"341 925 LINE",
"286 925 LINE",
"384 769 LINE"
);
}
);
width = 698;
}
);
note = Dcaron;
rightKerningGroup = D;
unicode = 010E;
},
{
glyphname = Dcroat;
lastChange = "2015-11-29 23:52:21 +0000";
layers = (
{
layerId = "72ACC467-88F1-4B5B-B511-FE0603CECF6A";
name = "Light Italic";
paths = (
{
closed = 1;
nodes = (
"242 0 LINE SMOOTH",
"489 0 OFFCURVE",
"646 116 OFFCURVE",
"697 353 CURVE SMOOTH",
"742 566 OFFCURVE",
"635 699 OFFCURVE",
"410 699 CURVE SMOOTH",
"202 699 LINE",
"132 370 LINE",
"58 370 LINE",
"49 328 LINE",
"123 328 LINE",
"54 0 LINE"
);
},
{
closed = 1;
nodes = (
"176 328 LINE",
"388 328 LINE",
"397 370 LINE",
"185 370 LINE",
"245 651 LINE",
"395 651 LINE SMOOTH",
"612 651 OFFCURVE",
"684 540 OFFCURVE",
"645 353 CURVE SMOOTH",
"602 152 OFFCURVE",
"469 47 OFFCURVE",
"244 47 CURVE SMOOTH",
"116 47 LINE"
);
}
);
width = 727;
}
);
note = Dcroat;
rightKerningGroup = D;
unicode = 0110;
},
{
glyphname = Ddotbelow;
lastChange = "2015-11-29 23:52:20 +0000";
layers = (
{
layerId = "72ACC467-88F1-4B5B-B511-FE0603CECF6A";
name = "Light Italic";
paths = (
{
closed = 1;
nodes = (
"213 0 LINE SMOOTH",
"461 0 OFFCURVE",
"617 116 OFFCURVE",
"668 353 CURVE SMOOTH",
"713 566 OFFCURVE",
"606 699 OFFCURVE",
"380 699 CURVE SMOOTH",
"173 699 LINE",
"25 0 LINE"
);
},
{
closed = 1;
nodes = (
"215 -137 OFFCURVE",
"236 -119 OFFCURVE",
"241 -98 CURVE",
"245 -77 OFFCURVE",
"231 -60 OFFCURVE",
"212 -60 CURVE SMOOTH",
"191 -60 OFFCURVE",
"169 -77 OFFCURVE",
"165 -98 CURVE",
"160 -119 OFFCURVE",
"174 -137 OFFCURVE",
"195 -137 CURVE SMOOTH"
);
},
{
closed = 1;
nodes = (
"217 654 LINE",
"367 654 LINE SMOOTH",
"581 654 OFFCURVE",
"655 540 OFFCURVE",
"616 353 CURVE SMOOTH",
"573 152 OFFCURVE",
"444 45 OFFCURVE",
"214 45 CURVE SMOOTH",
"87 45 LINE"
);
}
);
width = 698;
}
);
note = Ddotbelow;
rightKerningGroup = D;
unicode = 1E0C;
},
{
glyphname = Dlinebelow;
lastChange = "2015-11-29 23:52:20 +0000";
layers = (
{
layerId = "72ACC467-88F1-4B5B-B511-FE0603CECF6A";
name = "Light Italic";
paths = (
{
closed = 1;
nodes = (
"213 0 LINE SMOOTH",
"461 0 OFFCURVE",
"617 116 OFFCURVE",
"668 353 CURVE SMOOTH",
"713 566 OFFCURVE",
"606 699 OFFCURVE",
"380 699 CURVE SMOOTH",
"173 699 LINE",
"25 0 LINE"
);
},
{
closed = 1;
nodes = (
"333 -121 LINE",
"341 -80 LINE",
"51 -80 LINE",
"43 -121 LINE"
);
},
{
closed = 1;
nodes = (
"217 654 LINE",
"367 654 LINE SMOOTH",
"581 654 OFFCURVE",
"655 540 OFFCURVE",
"616 353 CURVE SMOOTH",
"573 152 OFFCURVE",
"444 45 OFFCURVE",
"214 45 CURVE SMOOTH",
"87 45 LINE"
);
}
);
width = 698;
}
);
note = Dlinebelow;
rightKerningGroup = D;
unicode = 1E0E;
},
{
glyphname = E;
lastChange = "2015-11-29 23:52:22 +0000";
layers = (
{
layerId = "72ACC467-88F1-4B5B-B511-FE0603CECF6A";
name = "Light Italic";
paths = (
{
closed = 1;
nodes = (
"463 0 LINE",
"472 45 LINE",
"87 45 LINE",
"147 327 LINE",
"438 327 LINE",
"448 372 LINE",
"157 372 LINE",
"217 654 LINE",
"602 654 LINE",
"611 699 LINE",
"173 699 LINE",
"25 0 LINE"
);
}
);
width = 563;
}
);
leftKerningGroup = E;
note = E;
rightKerningGroup = E;
unicode = 0045;
},
{
glyphname = Eacute;
lastChange = "2015-11-29 23:52:22 +0000";
layers = (
{
layerId = "72ACC467-88F1-4B5B-B511-FE0603CECF6A";
name = "Light Italic";
paths = (
{
closed = 1;
nodes = (
"463 0 LINE",
"472 45 LINE",
"87 45 LINE",
"147 327 LINE",
"438 327 LINE",
"448 372 LINE",
"157 372 LINE",
"217 654 LINE",
"602 654 LINE",
"611 699 LINE",
"173 699 LINE",
"25 0 LINE"
);
},
{
closed = 1;
nodes = (
"402 766 LINE",
"516 935 LINE",
"462 935 LINE",
"356 766 LINE"
);
}
);
width = 563;
}
);
leftKerningGroup = E;
note = Eacute;
rightKerningGroup = E;
unicode = 00C9;
},
{
glyphname = Ebreve;
lastChange = "2015-11-29 23:52:22 +0000";
layers = (
{
layerId = "72ACC467-88F1-4B5B-B511-FE0603CECF6A";
name = "Light Italic";
paths = (
{
closed = 1;
nodes = (
"463 0 LINE",
"472 45 LINE",
"87 45 LINE",
"147 327 LINE",
"438 327 LINE",
"448 372 LINE",
"157 372 LINE",
"217 654 LINE",
"602 654 LINE",
"611 699 LINE",
"173 699 LINE",
"25 0 LINE"
);
},
{
closed = 1;
nodes = (
"475 755 OFFCURVE",
"537 807 OFFCURVE",
"551 874 CURVE",
"510 874 LINE",
"500 827 OFFCURVE",
"460 794 OFFCURVE",
"406 794 CURVE SMOOTH",
"352 794 OFFCURVE",
"326 827 OFFCURVE",
"336 874 CURVE",
"294 874 LINE",
"280 807 OFFCURVE",
"320 755 OFFCURVE",
"398 755 CURVE SMOOTH"
);
}
);
width = 568;
}
);
leftKerningGroup = E;
note = Ebreve;
rightKerningGroup = E;
unicode = 0114;
},
{
glyphname = Ecaron;
lastChange = "2015-11-29 23:52:22 +0000";
layers = (
{
layerId = "72ACC467-88F1-4B5B-B511-FE0603CECF6A";
name = "Light Italic";
paths = (
{
closed = 1;
nodes = (
"463 0 LINE",
"472 45 LINE",
"87 45 LINE",
"147 327 LINE",
"438 327 LINE",
"448 372 LINE",
"157 372 LINE",
"217 654 LINE",
"602 654 LINE",
"611 699 LINE",
"173 699 LINE",
"25 0 LINE"
);
},
{
closed = 1;
nodes = (
"417 769 LINE",
"583 925 LINE",
"529 925 LINE",
"403 804 LINE",
"329 925 LINE",
"274 925 LINE",
"372 769 LINE"
);
}
);
width = 568;
}
);
leftKerningGroup = E;
note = Ecaron;
rightKerningGroup = E;
unicode = 011A;
},
{
glyphname = Ecircumflex;
lastChange = "2015-11-29 23:52:23 +0000";
layers = (
{
layerId = "72ACC467-88F1-4B5B-B511-FE0603CECF6A";
name = "Light Italic";
paths = (
{
closed = 1;
nodes = (
"463 0 LINE",
"472 45 LINE",
"87 45 LINE",
"147 327 LINE",
"438 327 LINE",
"448 372 LINE",
"157 372 LINE",
"217 654 LINE",
"602 654 LINE",
"611 699 LINE",
"173 699 LINE",
"25 0 LINE"
);
},
{
closed = 1;
nodes = (
"301 758 LINE",
"426 879 LINE",
"501 758 LINE",
"555 758 LINE",
"456 914 LINE",
"411 914 LINE",
"247 758 LINE"
);
}
);
width = 568;
}
);
leftKerningGroup = E;
note = Ecircumflex;
rightKerningGroup = E;
unicode = 00CA;
},
{
glyphname = Ecircumflexacute;
lastChange = "2015-11-29 23:52:21 +0000";
layers = (
{
layerId = "72ACC467-88F1-4B5B-B511-FE0603CECF6A";
name = "Light Italic";
paths = (
{
closed = 1;
nodes = (
"463 0 LINE",
"472 45 LINE",
"87 45 LINE",
"147 327 LINE",
"438 327 LINE",
"448 372 LINE",
"157 372 LINE",
"217 654 LINE",
"602 654 LINE",
"611 699 LINE",
"173 699 LINE",
"25 0 LINE"
);
},
{
closed = 1;
nodes = (
"282 744 LINE",
"396 835 LINE",
"472 744 LINE",
"525 744 LINE",
"421 868 LINE",
"384 868 LINE",
"228 744 LINE"
);
},
{
closed = 1;
nodes = (
"519 837 LINE",
"618 951 LINE",
"572 951 LINE",
"481 837 LINE"
);
}
);
width = 568;
}
);
leftKerningGroup = E;
note = Ecircumflexacute;
rightKerningGroup = E;
unicode = 1EBE;
},
{
glyphname = Ecircumflexdotbelow;
lastChange = "2015-11-29 23:52:20 +0000";
layers = (
{
layerId = "72ACC467-88F1-4B5B-B511-FE0603CECF6A";
name = "Light Italic";
paths = (
{
closed = 1;
nodes = (
"463 0 LINE",
"472 45 LINE",
"87 45 LINE",
"147 327 LINE",
"438 327 LINE",
"448 372 LINE",
"157 372 LINE",
"217 654 LINE",
"602 654 LINE",
"611 699 LINE",
"173 699 LINE",
"25 0 LINE"
);
},
{
closed = 1;
nodes = (
"211 -137 OFFCURVE",
"232 -119 OFFCURVE",
"237 -98 CURVE",
"241 -77 OFFCURVE",
"227 -60 OFFCURVE",
"208 -60 CURVE SMOOTH",
"187 -60 OFFCURVE",
"165 -77 OFFCURVE",
"161 -98 CURVE",
"156 -119 OFFCURVE",
"170 -137 OFFCURVE",
"191 -137 CURVE SMOOTH"
);
},
{
closed = 1;
nodes = (
"284 775 LINE",
"409 896 LINE",
"484 775 LINE",
"538 775 LINE",
"439 931 LINE",
"394 931 LINE",
"230 775 LINE"
);
}
);
width = 568;
}
);
leftKerningGroup = E;
note = Ecircumflexdotbelow;
rightKerningGroup = E;
unicode = 1EC6;
},
{
glyphname = Ecircumflexgrave;
lastChange = "2015-11-29 23:52:22 +0000";
layers = (
{
layerId = "72ACC467-88F1-4B5B-B511-FE0603CECF6A";
name = "Light Italic";
paths = (
{
closed = 1;
nodes = (
"482 0 LINE",
"491 45 LINE",
"106 45 LINE",
"166 327 LINE",
"457 327 LINE",
"467 372 LINE",
"176 372 LINE",
"236 654 LINE",
"621 654 LINE",
"630 699 LINE",
"192 699 LINE",
"44 0 LINE"
);
},
{
closed = 1;
nodes = (
"343 837 LINE",
"299 951 LINE",
"253 951 LINE",
"305 837 LINE"
);
},
{
closed = 1;
nodes = (
"312 744 LINE",
"426 835 LINE",
"502 744 LINE",
"555 744 LINE",
"452 868 LINE",
"415 868 LINE",
"259 744 LINE"
);
}
);
width = 588;
}
);
leftKerningGroup = E;
note = Ecircumflexgrave;
rightKerningGroup = E;
unicode = 1EC0;
},
{
glyphname = Ecircumflexhookabove;
lastChange = "2015-11-29 23:52:20 +0000";
layers = (
{
layerId = "72ACC467-88F1-4B5B-B511-FE0603CECF6A";
name = "Light Italic";
paths = (
{
closed = 1;
nodes = (
"463 0 LINE",
"472 45 LINE",
"87 45 LINE",
"147 327 LINE",
"438 327 LINE",
"448 372 LINE",
"157 372 LINE",
"217 654 LINE",
"602 654 LINE",
"611 699 LINE",
"173 699 LINE",
"25 0 LINE"
);
},
{
closed = 1;
nodes = (
"312 744 LINE",
"426 835 LINE",
"502 744 LINE",
"554 744 LINE",
"451 868 LINE",
"414 868 LINE",
"258 744 LINE"
);
},
{
closed = 1;
nodes = (
"548 828 LINE",
"553 854 LINE",
"598 858 OFFCURVE",
"628 883 OFFCURVE",
"635 917 CURVE SMOOTH",
"643 955 OFFCURVE",
"623 981 OFFCURVE",
"571 981 CURVE SMOOTH",
"551 981 OFFCURVE",
"529 977 OFFCURVE",
"515 972 CURVE",
"509 942 LINE",
"521 947 OFFCURVE",
"541 950 OFFCURVE",
"557 950 CURVE SMOOTH",
"587 950 OFFCURVE",
"599 941 OFFCURVE",
"594 917 CURVE SMOOTH",
"588 889 OFFCURVE",
"566 878 OFFCURVE",
"523 878 CURVE",
"513 828 LINE"
);
}
);
width = 569;
}
);
leftKerningGroup = E;
note = Ecircumflexhookabove;
rightKerningGroup = E;
unicode = 1EC2;
},
{
glyphname = Ecircumflextilde;
lastChange = "2015-11-29 23:52:21 +0000";
layers = (
{
layerId = "72ACC467-88F1-4B5B-B511-FE0603CECF6A";
name = "Light Italic";
paths = (
{
closed = 1;
nodes = (
"463 0 LINE",
"472 45 LINE",
"87 45 LINE",
"147 327 LINE",
"438 327 LINE",
"448 372 LINE",
"157 372 LINE",
"217 654 LINE",
"602 654 LINE",
"611 699 LINE",
"173 699 LINE",
"25 0 LINE"
);
},
{
closed = 1;
nodes = (
"314 744 LINE",
"428 835 LINE",
"504 744 LINE",
"556 744 LINE",
"453 868 LINE",
"416 868 LINE",
"260 744 LINE"
);
},
{
closed = 1;
nodes = (
"321 917 OFFCURVE",
"345 927 OFFCURVE",
"375 927 CURVE SMOOTH",
"424 927 OFFCURVE",
"459 882 OFFCURVE",
"516 882 CURVE SMOOTH",
"549 882 OFFCURVE",
"577 892 OFFCURVE",
"599 919 CURVE",
"609 964 LINE",
"579 929 OFFCURVE",
"553 919 OFFCURVE",
"524 919 CURVE SMOOTH",
"474 919 OFFCURVE",
"436 964 OFFCURVE",
"383 964 CURVE SMOOTH",
"349 964 OFFCURVE",
"322 954 OFFCURVE",
"299 927 CURVE",
"289 881 LINE"
);
}
);
width = 568;
}
);
leftKerningGroup = E;
note = Ecircumflextilde;
rightKerningGroup = E;
unicode = 1EC4;
},
{
glyphname = Edieresis;
lastChange = "2015-11-29 23:52:24 +0000";
layers = (
{
layerId = "72ACC467-88F1-4B5B-B511-FE0603CECF6A";
name = "Light Italic";
paths = (
{
closed = 1;
nodes = (
"463 0 LINE",
"472 45 LINE",
"87 45 LINE",
"147 327 LINE",
"438 327 LINE",
"448 372 LINE",
"157 372 LINE",
"217 654 LINE",
"602 654 LINE",
"611 699 LINE",
"173 699 LINE",
"25 0 LINE"
);
},
{
closed = 1;
nodes = (
"316 770 OFFCURVE",
"338 788 OFFCURVE",
"343 809 CURVE",
"347 830 OFFCURVE",
"333 847 OFFCURVE",
"313 847 CURVE SMOOTH",
"292 847 OFFCURVE",
"271 830 OFFCURVE",
"267 809 CURVE",
"262 788 OFFCURVE",
"275 770 OFFCURVE",
"296 770 CURVE SMOOTH"
);
},
{
closed = 1;
nodes = (
"524 770 OFFCURVE",
"546 788 OFFCURVE",
"551 809 CURVE",
"555 830 OFFCURVE",
"541 847 OFFCURVE",
"520 847 CURVE SMOOTH",
"499 847 OFFCURVE",
"477 830 OFFCURVE",
"473 809 CURVE",
"468 788 OFFCURVE",
"482 770 OFFCURVE",
"503 770 CURVE SMOOTH"
);
}
);
width = 568;
}
);
leftKerningGroup = E;
note = Edieresis;
rightKerningGroup = E;
unicode = 00CB;
},
{
glyphname = Edotaccent;
lastChange = "2015-11-29 23:52:22 +0000";
layers = (
{
layerId = "72ACC467-88F1-4B5B-B511-FE0603CECF6A";
name = "Light Italic";
paths = (
{
closed = 1;
nodes = (
"463 0 LINE",
"472 45 LINE",
"87 45 LINE",
"147 327 LINE",
"438 327 LINE",
"448 372 LINE",
"157 372 LINE",
"217 654 LINE",
"602 654 LINE",
"611 699 LINE",
"173 699 LINE",
"25 0 LINE"
);
},
{
closed = 1;
nodes = (
"413 770 OFFCURVE",
"435 788 OFFCURVE",
"440 809 CURVE",
"444 830 OFFCURVE",
"430 847 OFFCURVE",
"410 847 CURVE SMOOTH",
"389 847 OFFCURVE",
"367 830 OFFCURVE",
"363 809 CURVE",
"358 788 OFFCURVE",
"372 770 OFFCURVE",
"393 770 CURVE SMOOTH"
);
}
);
width = 568;
}
);
leftKerningGroup = E;
note = Edotaccent;
rightKerningGroup = E;
unicode = 0116;
},
{
glyphname = Edotbelow;
lastChange = "2015-11-29 23:52:22 +0000";
layers = (
{
layerId = "72ACC467-88F1-4B5B-B511-FE0603CECF6A";
name = "Light Italic";
paths = (
{
closed = 1;
nodes = (
"463 0 LINE",
"472 45 LINE",
"87 45 LINE",
"147 327 LINE",
"438 327 LINE",
"448 372 LINE",
"157 372 LINE",
"217 654 LINE",
"602 654 LINE",
"611 699 LINE",
"173 699 LINE",
"25 0 LINE"
);
},
{
closed = 1;
nodes = (
"213 -137 OFFCURVE",
"234 -119 OFFCURVE",
"239 -98 CURVE",
"243 -77 OFFCURVE",
"229 -60 OFFCURVE",
"210 -60 CURVE SMOOTH",
"189 -60 OFFCURVE",
"167 -77 OFFCURVE",
"163 -98 CURVE",
"158 -119 OFFCURVE",
"172 -137 OFFCURVE",
"193 -137 CURVE SMOOTH"
);
}
);
width = 568;
}
);
leftKerningGroup = E;
note = Edotbelow;
rightKerningGroup = E;
unicode = 1EB8;
},
{
glyphname = Egrave;
lastChange = "2015-11-29 23:52:21 +0000";
layers = (
{
layerId = "72ACC467-88F1-4B5B-B511-FE0603CECF6A";
name = "Light Italic";
paths = (
{
closed = 1;
nodes = (
"463 0 LINE",
"472 45 LINE",
"87 45 LINE",
"147 327 LINE",
"438 327 LINE",
"448 372 LINE",
"157 372 LINE",
"217 654 LINE",
"602 654 LINE",
"611 699 LINE",
"173 699 LINE",
"25 0 LINE"
);
},
{
closed = 1;
nodes = (
"435 766 LINE",
"402 935 LINE",
"347 935 LINE",
"390 766 LINE"
);
}
);
width = 568;
}
);
leftKerningGroup = E;
note = Egrave;
rightKerningGroup = E;
unicode = 00C8;
},
{
glyphname = Ehookabove;
lastChange = "2015-11-29 23:52:20 +0000";
layers = (
{
layerId = "72ACC467-88F1-4B5B-B511-FE0603CECF6A";
name = "Light Italic";
paths = (
{
closed = 1;
nodes = (
"463 0 LINE",
"472 45 LINE",
"87 45 LINE",
"147 327 LINE",
"438 327 LINE",
"448 372 LINE",
"157 372 LINE",
"217 654 LINE",
"602 654 LINE",
"611 699 LINE",
"173 699 LINE",
"25 0 LINE"
);
},
{
closed = 1;
nodes = (
"401 743 LINE",
"409 782 LINE",
"473 787 OFFCURVE",
"513 824 OFFCURVE",
"523 873 CURVE SMOOTH",
"534 925 OFFCURVE",
"505 962 OFFCURVE",
"430 962 CURVE SMOOTH",
"406 962 OFFCURVE",
"378 958 OFFCURVE",
"362 953 CURVE",
"355 918 LINE",
"368 924 OFFCURVE",
"397 927 OFFCURVE",
"415 927 CURVE SMOOTH",
"462 927 OFFCURVE",
"484 910 OFFCURVE",
"476 871 CURVE SMOOTH",
"467 828 OFFCURVE",
"438 808 OFFCURVE",
"370 808 CURVE",
"356 743 LINE"
);
}
);
width = 568;
}
);
leftKerningGroup = E;
note = Ehookabove;
rightKerningGroup = E;
unicode = 1EBA;
},
{
glyphname = Emacron;
lastChange = "2015-11-29 23:52:21 +0000";
layers = (
{
layerId = "72ACC467-88F1-4B5B-B511-FE0603CECF6A";
name = "Light Italic";
paths = (
{
closed = 1;
nodes = (
"463 0 LINE",
"472 45 LINE",
"87 45 LINE",
"147 327 LINE",
"438 327 LINE",
"448 372 LINE",
"157 372 LINE",
"217 654 LINE",
"602 654 LINE",
"611 699 LINE",
"173 699 LINE",
"25 0 LINE"
);
},
{
closed = 1;
nodes = (
"553 793 LINE",
"561 832 LINE",
"272 832 LINE",
"265 793 LINE"
);
}
);
width = 568;
}
);
leftKerningGroup = E;
note = Emacron;
rightKerningGroup = E;
unicode = 0112;
},
{
glyphname = Eogonek;
lastChange = "2015-11-29 23:52:20 +0000";
layers = (
{
layerId = "72ACC467-88F1-4B5B-B511-FE0603CECF6A";
name = "Light Italic";
paths = (
{
closed = 1;
nodes = (
"463 0 LINE",
"472 45 LINE",
"87 45 LINE",
"147 327 LINE",
"438 327 LINE",
"448 372 LINE",
"157 372 LINE",
"217 654 LINE",
"602 654 LINE",
"611 699 LINE",
"173 699 LINE",
"25 0 LINE"
);
},
{
closed = 1;
nodes = (
"369 -208 OFFCURVE",
"389 -205 OFFCURVE",
"403 -199 CURVE",
"411 -162 LINE",
"398 -167 OFFCURVE",
"381 -171 OFFCURVE",
"364 -171 CURVE SMOOTH",
"332 -171 OFFCURVE",
"316 -155 OFFCURVE",
"323 -119 CURVE SMOOTH",
"333 -73 OFFCURVE",
"370 -35 OFFCURVE",
"427 0 CURVE",
"377 0 LINE",
"330 -27 OFFCURVE",
"286 -72 OFFCURVE",
"275 -124 CURVE SMOOTH",
"263 -181 OFFCURVE",
"298 -208 OFFCURVE",
"346 -208 CURVE SMOOTH"
);
}
);
width = 568;
}
);
leftKerningGroup = E;
note = Eogonek;
rightKerningGroup = E;
unicode = 0118;
},
{
glyphname = Etilde;
lastChange = "2015-11-29 23:52:20 +0000";
layers = (
{
layerId = "72ACC467-88F1-4B5B-B511-FE0603CECF6A";
name = "Light Italic";
paths = (
{
closed = 1;
nodes = (
"463 0 LINE",
"472 45 LINE",
"87 45 LINE",
"147 327 LINE",
"438 327 LINE",
"448 372 LINE",
"157 372 LINE",
"217 654 LINE",
"602 654 LINE",
"611 699 LINE",
"173 699 LINE",
"25 0 LINE"
);
},
{
closed = 1;
nodes = (
"251 826 OFFCURVE",
"283 837 OFFCURVE",
"317 837 CURVE SMOOTH",
"381 837 OFFCURVE",
"410 787 OFFCURVE",
"483 787 CURVE SMOOTH",
"522 787 OFFCURVE",
"558 798 OFFCURVE",
"585 831 CURVE",
"596 882 LINE",
"561 840 OFFCURVE",
"527 829 OFFCURVE",
"492 829 CURVE SMOOTH",
"427 829 OFFCURVE",
"394 879 OFFCURVE",
"326 879 CURVE SMOOTH",
"288 879 OFFCURVE",
"251 867 OFFCURVE",
"224 835 CURVE",
"213 784 LINE"
);
}
);
width = 568;
}
);
leftKerningGroup = E;
note = Etilde;
rightKerningGroup = E;
unicode = 1EBC;
},
{
glyphname = F;
lastChange = "2015-11-29 23:52:23 +0000";
layers = (
{
layerId = "72ACC467-88F1-4B5B-B511-FE0603CECF6A";
name = "Light Italic";
paths = (
{
closed = 1;
nodes = (
"78 0 LINE",
"147 327 LINE",
"438 327 LINE",
"448 372 LINE",
"157 372 LINE",
"217 654 LINE",
"602 654 LINE",
"611 699 LINE",
"173 699 LINE",
"25 0 LINE"
);
}
);
width = 548;
}
);
note = F;
unicode = 0046;
},
{
glyphname = G;
lastChange = "2015-11-29 23:52:21 +0000";
layers = (
{
layerId = "72ACC467-88F1-4B5B-B511-FE0603CECF6A";
name = "Light Italic";
paths = (
{
closed = 1;
nodes = (
"466 -15 OFFCURVE",
"562 9 OFFCURVE",
"633 68 CURVE",
"697 370 LINE",
"482 370 LINE",
"473 325 LINE",
"635 325 LINE",
"585 90 LINE",
"528 48 OFFCURVE",
"457 32 OFFCURVE",
"377 32 CURVE SMOOTH",
"188 32 OFFCURVE",
"89 153 OFFCURVE",
"131 349 CURVE SMOOTH",
"172 544 OFFCURVE",
"334 666 OFFCURVE",
"513 666 CURVE SMOOTH",
"610 666 OFFCURVE",
"681 642 OFFCURVE",
"730 583 CURVE",
"742 636 LINE",
"690 689 OFFCURVE",
"615 714 OFFCURVE",
"520 714 CURVE SMOOTH",
"311 714 OFFCURVE",
"125 569 OFFCURVE",
"79 349 CURVE SMOOTH",
"32 129 OFFCURVE",
"156 -15 OFFCURVE",
"365 -15 CURVE SMOOTH"
);
}
);
width = 724;
}
);
leftKerningGroup = C;
note = G;
unicode = 0047;
},
{
glyphname = Gbreve;
lastChange = "2015-11-29 23:52:21 +0000";
layers = (
{
layerId = "72ACC467-88F1-4B5B-B511-FE0603CECF6A";
name = "Light Italic";
paths = (
{
closed = 1;
nodes = (
"466 -15 OFFCURVE",
"562 9 OFFCURVE",
"633 68 CURVE",
"697 370 LINE",
"482 370 LINE",
"473 325 LINE",
"635 325 LINE",
"585 90 LINE",
"528 48 OFFCURVE",
"457 32 OFFCURVE",
"377 32 CURVE SMOOTH",
"188 32 OFFCURVE",
"89 153 OFFCURVE",
"131 349 CURVE SMOOTH",
"172 544 OFFCURVE",
"334 666 OFFCURVE",
"513 666 CURVE SMOOTH",
"610 666 OFFCURVE",
"681 642 OFFCURVE",
"730 583 CURVE",
"742 636 LINE",
"690 689 OFFCURVE",
"615 714 OFFCURVE",
"520 714 CURVE SMOOTH",
"311 714 OFFCURVE",
"125 569 OFFCURVE",
"79 349 CURVE SMOOTH",
"32 129 OFFCURVE",
"156 -15 OFFCURVE",
"365 -15 CURVE SMOOTH"
);
},
{
closed = 1;
nodes = (
"597 743 OFFCURVE",
"659 795 OFFCURVE",
"673 862 CURVE",
"632 862 LINE",
"622 815 OFFCURVE",
"582 782 OFFCURVE",
"528 782 CURVE SMOOTH",
"474 782 OFFCURVE",
"448 815 OFFCURVE",
"458 862 CURVE",
"416 862 LINE",
"402 795 OFFCURVE",
"442 743 OFFCURVE",
"520 743 CURVE SMOOTH"
);
}
);
width = 724;
}
);
leftKerningGroup = C;
note = Gbreve;
unicode = 011E;
},
{
glyphname = Gcaron;
lastChange = "2015-11-29 23:52:23 +0000";
layers = (
{
layerId = "72ACC467-88F1-4B5B-B511-FE0603CECF6A";
name = "Light Italic";
paths = (
{
closed = 1;
nodes = (
"466 -15 OFFCURVE",
"562 9 OFFCURVE",
"633 68 CURVE",
"697 370 LINE",
"482 370 LINE",
"473 325 LINE",
"635 325 LINE",
"585 90 LINE",
"528 48 OFFCURVE",
"457 32 OFFCURVE",
"377 32 CURVE SMOOTH",
"188 32 OFFCURVE",
"89 153 OFFCURVE",
"131 349 CURVE SMOOTH",
"172 544 OFFCURVE",
"334 666 OFFCURVE",
"513 666 CURVE SMOOTH",
"610 666 OFFCURVE",
"681 642 OFFCURVE",
"730 583 CURVE",
"742 636 LINE",
"690 689 OFFCURVE",
"615 714 OFFCURVE",
"520 714 CURVE SMOOTH",
"311 714 OFFCURVE",
"125 569 OFFCURVE",
"79 349 CURVE SMOOTH",
"32 129 OFFCURVE",
"156 -15 OFFCURVE",
"365 -15 CURVE SMOOTH"
);
},
{
closed = 1;
nodes = (
"539 763 LINE",
"705 919 LINE",
"651 919 LINE",
"525 798 LINE",
"451 919 LINE",
"396 919 LINE",
"494 763 LINE"
);
}
);
width = 724;
}
);
leftKerningGroup = C;
note = Gcaron;
unicode = 01E6;
},
{
glyphname = Gcircumflex;
lastChange = "2015-11-29 23:52:23 +0000";
layers = (
{
layerId = "72ACC467-88F1-4B5B-B511-FE0603CECF6A";
name = "Light Italic";
paths = (
{
closed = 1;
nodes = (
"466 -15 OFFCURVE",
"562 9 OFFCURVE",
"633 68 CURVE",
"697 370 LINE",
"482 370 LINE",
"473 325 LINE",
"635 325 LINE",
"585 90 LINE",
"528 48 OFFCURVE",
"457 32 OFFCURVE",
"377 32 CURVE SMOOTH",
"188 32 OFFCURVE",
"89 153 OFFCURVE",
"131 349 CURVE SMOOTH",
"172 544 OFFCURVE",
"334 666 OFFCURVE",
"513 666 CURVE SMOOTH",
"610 666 OFFCURVE",
"681 642 OFFCURVE",
"730 583 CURVE",
"742 636 LINE",
"690 689 OFFCURVE",
"615 714 OFFCURVE",
"520 714 CURVE SMOOTH",
"311 714 OFFCURVE",
"125 569 OFFCURVE",
"79 349 CURVE SMOOTH",
"32 129 OFFCURVE",
"156 -15 OFFCURVE",
"365 -15 CURVE SMOOTH"
);
},
{
closed = 1;
nodes = (
"423 758 LINE",
"548 879 LINE",
"623 758 LINE",
"677 758 LINE",
"578 914 LINE",
"533 914 LINE",
"369 758 LINE"
);
}
);
width = 724;
}
);
leftKerningGroup = C;
note = Gcircumflex;
unicode = 011C;
},
{
glyphname = Gcommaaccent;
lastChange = "2015-11-29 23:52:22 +0000";
layers = (
{
layerId = "72ACC467-88F1-4B5B-B511-FE0603CECF6A";
name = "Light Italic";
paths = (
{
closed = 1;
nodes = (
"466 -15 OFFCURVE",
"562 9 OFFCURVE",
"633 68 CURVE",
"697 370 LINE",
"482 370 LINE",
"473 325 LINE",
"635 325 LINE",
"585 90 LINE",
"528 48 OFFCURVE",
"457 32 OFFCURVE",
"377 32 CURVE SMOOTH",
"188 32 OFFCURVE",
"89 153 OFFCURVE",
"131 349 CURVE SMOOTH",
"172 544 OFFCURVE",
"334 666 OFFCURVE",
"513 666 CURVE SMOOTH",
"610 666 OFFCURVE",
"681 642 OFFCURVE",
"730 583 CURVE",
"742 636 LINE",
"690 689 OFFCURVE",
"615 714 OFFCURVE",
"520 714 CURVE SMOOTH",
"311 714 OFFCURVE",
"125 569 OFFCURVE",
"79 349 CURVE SMOOTH",
"32 129 OFFCURVE",
"156 -15 OFFCURVE",
"365 -15 CURVE SMOOTH"
);
},
{
closed = 1;
nodes = (
"251 -260 LINE",
"380 -67 LINE",
"324 -67 LINE",
"205 -260 LINE"
);
}
);
width = 724;
}
);
leftKerningGroup = C;
note = Gcommaaccent;
unicode = 0122;
},
{
glyphname = Gdotaccent;
lastChange = "2015-11-29 23:52:22 +0000";
layers = (
{
layerId = "72ACC467-88F1-4B5B-B511-FE0603CECF6A";
name = "Light Italic";
paths = (
{
closed = 1;
nodes = (
"466 -15 OFFCURVE",
"562 9 OFFCURVE",
"633 68 CURVE",
"697 370 LINE",
"482 370 LINE",
"473 325 LINE",
"635 325 LINE",
"585 90 LINE",
"528 48 OFFCURVE",
"457 32 OFFCURVE",
"377 32 CURVE SMOOTH",
"188 32 OFFCURVE",
"89 153 OFFCURVE",
"131 349 CURVE SMOOTH",
"172 544 OFFCURVE",
"334 666 OFFCURVE",
"513 666 CURVE SMOOTH",
"610 666 OFFCURVE",
"681 642 OFFCURVE",
"730 583 CURVE",
"742 636 LINE",
"690 689 OFFCURVE",
"615 714 OFFCURVE",
"520 714 CURVE SMOOTH",
"311 714 OFFCURVE",
"125 569 OFFCURVE",
"79 349 CURVE SMOOTH",
"32 129 OFFCURVE",
"156 -15 OFFCURVE",
"365 -15 CURVE SMOOTH"
);
},
{
closed = 1;
nodes = (
"543 752 OFFCURVE",
"565 770 OFFCURVE",
"570 791 CURVE",
"574 812 OFFCURVE",
"560 829 OFFCURVE",
"540 829 CURVE SMOOTH",
"519 829 OFFCURVE",
"497 812 OFFCURVE",
"493 791 CURVE",
"488 770 OFFCURVE",
"502 752 OFFCURVE",
"523 752 CURVE SMOOTH"
);
}
);
width = 724;
}
);
leftKerningGroup = C;
note = Gdotaccent;
unicode = 0120;
},
{
glyphname = Gmacron;
lastChange = "2015-11-29 23:52:22 +0000";
layers = (
{
layerId = "72ACC467-88F1-4B5B-B511-FE0603CECF6A";
name = "Light Italic";
paths = (
{
closed = 1;
nodes = (
"466 -15 OFFCURVE",
"562 9 OFFCURVE",
"633 68 CURVE",
"697 370 LINE",
"482 370 LINE",
"473 325 LINE",
"635 325 LINE",
"585 90 LINE",
"528 48 OFFCURVE",
"457 32 OFFCURVE",
"377 32 CURVE SMOOTH",
"188 32 OFFCURVE",
"89 153 OFFCURVE",
"131 349 CURVE SMOOTH",
"172 544 OFFCURVE",
"334 666 OFFCURVE",
"513 666 CURVE SMOOTH",
"610 666 OFFCURVE",
"681 642 OFFCURVE",
"730 583 CURVE",
"742 636 LINE",
"690 689 OFFCURVE",
"615 714 OFFCURVE",
"520 714 CURVE SMOOTH",
"311 714 OFFCURVE",
"125 569 OFFCURVE",
"79 349 CURVE SMOOTH",
"32 129 OFFCURVE",
"156 -15 OFFCURVE",
"365 -15 CURVE SMOOTH"
);
},
{
closed = 1;
nodes = (
"667 787 LINE",
"675 826 LINE",
"386 826 LINE",
"379 787 LINE"
);
}
);
width = 724;
}
);
leftKerningGroup = C;
note = Gmacron;
unicode = 1E20;
},
{
glyphname = H;
lastChange = "2015-11-29 23:52:24 +0000";
layers = (
{
layerId = "72ACC467-88F1-4B5B-B511-FE0603CECF6A";
name = "Light Italic";
paths = (
{
closed = 1;
nodes = (
"78 0 LINE",
"148 334 LINE",
"573 334 LINE",
"503 0 LINE",
"556 0 LINE",
"704 699 LINE",
"651 699 LINE",
"583 379 LINE",
"158 379 LINE",
"226 699 LINE",
"173 699 LINE",
"25 0 LINE"
);
}
);
width = 681;
}
);
note = H;
unicode = 0048;
},
{
glyphname = Hbar;
lastChange = "2015-11-29 23:52:23 +0000";
layers = (
{
layerId = "72ACC467-88F1-4B5B-B511-FE0603CECF6A";
name = "Light Italic";
paths = (
{
closed = 1;
nodes = (
"86 0 LINE",
"156 333 LINE",
"581 333 LINE",
"511 0 LINE",
"564 0 LINE",
"673 515 LINE",
"728 515 LINE",
"737 558 LINE",
"682 558 LINE",
"712 699 LINE",
"659 699 LINE",
"629 558 LINE",
"204 558 LINE",
"234 699 LINE",
"181 699 LINE",
"151 558 LINE",
"98 558 LINE",
"89 515 LINE",
"142 515 LINE",
"33 0 LINE"
);
},
{
closed = 1;
nodes = (
"195 515 LINE",
"620 515 LINE",
"591 380 LINE",
"166 380 LINE"
);
}
);
width = 709;
}
);
note = Hbar;
unicode = 0126;
},
{
glyphname = Hbrevebelow;
lastChange = "2015-11-29 23:52:23 +0000";
layers = (
{
layerId = "72ACC467-88F1-4B5B-B511-FE0603CECF6A";
name = "Light Italic";
paths = (
{
closed = 1;
nodes = (
"78 0 LINE",
"148 334 LINE",
"573 334 LINE",
"503 0 LINE",
"556 0 LINE",
"704 699 LINE",
"651 699 LINE",
"583 379 LINE",
"158 379 LINE",
"226 699 LINE",
"173 699 LINE",
"25 0 LINE"
);
},
{
closed = 1;
nodes = (
"328 -184 OFFCURVE",
"390 -133 OFFCURVE",
"405 -65 CURVE",
"364 -65 LINE",
"354 -112 OFFCURVE",
"313 -146 OFFCURVE",
"260 -146 CURVE SMOOTH",
"206 -146 OFFCURVE",
"181 -112 OFFCURVE",
"191 -65 CURVE",
"149 -65 LINE",
"134 -133 OFFCURVE",
"174 -184 OFFCURVE",
"252 -184 CURVE SMOOTH"
);
}
);
width = 681;
}
);
note = Hbrevebelow;
unicode = 1E2A;
},
{
glyphname = Hcircumflex;
lastChange = "2015-11-29 23:52:22 +0000";
layers = (
{
layerId = "72ACC467-88F1-4B5B-B511-FE0603CECF6A";
name = "Light Italic";
paths = (
{
closed = 1;
nodes = (
"78 0 LINE",
"148 334 LINE",
"573 334 LINE",
"503 0 LINE",
"556 0 LINE",
"704 699 LINE",
"651 699 LINE",
"583 379 LINE",
"158 379 LINE",
"226 699 LINE",
"173 699 LINE",
"25 0 LINE"
);
},
{
closed = 1;
nodes = (
"354 770 LINE",
"479 891 LINE",
"554 770 LINE",
"608 770 LINE",
"509 926 LINE",
"464 926 LINE",
"300 770 LINE"
);
}
);
width = 681;
}
);
note = Hcircumflex;
unicode = 0124;
},
{
glyphname = Hdotbelow;
lastChange = "2015-11-29 23:52:22 +0000";
layers = (
{
layerId = "72ACC467-88F1-4B5B-B511-FE0603CECF6A";
name = "Light Italic";
paths = (
{
closed = 1;
nodes = (
"78 0 LINE",
"148 334 LINE",
"573 334 LINE",
"503 0 LINE",
"556 0 LINE",
"704 699 LINE",
"651 699 LINE",
"583 379 LINE",
"158 379 LINE",
"226 699 LINE",
"173 699 LINE",
"25 0 LINE"
);
},
{
closed = 1;
nodes = (
"282 -137 OFFCURVE",
"303 -119 OFFCURVE",
"308 -98 CURVE",
"312 -77 OFFCURVE",
"298 -60 OFFCURVE",
"279 -60 CURVE SMOOTH",
"258 -60 OFFCURVE",
"236 -77 OFFCURVE",
"232 -98 CURVE",
"227 -119 OFFCURVE",
"241 -137 OFFCURVE",
"262 -137 CURVE SMOOTH"
);
}
);
width = 681;
}
);
note = Hdotbelow;
unicode = 1E24;
},
{
glyphname = I;
lastChange = "2015-11-29 23:52:21 +0000";
layers = (
{
layerId = "72ACC467-88F1-4B5B-B511-FE0603CECF6A";
name = "Light Italic";
paths = (
{
closed = 1;
nodes = (
"78 0 LINE",
"226 699 LINE",
"173 699 LINE",
"25 0 LINE"
);
}
);
width = 204;
}
);
note = I;
unicode = 0049;
},
{
glyphname = IJ;
lastChange = "2015-11-29 23:52:21 +0000";
layers = (
{
layerId = "72ACC467-88F1-4B5B-B511-FE0603CECF6A";
name = "Light Italic";
paths = (
{
closed = 1;
nodes = (
"388 -15 OFFCURVE",
"460 36 OFFCURVE",
"482 141 CURVE SMOOTH",
"601 699 LINE",
"548 699 LINE",
"430 144 LINE SMOOTH",
"414 67 OFFCURVE",
"365 31 OFFCURVE",
"291 31 CURVE SMOOTH",
"267 31 OFFCURVE",
"229 36 OFFCURVE",
"210 44 CURVE",
"200 -2 LINE",
"219 -10 OFFCURVE",
"258 -15 OFFCURVE",
"291 -15 CURVE SMOOTH"
);
},
{
closed = 1;
nodes = (
"78 0 LINE",
"226 699 LINE",
"173 699 LINE",
"25 0 LINE"
);
}
);
width = 573;
}
);
note = IJ;
rightKerningGroup = J;
unicode = 0132;
},
{
glyphname = Iacute;
lastChange = "2015-11-29 23:52:23 +0000";
layers = (
{
layerId = "72ACC467-88F1-4B5B-B511-FE0603CECF6A";
name = "Light Italic";
paths = (
{
closed = 1;
nodes = (
"78 0 LINE",
"226 699 LINE",
"173 699 LINE",
"25 0 LINE"
);
},
{
closed = 1;
nodes = (
"235 754 LINE",
"349 923 LINE",
"295 923 LINE",
"189 754 LINE"
);
}
);
width = 204;
}
);
note = Iacute;
unicode = 00CD;
},
{
glyphname = Ibreve;
lastChange = "2015-11-29 23:52:22 +0000";
layers = (
{
layerId = "72ACC467-88F1-4B5B-B511-FE0603CECF6A";
name = "Light Italic";
paths = (
{
closed = 1;
nodes = (
"78 0 LINE",
"226 699 LINE",
"173 699 LINE",
"25 0 LINE"
);
},
{
closed = 1;
nodes = (
"289 759 OFFCURVE",
"351 811 OFFCURVE",
"365 878 CURVE",
"324 878 LINE",
"314 831 OFFCURVE",
"274 798 OFFCURVE",
"220 798 CURVE SMOOTH",
"166 798 OFFCURVE",
"140 831 OFFCURVE",
"150 878 CURVE",
"108 878 LINE",
"94 811 OFFCURVE",
"134 759 OFFCURVE",
"212 759 CURVE SMOOTH"
);
}
);
width = 204;
}
);
note = Ibreve;
unicode = 012C;
},
{
glyphname = Icaron;
lastChange = "2015-11-29 23:52:20 +0000";
layers = (
{
layerId = "72ACC467-88F1-4B5B-B511-FE0603CECF6A";
name = "Light Italic";
paths = (
{
closed = 1;
nodes = (
"78 0 LINE",
"226 699 LINE",
"173 699 LINE",
"25 0 LINE"
);
},
{
closed = 1;
nodes = (
"235 763 LINE",
"401 919 LINE",
"347 919 LINE",
"221 798 LINE",
"147 919 LINE",
"92 919 LINE",
"190 763 LINE"
);
}
);
width = 204;
}
);
note = Icaron;
unicode = 01CF;
},
{
glyphname = Icircumflex;
lastChange = "2015-11-29 23:52:21 +0000";
layers = (
{
layerId = "72ACC467-88F1-4B5B-B511-FE0603CECF6A";
name = "Light Italic";
paths = (
{
closed = 1;
nodes = (
"78 0 LINE",
"226 699 LINE",
"173 699 LINE",
"25 0 LINE"
);
},
{
closed = 1;
nodes = (
"112 758 LINE",
"237 879 LINE",
"312 758 LINE",
"366 758 LINE",
"267 914 LINE",
"222 914 LINE",
"58 758 LINE"
);
}
);
width = 204;
}
);
note = Icircumflex;
unicode = 00CE;
},
{
glyphname = Idieresis;
lastChange = "2015-11-29 23:52:23 +0000";
layers = (
{
layerId = "72ACC467-88F1-4B5B-B511-FE0603CECF6A";
name = "Light Italic";
paths = (
{
closed = 1;
nodes = (
"78 0 LINE",
"226 699 LINE",
"173 699 LINE",
"25 0 LINE"
);
},
{
closed = 1;
nodes = (
"130 771 OFFCURVE",
"152 789 OFFCURVE",
"157 810 CURVE",
"161 831 OFFCURVE",
"147 848 OFFCURVE",
"127 848 CURVE SMOOTH",
"106 848 OFFCURVE",
"85 831 OFFCURVE",
"81 810 CURVE",
"76 789 OFFCURVE",
"89 771 OFFCURVE",
"110 771 CURVE SMOOTH"
);
},
{
closed = 1;
nodes = (
"338 771 OFFCURVE",
"360 789 OFFCURVE",
"365 810 CURVE",
"369 831 OFFCURVE",
"355 848 OFFCURVE",
"334 848 CURVE SMOOTH",
"313 848 OFFCURVE",
"291 831 OFFCURVE",
"287 810 CURVE",
"282 789 OFFCURVE",
"296 771 OFFCURVE",
"317 771 CURVE SMOOTH"
);
}
);
width = 204;
}
);
note = Idieresis;
unicode = 00CF;
},
{
glyphname = Idotaccent;
lastChange = "2015-11-29 23:52:20 +0000";
layers = (
{
layerId = "72ACC467-88F1-4B5B-B511-FE0603CECF6A";
name = "Light Italic";
paths = (
{
closed = 1;
nodes = (
"78 0 LINE",
"226 699 LINE",
"173 699 LINE",
"25 0 LINE"
);
},
{
closed = 1;
nodes = (
"230 752 OFFCURVE",
"252 770 OFFCURVE",
"257 791 CURVE",
"261 812 OFFCURVE",
"247 829 OFFCURVE",
"227 829 CURVE SMOOTH",
"206 829 OFFCURVE",
"184 812 OFFCURVE",
"180 791 CURVE",
"175 770 OFFCURVE",
"189 752 OFFCURVE",
"210 752 CURVE SMOOTH"
);
}
);
width = 204;
}
);
note = Idotaccent;
unicode = 0130;
},
{
glyphname = Idotbelow;
lastChange = "2015-11-29 23:52:22 +0000";
layers = (
{
layerId = "72ACC467-88F1-4B5B-B511-FE0603CECF6A";
name = "Light Italic";
paths = (
{
closed = 1;
nodes = (
"78 0 LINE",
"226 699 LINE",
"173 699 LINE",
"25 0 LINE"
);
},
{
closed = 1;
nodes = (
"43 -137 OFFCURVE",
"64 -119 OFFCURVE",
"69 -98 CURVE",
"73 -77 OFFCURVE",
"59 -60 OFFCURVE",
"40 -60 CURVE SMOOTH",
"19 -60 OFFCURVE",
"-3 -77 OFFCURVE",
"-7 -98 CURVE",
"-12 -119 OFFCURVE",
"2 -137 OFFCURVE",
"23 -137 CURVE SMOOTH"
);
}
);
width = 204;
}
);
note = Idotbelow;
unicode = 1ECA;
},
{
glyphname = Igrave;
lastChange = "2015-11-29 23:52:23 +0000";
layers = (
{
layerId = "72ACC467-88F1-4B5B-B511-FE0603CECF6A";
name = "Light Italic";
paths = (
{
closed = 1;
nodes = (
"78 0 LINE",
"226 699 LINE",
"173 699 LINE",
"25 0 LINE"
);
},
{
closed = 1;
nodes = (
"238 766 LINE",
"205 935 LINE",
"150 935 LINE",
"193 766 LINE"
);
}
);
width = 204;
}
);
note = Igrave;
unicode = 00CC;
},
{
glyphname = Ihookabove;
lastChange = "2015-11-29 23:52:21 +0000";
layers = (
{
layerId = "72ACC467-88F1-4B5B-B511-FE0603CECF6A";
name = "Light Italic";
paths = (
{
closed = 1;
nodes = (
"78 0 LINE",
"226 699 LINE",
"173 699 LINE",
"25 0 LINE"
);
},
{
closed = 1;
nodes = (
"232 743 LINE",
"240 782 LINE",
"304 787 OFFCURVE",
"344 824 OFFCURVE",
"354 873 CURVE SMOOTH",
"365 925 OFFCURVE",
"336 962 OFFCURVE",
"261 962 CURVE SMOOTH",
"237 962 OFFCURVE",
"209 958 OFFCURVE",
"193 953 CURVE",
"186 918 LINE",
"199 924 OFFCURVE",
"228 927 OFFCURVE",
"246 927 CURVE SMOOTH",
"293 927 OFFCURVE",
"315 910 OFFCURVE",
"307 871 CURVE SMOOTH",
"298 828 OFFCURVE",
"269 808 OFFCURVE",
"201 808 CURVE",
"187 743 LINE"
);
}
);
width = 204;
}
);
note = Ihookabove;
unicode = 1EC8;
},
{
glyphname = Imacron;
lastChange = "2015-11-29 23:52:20 +0000";
layers = (
{
layerId = "72ACC467-88F1-4B5B-B511-FE0603CECF6A";
name = "Light Italic";
paths = (
{
closed = 1;
nodes = (
"78 0 LINE",
"226 699 LINE",
"173 699 LINE",
"25 0 LINE"
);
},
{
closed = 1;
nodes = (
"359 763 LINE",
"368 804 LINE",
"76 804 LINE",
"67 763 LINE"
);
}
);
width = 204;
}
);
note = Imacron;
unicode = 012A;
},
{
glyphname = Iogonek;
lastChange = "2015-11-29 23:52:20 +0000";
layers = (
{
layerId = "72ACC467-88F1-4B5B-B511-FE0603CECF6A";
name = "Light Italic";
paths = (
{
closed = 1;
nodes = (
"78 0 LINE",
"226 699 LINE",
"173 699 LINE",
"25 0 LINE"
);
},
{
closed = 1;
nodes = (
"19 -208 OFFCURVE",
"39 -205 OFFCURVE",
"53 -199 CURVE",
"61 -162 LINE",
"48 -167 OFFCURVE",
"31 -171 OFFCURVE",
"14 -171 CURVE SMOOTH",
"-18 -171 OFFCURVE",
"-34 -155 OFFCURVE",
"-27 -119 CURVE SMOOTH",
"-17 -73 OFFCURVE",
"20 -35 OFFCURVE",
"77 0 CURVE",
"27 0 LINE",
"-20 -27 OFFCURVE",
"-64 -72 OFFCURVE",
"-75 -124 CURVE SMOOTH",
"-87 -181 OFFCURVE",
"-52 -208 OFFCURVE",
"-4 -208 CURVE SMOOTH"
);
}
);
width = 204;
}
);
note = Iogonek;
unicode = 012E;
},
{
glyphname = Itilde;
lastChange = "2015-11-29 23:52:20 +0000";
layers = (
{
layerId = "72ACC467-88F1-4B5B-B511-FE0603CECF6A";
name = "Light Italic";
paths = (
{
closed = 1;
nodes = (
"78 0 LINE",
"226 699 LINE",
"173 699 LINE",
"25 0 LINE"
);
},
{
closed = 1;
nodes = (
"71 806 OFFCURVE",
"103 817 OFFCURVE",
"137 817 CURVE SMOOTH",
"201 817 OFFCURVE",
"230 767 OFFCURVE",
"303 767 CURVE SMOOTH",
"342 767 OFFCURVE",
"378 778 OFFCURVE",
"405 811 CURVE",
"416 862 LINE",
"381 820 OFFCURVE",
"347 809 OFFCURVE",
"312 809 CURVE SMOOTH",
"247 809 OFFCURVE",
"214 859 OFFCURVE",
"146 859 CURVE SMOOTH",
"108 859 OFFCURVE",
"71 847 OFFCURVE",
"44 815 CURVE",
"33 764 LINE"
);
}
);
width = 204;
}
);
note = Itilde;
unicode = 0128;
},
{
glyphname = J;
lastChange = "2015-11-29 23:52:24 +0000";
layers = (
{
layerId = "72ACC467-88F1-4B5B-B511-FE0603CECF6A";
name = "Light Italic";
paths = (
{
closed = 1;
nodes = (
"172 -15 OFFCURVE",
"244 36 OFFCURVE",
"266 141 CURVE SMOOTH",
"385 699 LINE",
"332 699 LINE",
"214 144 LINE SMOOTH",
"198 67 OFFCURVE",
"149 31 OFFCURVE",
"75 31 CURVE SMOOTH",
"51 31 OFFCURVE",
"13 36 OFFCURVE",
"-6 44 CURVE",
"-16 -2 LINE",
"3 -10 OFFCURVE",
"42 -15 OFFCURVE",
"75 -15 CURVE SMOOTH"
);
}
);
width = 357;
}
);
note = J;
rightKerningGroup = J;
unicode = 004A;
},
{
glyphname = Jcircumflex;
lastChange = "2015-11-29 23:52:23 +0000";
layers = (
{
layerId = "72ACC467-88F1-4B5B-B511-FE0603CECF6A";
name = "Light Italic";
paths = (
{
closed = 1;
nodes = (
"172 -15 OFFCURVE",
"244 36 OFFCURVE",
"266 141 CURVE SMOOTH",
"385 699 LINE",
"332 699 LINE",
"214 144 LINE SMOOTH",
"198 67 OFFCURVE",
"149 31 OFFCURVE",
"75 31 CURVE SMOOTH",
"51 31 OFFCURVE",
"13 36 OFFCURVE",
"-6 44 CURVE",
"-16 -2 LINE",
"3 -10 OFFCURVE",
"42 -15 OFFCURVE",
"75 -15 CURVE SMOOTH"
);
},
{
closed = 1;
nodes = (
"270 758 LINE",
"395 879 LINE",
"470 758 LINE",
"524 758 LINE",
"425 914 LINE",
"380 914 LINE",
"216 758 LINE"
);
}
);
width = 357;
}
);
note = Jcircumflex;
rightKerningGroup = J;
unicode = 0134;
},
{
glyphname = K;
lastChange = "2015-11-29 23:52:23 +0000";
layers = (
{
layerId = "72ACC467-88F1-4B5B-B511-FE0603CECF6A";
name = "Light Italic";
paths = (
{
closed = 1;
nodes = (
"78 0 LINE",
"152 351 LINE",
"441 0 LINE",
"502 0 LINE",
"214 350 LINE",
"635 699 LINE",
"568 699 LINE",
"154 357 LINE",
"226 699 LINE",
"173 699 LINE",
"25 0 LINE"
);
}
);
width = 604;
}
);
leftKerningGroup = K;
note = K;
rightKerningGroup = K;
unicode = 004B;
},
{
glyphname = Kcommaaccent;
lastChange = "2015-11-29 23:52:21 +0000";
layers = (
{
layerId = "72ACC467-88F1-4B5B-B511-FE0603CECF6A";
name = "Light Italic";
paths = (
{
closed = 1;
nodes = (
"78 0 LINE",
"152 351 LINE",
"441 0 LINE",
"502 0 LINE",
"214 350 LINE",
"635 699 LINE",
"568 699 LINE",
"154 357 LINE",
"226 699 LINE",
"173 699 LINE",
"25 0 LINE"
);
},
{
closed = 1;
nodes = (
"121 -260 LINE",
"250 -67 LINE",
"194 -67 LINE",
"75 -260 LINE"
);
}
);
width = 622;
}
);
leftKerningGroup = K;
note = Kcommaaccent;
rightKerningGroup = K;
unicode = 0136;
},
{
glyphname = L;
lastChange = "2015-11-29 23:52:22 +0000";
layers = (
{
layerId = "72ACC467-88F1-4B5B-B511-FE0603CECF6A";
name = "Light Italic";
paths = (
{
closed = 1;
nodes = (
"463 0 LINE",
"472 45 LINE",
"87 45 LINE",
"226 699 LINE",
"173 699 LINE",
"25 0 LINE"
);
}
);
width = 546;
}
);
note = L;
rightKerningGroup = L;
unicode = 004C;
},
{
glyphname = Lacute;
lastChange = "2015-11-29 23:52:20 +0000";
layers = (
{
layerId = "72ACC467-88F1-4B5B-B511-FE0603CECF6A";
name = "Light Italic";
paths = (
{
closed = 1;
nodes = (
"463 0 LINE",
"472 45 LINE",
"87 45 LINE",
"226 699 LINE",
"173 699 LINE",
"25 0 LINE"
);
},
{
closed = 1;
nodes = (
"236 764 LINE",
"350 933 LINE",
"296 933 LINE",
"190 764 LINE"
);
}
);
width = 546;
}
);
note = Lacute;
rightKerningGroup = L;
unicode = 0139;
},
{
glyphname = Lcaron;
lastChange = "2015-11-29 23:52:23 +0000";
layers = (
{
layerId = "72ACC467-88F1-4B5B-B511-FE0603CECF6A";
name = "Light Italic";
paths = (
{
closed = 1;
nodes = (
"463 0 LINE",
"472 45 LINE",
"87 45 LINE",
"226 699 LINE",
"173 699 LINE",
"25 0 LINE"
);
},
{
closed = 1;
nodes = (
"351 502 LINE",
"480 695 LINE",
"424 695 LINE",
"305 502 LINE"
);
}
);
width = 546;
}
);
note = Lcaron;
rightKerningGroup = L;
unicode = 013D;
},
{
glyphname = Lcommaaccent;
lastChange = "2015-11-29 23:52:20 +0000";
layers = (
{
layerId = "72ACC467-88F1-4B5B-B511-FE0603CECF6A";
name = "Light Italic";
paths = (
{
closed = 1;
nodes = (
"463 0 LINE",
"472 45 LINE",
"87 45 LINE",
"226 699 LINE",
"173 699 LINE",
"25 0 LINE"
);
},
{
closed = 1;
nodes = (
"130 -260 LINE",
"259 -67 LINE",
"203 -67 LINE",
"84 -260 LINE"
);
}
);
width = 546;
}
);
note = Lcommaaccent;
rightKerningGroup = L;
unicode = 013B;
},
{
glyphname = Ldot;
lastChange = "2015-11-29 23:52:22 +0000";
layers = (
{
layerId = "72ACC467-88F1-4B5B-B511-FE0603CECF6A";
name = "Light Italic";
paths = (
{
closed = 1;
nodes = (
"463 0 LINE",
"472 45 LINE",
"87 45 LINE",
"226 699 LINE",
"173 699 LINE",
"25 0 LINE"
);
},
{
closed = 1;
nodes = (
"373 336 OFFCURVE",
"395 354 OFFCURVE",
"400 375 CURVE",
"404 396 OFFCURVE",
"390 413 OFFCURVE",
"370 413 CURVE SMOOTH",
"349 413 OFFCURVE",
"327 396 OFFCURVE",
"323 375 CURVE",
"318 354 OFFCURVE",
"332 336 OFFCURVE",
"353 336 CURVE SMOOTH"
);
}
);
width = 546;
}
);
note = Ldot;
rightKerningGroup = L;
unicode = 013F;
},
{
glyphname = Ldotbelow;
lastChange = "2015-11-29 23:52:21 +0000";
layers = (
{
layerId = "72ACC467-88F1-4B5B-B511-FE0603CECF6A";
name = "Light Italic";
paths = (
{
closed = 1;
nodes = (
"463 0 LINE",
"472 45 LINE",
"87 45 LINE",
"226 699 LINE",
"173 699 LINE",
"25 0 LINE"
);
},
{
closed = 1;
nodes = (
"228 -137 OFFCURVE",
"249 -119 OFFCURVE",
"254 -98 CURVE",
"258 -77 OFFCURVE",
"244 -60 OFFCURVE",
"225 -60 CURVE SMOOTH",
"204 -60 OFFCURVE",
"182 -77 OFFCURVE",
"178 -98 CURVE",
"173 -119 OFFCURVE",
"187 -137 OFFCURVE",
"208 -137 CURVE SMOOTH"
);
}
);
width = 546;
}
);
note = Ldotbelow;
rightKerningGroup = L;
unicode = 1E36;
},
{
glyphname = Ldotbelowmacron;
lastChange = "2015-11-29 23:52:22 +0000";
layers = (
{
layerId = "72ACC467-88F1-4B5B-B511-FE0603CECF6A";
name = "Light Italic";
paths = (
{
closed = 1;
nodes = (
"463 0 LINE",
"472 45 LINE",
"87 45 LINE",
"226 699 LINE",
"173 699 LINE",
"25 0 LINE"
);
},
{
closed = 1;
nodes = (
"231 -137 OFFCURVE",
"252 -119 OFFCURVE",
"257 -98 CURVE",
"261 -77 OFFCURVE",
"247 -60 OFFCURVE",
"228 -60 CURVE SMOOTH",
"207 -60 OFFCURVE",
"185 -77 OFFCURVE",
"181 -98 CURVE",
"176 -119 OFFCURVE",
"190 -137 OFFCURVE",
"211 -137 CURVE SMOOTH"
);
},
{
closed = 1;
nodes = (
"519 798 LINE",
"527 837 LINE",
"238 837 LINE",
"231 798 LINE"
);
}
);
width = 546;
}
);
note = Ldotbelowmacron;
rightKerningGroup = L;
unicode = 1E38;
},
{
glyphname = Llinebelow;
lastChange = "2015-11-29 23:52:23 +0000";
layers = (
{
layerId = "72ACC467-88F1-4B5B-B511-FE0603CECF6A";
name = "Light Italic";
paths = (
{
closed = 1;
nodes = (
"463 0 LINE",
"472 45 LINE",
"87 45 LINE",
"226 699 LINE",
"173 699 LINE",
"25 0 LINE"
);
},
{
closed = 1;
nodes = (
"367 -121 LINE",
"375 -80 LINE",
"85 -80 LINE",
"77 -121 LINE"
);
}
);
width = 546;
}
);
note = Llinebelow;
rightKerningGroup = L;
unicode = 1E3A;
},
{
glyphname = Lslash;
lastChange = "2015-11-29 23:52:21 +0000";
layers = (
{
layerId = "72ACC467-88F1-4B5B-B511-FE0603CECF6A";
name = "Light Italic";
paths = (
{
closed = 1;
nodes = (
"532 0 LINE",
"541 45 LINE",
"155 45 LINE",
"219 346 LINE",
"411 425 LINE",
"421 472 LINE",
"229 394 LINE",
"294 699 LINE",
"241 699 LINE",
"171 370 LINE",
"42 318 LINE",
"32 270 LINE",
"161 323 LINE",
"93 0 LINE"
);
}
);
width = 612;
}
);
note = Lslash;
rightKerningGroup = L;
unicode = 0141;
},
{
glyphname = M;
lastChange = "2015-11-29 23:52:23 +0000";
layers = (
{
layerId = "72ACC467-88F1-4B5B-B511-FE0603CECF6A";
name = "Light Italic";
paths = (
{
closed = 1;
nodes = (
"77 0 LINE",
"202 591 LINE",
"347 0 LINE",
"376 0 LINE",
"771 591 LINE",
"646 0 LINE",
"698 0 LINE",
"846 699 LINE",
"788 699 LINE",
"377 84 LINE",
"227 699 LINE",
"173 699 LINE",
"25 0 LINE"
);
}
);
width = 823;
}
);
note = M;
unicode = 004D;
},
{
glyphname = Mdotbelow;
lastChange = "2015-11-29 23:52:23 +0000";
layers = (
{
layerId = "72ACC467-88F1-4B5B-B511-FE0603CECF6A";
name = "Light Italic";
paths = (
{
closed = 1;
nodes = (
"77 0 LINE",
"202 591 LINE",
"347 0 LINE",
"376 0 LINE",
"771 591 LINE",
"646 0 LINE",
"698 0 LINE",
"846 699 LINE",
"788 699 LINE",
"377 84 LINE",
"227 699 LINE",
"173 699 LINE",
"25 0 LINE"
);
},
{
closed = 1;
nodes = (
"354 -137 OFFCURVE",
"375 -119 OFFCURVE",
"380 -98 CURVE",
"384 -77 OFFCURVE",
"370 -60 OFFCURVE",
"351 -60 CURVE SMOOTH",
"330 -60 OFFCURVE",
"308 -77 OFFCURVE",
"304 -98 CURVE",
"299 -119 OFFCURVE",
"313 -137 OFFCURVE",
"334 -137 CURVE SMOOTH"
);
}
);
width = 823;
}
);
note = Mdotbelow;
unicode = 1E42;
},
{
glyphname = N;
lastChange = "2015-11-29 23:52:20 +0000";
layers = (
{
layerId = "72ACC467-88F1-4B5B-B511-FE0603CECF6A";
name = "Light Italic";
paths = (
{
closed = 1;
nodes = (
"78 0 LINE",
"207 608 LINE",
"496 0 LINE",
"545 0 LINE",
"693 699 LINE",
"640 699 LINE",
"511 92 LINE",
"223 699 LINE",
"173 699 LINE",
"25 0 LINE"
);
}
);
width = 670;
}
);
note = N;
unicode = 004E;
},
{
glyphname = Nacute;
lastChange = "2015-11-29 23:52:23 +0000";
layers = (
{
layerId = "72ACC467-88F1-4B5B-B511-FE0603CECF6A";
name = "Light Italic";
paths = (
{
closed = 1;
nodes = (
"78 0 LINE",
"207 608 LINE",
"496 0 LINE",
"545 0 LINE",
"693 699 LINE",
"640 699 LINE",
"511 92 LINE",
"223 699 LINE",
"173 699 LINE",
"25 0 LINE"
);
},
{
closed = 1;
nodes = (
"473 760 LINE",
"587 929 LINE",
"533 929 LINE",
"427 760 LINE"
);
}
);
width = 670;
}
);
note = Nacute;
unicode = 0143;
},
{
glyphname = Ncaron;
lastChange = "2015-11-29 23:52:21 +0000";
layers = (
{
layerId = "72ACC467-88F1-4B5B-B511-FE0603CECF6A";
name = "Light Italic";
paths = (
{
closed = 1;
nodes = (
"78 0 LINE",
"207 608 LINE",
"496 0 LINE",
"545 0 LINE",
"693 699 LINE",
"640 699 LINE",
"511 92 LINE",
"223 699 LINE",
"173 699 LINE",
"25 0 LINE"
);
},
{
closed = 1;
nodes = (
"471 763 LINE",
"637 919 LINE",
"583 919 LINE",
"457 798 LINE",
"383 919 LINE",
"328 919 LINE",
"426 763 LINE"
);
}
);
width = 670;
}
);
note = Ncaron;
unicode = 0147;
},
{
glyphname = Ncommaaccent;
lastChange = "2015-11-29 23:52:21 +0000";
layers = (
{
layerId = "72ACC467-88F1-4B5B-B511-FE0603CECF6A";
name = "Light Italic";
paths = (
{
closed = 1;
nodes = (
"78 0 LINE",
"207 608 LINE",
"496 0 LINE",
"545 0 LINE",
"693 699 LINE",
"640 699 LINE",
"511 92 LINE",
"223 699 LINE",
"173 699 LINE",
"25 0 LINE"
);
},
{
closed = 1;
nodes = (
"193 -260 LINE",
"322 -67 LINE",
"266 -67 LINE",
"147 -260 LINE"
);
}
);
width = 670;
}
);
note = Ncommaaccent;
unicode = 0145;
},
{
glyphname = Ndotaccent;
lastChange = "2015-11-29 23:52:23 +0000";
layers = (
{
layerId = "72ACC467-88F1-4B5B-B511-FE0603CECF6A";
name = "Light Italic";
paths = (
{
closed = 1;
nodes = (
"78 0 LINE",
"207 608 LINE",
"496 0 LINE",
"545 0 LINE",
"693 699 LINE",
"640 699 LINE",
"511 92 LINE",
"223 699 LINE",
"173 699 LINE",
"25 0 LINE"
);
},
{
closed = 1;
nodes = (
"481 765 OFFCURVE",
"503 783 OFFCURVE",
"508 804 CURVE",
"512 825 OFFCURVE",
"498 842 OFFCURVE",
"478 842 CURVE SMOOTH",
"457 842 OFFCURVE",
"435 825 OFFCURVE",
"431 804 CURVE",
"426 783 OFFCURVE",
"440 765 OFFCURVE",
"461 765 CURVE SMOOTH"
);
}
);
width = 670;
}
);
note = Ndotaccent;
unicode = 1E44;
},
{
glyphname = Ndotbelow;
lastChange = "2015-11-29 23:52:23 +0000";
layers = (
{
layerId = "72ACC467-88F1-4B5B-B511-FE0603CECF6A";
name = "Light Italic";
paths = (
{
closed = 1;
nodes = (
"78 0 LINE",
"207 608 LINE",
"496 0 LINE",
"545 0 LINE",
"693 699 LINE",
"640 699 LINE",
"511 92 LINE",
"223 699 LINE",
"173 699 LINE",
"25 0 LINE"
);
},
{
closed = 1;
nodes = (
"284 -137 OFFCURVE",
"305 -119 OFFCURVE",
"310 -98 CURVE",
"314 -77 OFFCURVE",
"300 -60 OFFCURVE",
"281 -60 CURVE SMOOTH",
"260 -60 OFFCURVE",
"238 -77 OFFCURVE",
"234 -98 CURVE",
"229 -119 OFFCURVE",
"243 -137 OFFCURVE",
"264 -137 CURVE SMOOTH"
);
}
);
width = 670;
}
);
note = Ndotbelow;
unicode = 1E46;
},
{
glyphname = Eng;
lastChange = "2015-11-29 23:52:22 +0000";
layers = (
{
layerId = "72ACC467-88F1-4B5B-B511-FE0603CECF6A";
name = "Light Italic";
paths = (
{
closed = 1;
nodes = (
"452 -231 OFFCURVE",
"506 -186 OFFCURVE",
"527 -85 CURVE SMOOTH",
"693 699 LINE",
"640 699 LINE",
"511 92 LINE",
"223 699 LINE",
"173 699 LINE",
"25 0 LINE",
"78 0 LINE",
"207 608 LINE",
"494 4 LINE",
"475 -86 LINE SMOOTH",
"460 -157 OFFCURVE",
"429 -189 OFFCURVE",
"359 -189 CURVE SMOOTH",
"341 -189 OFFCURVE",
"322 -185 OFFCURVE",
"307 -179 CURVE",
"298 -224 LINE",
"315 -229 OFFCURVE",
"335 -231 OFFCURVE",
"360 -231 CURVE SMOOTH"
);
}
);
width = 670;
}
);
note = Eng;
unicode = 014A;
},
{
glyphname = Nlinebelow;
lastChange = "2015-11-29 23:52:22 +0000";
layers = (
{
layerId = "72ACC467-88F1-4B5B-B511-FE0603CECF6A";
name = "Light Italic";
paths = (
{
closed = 1;
nodes = (
"78 0 LINE",
"207 608 LINE",
"496 0 LINE",
"545 0 LINE",
"693 699 LINE",
"640 699 LINE",
"511 92 LINE",
"223 699 LINE",
"173 699 LINE",
"25 0 LINE"
);
},
{
closed = 1;
nodes = (
"420 -121 LINE",
"428 -80 LINE",
"138 -80 LINE",
"130 -121 LINE"
);
}
);
width = 670;
}
);
note = Nlinebelow;
unicode = 1E48;
},
{
glyphname = Ntilde;
lastChange = "2015-11-29 23:52:23 +0000";
layers = (
{
layerId = "72ACC467-88F1-4B5B-B511-FE0603CECF6A";
name = "Light Italic";
paths = (
{
closed = 1;
nodes = (
"78 0 LINE",
"207 608 LINE",
"496 0 LINE",
"545 0 LINE",
"693 699 LINE",
"640 699 LINE",
"511 92 LINE",
"223 699 LINE",
"173 699 LINE",
"25 0 LINE"
);
},
{
closed = 1;
nodes = (
"316 818 OFFCURVE",
"348 829 OFFCURVE",
"382 829 CURVE SMOOTH",
"446 829 OFFCURVE",
"475 779 OFFCURVE",
"548 779 CURVE SMOOTH",
"587 779 OFFCURVE",
"623 790 OFFCURVE",
"650 823 CURVE",
"661 874 LINE",
"626 832 OFFCURVE",
"592 821 OFFCURVE",
"557 821 CURVE SMOOTH",
"492 821 OFFCURVE",
"459 871 OFFCURVE",
"391 871 CURVE SMOOTH",
"353 871 OFFCURVE",
"316 859 OFFCURVE",
"289 827 CURVE",
"278 776 LINE"
);
}
);
width = 670;
}
);
note = Ntilde;
unicode = 00D1;
},
{
glyphname = O;
lastChange = "2015-11-29 23:52:23 +0000";
layers = (
{
layerId = "72ACC467-88F1-4B5B-B511-FE0603CECF6A";
name = "Light Italic";
paths = (
{
closed = 1;
nodes = (
"585 -15 OFFCURVE",
"759 131 OFFCURVE",
"806 349 CURVE SMOOTH",
"852 568 OFFCURVE",
"726 714 OFFCURVE",
"519 714 CURVE SMOOTH",
"298 714 OFFCURVE",
"125 568 OFFCURVE",
"79 349 CURVE SMOOTH",
"32 131 OFFCURVE",
"158 -15 OFFCURVE",
"364 -15 CURVE SMOOTH"
);
},
{
closed = 1;
nodes = (
"191 32 OFFCURVE",
"89 153 OFFCURVE",
"131 349 CURVE SMOOTH",
"172 543 OFFCURVE",
"335 666 OFFCURVE",
"509 666 CURVE SMOOTH",
"696 666 OFFCURVE",
"795 543 OFFCURVE",
"754 349 CURVE SMOOTH",
"712 153 OFFCURVE",
"546 32 OFFCURVE",
"374 32 CURVE SMOOTH"
);
}
);
width = 837;
}
);
leftKerningGroup = O;
note = O;
rightKerningGroup = O;
unicode = 004F;
},
{
glyphname = Oacute;
lastChange = "2015-11-29 23:52:22 +0000";
layers = (
{
layerId = "72ACC467-88F1-4B5B-B511-FE0603CECF6A";
name = "Light Italic";
paths = (
{
closed = 1;
nodes = (
"585 -15 OFFCURVE",
"759 131 OFFCURVE",
"806 349 CURVE SMOOTH",
"852 568 OFFCURVE",
"726 714 OFFCURVE",
"519 714 CURVE SMOOTH",
"298 714 OFFCURVE",
"125 568 OFFCURVE",
"79 349 CURVE SMOOTH",
"32 131 OFFCURVE",
"158 -15 OFFCURVE",
"364 -15 CURVE SMOOTH"
);
},
{
closed = 1;
nodes = (
"191 32 OFFCURVE",
"89 153 OFFCURVE",
"131 349 CURVE SMOOTH",
"172 543 OFFCURVE",
"335 666 OFFCURVE",
"509 666 CURVE SMOOTH",
"696 666 OFFCURVE",
"795 543 OFFCURVE",
"754 349 CURVE SMOOTH",
"712 153 OFFCURVE",
"546 32 OFFCURVE",
"374 32 CURVE SMOOTH"
);
},
{
closed = 1;
nodes = (
"544 766 LINE",
"658 935 LINE",
"604 935 LINE",
"498 766 LINE"
);
}
);
width = 837;
}
);
leftKerningGroup = O;
note = Oacute;
rightKerningGroup = O;
unicode = 00D3;
},
{
glyphname = Obreve;
lastChange = "2015-11-29 23:52:20 +0000";
layers = (
{
layerId = "72ACC467-88F1-4B5B-B511-FE0603CECF6A";
name = "Light Italic";
paths = (
{
closed = 1;
nodes = (
"585 -15 OFFCURVE",
"759 131 OFFCURVE",
"806 349 CURVE SMOOTH",
"852 568 OFFCURVE",
"726 714 OFFCURVE",
"519 714 CURVE SMOOTH",
"298 714 OFFCURVE",
"125 568 OFFCURVE",
"79 349 CURVE SMOOTH",
"32 131 OFFCURVE",
"158 -15 OFFCURVE",
"364 -15 CURVE SMOOTH"
);
},
{
closed = 1;
nodes = (
"191 32 OFFCURVE",
"89 153 OFFCURVE",
"131 349 CURVE SMOOTH",
"172 543 OFFCURVE",
"335 666 OFFCURVE",
"509 666 CURVE SMOOTH",
"696 666 OFFCURVE",
"795 543 OFFCURVE",
"754 349 CURVE SMOOTH",
"712 153 OFFCURVE",
"546 32 OFFCURVE",
"374 32 CURVE SMOOTH"
);
},
{
closed = 1;
nodes = (
"604 749 OFFCURVE",
"666 801 OFFCURVE",
"680 868 CURVE",
"639 868 LINE",
"629 821 OFFCURVE",
"589 788 OFFCURVE",
"535 788 CURVE SMOOTH",
"481 788 OFFCURVE",
"455 821 OFFCURVE",
"465 868 CURVE",
"423 868 LINE",
"409 801 OFFCURVE",
"449 749 OFFCURVE",
"527 749 CURVE SMOOTH"
);
}
);
width = 837;
}
);
leftKerningGroup = O;
note = Obreve;
rightKerningGroup = O;
unicode = 014E;
},
{
glyphname = Ocaron;
lastChange = "2015-11-29 23:52:22 +0000";
layers = (
{
layerId = "72ACC467-88F1-4B5B-B511-FE0603CECF6A";
name = "Light Italic";
paths = (
{
closed = 1;
nodes = (
"585 -15 OFFCURVE",
"759 131 OFFCURVE",
"806 349 CURVE SMOOTH",
"852 568 OFFCURVE",
"726 714 OFFCURVE",
"519 714 CURVE SMOOTH",
"298 714 OFFCURVE",
"125 568 OFFCURVE",
"79 349 CURVE SMOOTH",
"32 131 OFFCURVE",
"158 -15 OFFCURVE",
"364 -15 CURVE SMOOTH"
);
},
{
closed = 1;
nodes = (
"191 32 OFFCURVE",
"89 153 OFFCURVE",
"131 349 CURVE SMOOTH",
"172 543 OFFCURVE",
"335 666 OFFCURVE",
"509 666 CURVE SMOOTH",
"696 666 OFFCURVE",
"795 543 OFFCURVE",
"754 349 CURVE SMOOTH",
"712 153 OFFCURVE",
"546 32 OFFCURVE",
"374 32 CURVE SMOOTH"
);
},
{
closed = 1;
nodes = (
"552 763 LINE",
"718 919 LINE",
"664 919 LINE",
"538 798 LINE",
"464 919 LINE",
"409 919 LINE",
"507 763 LINE"
);
}
);
width = 837;
}
);
leftKerningGroup = O;
note = Ocaron;
rightKerningGroup = O;
unicode = 01D1;
},
{
glyphname = Ocircumflex;
lastChange = "2015-11-29 23:52:21 +0000";
layers = (
{
layerId = "72ACC467-88F1-4B5B-B511-FE0603CECF6A";
name = "Light Italic";
paths = (
{
closed = 1;
nodes = (
"585 -15 OFFCURVE",
"759 131 OFFCURVE",
"806 349 CURVE SMOOTH",
"852 568 OFFCURVE",
"726 714 OFFCURVE",
"519 714 CURVE SMOOTH",
"298 714 OFFCURVE",
"125 568 OFFCURVE",
"79 349 CURVE SMOOTH",
"32 131 OFFCURVE",
"158 -15 OFFCURVE",
"364 -15 CURVE SMOOTH"
);
},
{
closed = 1;
nodes = (
"191 32 OFFCURVE",
"89 153 OFFCURVE",
"131 349 CURVE SMOOTH",
"172 543 OFFCURVE",
"335 666 OFFCURVE",
"509 666 CURVE SMOOTH",
"696 666 OFFCURVE",
"795 543 OFFCURVE",
"754 349 CURVE SMOOTH",
"712 153 OFFCURVE",
"546 32 OFFCURVE",
"374 32 CURVE SMOOTH"
);
},
{
closed = 1;
nodes = (
"429 770 LINE",
"554 891 LINE",
"629 770 LINE",
"683 770 LINE",
"584 926 LINE",
"539 926 LINE",
"375 770 LINE"
);
}
);
width = 837;
}
);
leftKerningGroup = O;
note = Ocircumflex;
rightKerningGroup = O;
unicode = 00D4;
},
{
glyphname = Ocircumflexacute;
lastChange = "2015-11-29 23:52:22 +0000";
layers = (
{
layerId = "72ACC467-88F1-4B5B-B511-FE0603CECF6A";
name = "Light Italic";
paths = (
{
closed = 1;
nodes = (
"585 -15 OFFCURVE",
"759 131 OFFCURVE",
"806 349 CURVE SMOOTH",
"852 568 OFFCURVE",
"726 714 OFFCURVE",
"519 714 CURVE SMOOTH",
"298 714 OFFCURVE",
"125 568 OFFCURVE",
"79 349 CURVE SMOOTH",
"32 131 OFFCURVE",
"158 -15 OFFCURVE",
"364 -15 CURVE SMOOTH"
);
},
{
closed = 1;
nodes = (
"191 32 OFFCURVE",
"89 153 OFFCURVE",
"131 349 CURVE SMOOTH",
"172 543 OFFCURVE",
"335 666 OFFCURVE",
"509 666 CURVE SMOOTH",
"696 666 OFFCURVE",
"795 543 OFFCURVE",
"754 349 CURVE SMOOTH",
"712 153 OFFCURVE",
"546 32 OFFCURVE",
"374 32 CURVE SMOOTH"
);
},
{
closed = 1;
nodes = (
"435 744 LINE",
"549 835 LINE",
"625 744 LINE",
"678 744 LINE",
"574 868 LINE",
"537 868 LINE",
"381 744 LINE"
);
},
{
closed = 1;
nodes = (
"672 837 LINE",
"771 951 LINE",
"725 951 LINE",
"634 837 LINE"
);
}
);
width = 837;
}
);
leftKerningGroup = O;
note = Ocircumflexacute;
rightKerningGroup = O;
unicode = 1ED0;
},
{
glyphname = Ocircumflexdotbelow;
lastChange = "2015-11-29 23:52:23 +0000";
layers = (
{
layerId = "72ACC467-88F1-4B5B-B511-FE0603CECF6A";
name = "Light Italic";
paths = (
{
closed = 1;
nodes = (
"585 -15 OFFCURVE",
"759 131 OFFCURVE",
"806 349 CURVE SMOOTH",
"852 568 OFFCURVE",
"726 714 OFFCURVE",
"519 714 CURVE SMOOTH",
"298 714 OFFCURVE",
"125 568 OFFCURVE",
"79 349 CURVE SMOOTH",
"32 131 OFFCURVE",
"158 -15 OFFCURVE",
"364 -15 CURVE SMOOTH"
);
},
{
closed = 1;
nodes = (
"360 -137 OFFCURVE",
"381 -119 OFFCURVE",
"386 -98 CURVE",
"390 -77 OFFCURVE",
"376 -60 OFFCURVE",
"357 -60 CURVE SMOOTH",
"336 -60 OFFCURVE",
"314 -77 OFFCURVE",
"310 -98 CURVE",
"305 -119 OFFCURVE",
"319 -137 OFFCURVE",
"340 -137 CURVE SMOOTH"
);
},
{
closed = 1;
nodes = (
"191 32 OFFCURVE",
"89 153 OFFCURVE",
"131 349 CURVE SMOOTH",
"172 543 OFFCURVE",
"335 666 OFFCURVE",
"509 666 CURVE SMOOTH",
"696 666 OFFCURVE",
"795 543 OFFCURVE",
"754 349 CURVE SMOOTH",
"712 153 OFFCURVE",
"546 32 OFFCURVE",
"374 32 CURVE SMOOTH"
);
},
{
closed = 1;
nodes = (
"430 764 LINE",
"555 885 LINE",
"630 764 LINE",
"684 764 LINE",
"585 920 LINE",
"540 920 LINE",
"376 764 LINE"
);
}
);
width = 837;
}
);
leftKerningGroup = O;
note = Ocircumflexdotbelow;
rightKerningGroup = O;
unicode = 1ED8;
},
{
glyphname = Ocircumflexgrave;
lastChange = "2015-11-29 23:52:23 +0000";
layers = (
{
layerId = "72ACC467-88F1-4B5B-B511-FE0603CECF6A";
name = "Light Italic";
paths = (
{
closed = 1;
nodes = (
"585 -15 OFFCURVE",
"759 131 OFFCURVE",
"806 349 CURVE SMOOTH",
"852 568 OFFCURVE",
"726 714 OFFCURVE",
"519 714 CURVE SMOOTH",
"298 714 OFFCURVE",
"125 568 OFFCURVE",
"79 349 CURVE SMOOTH",
"32 131 OFFCURVE",
"158 -15 OFFCURVE",
"364 -15 CURVE SMOOTH"
);
},
{
closed = 1;
nodes = (
"191 32 OFFCURVE",
"89 153 OFFCURVE",
"131 349 CURVE SMOOTH",
"172 543 OFFCURVE",
"335 666 OFFCURVE",
"509 666 CURVE SMOOTH",
"696 666 OFFCURVE",
"795 543 OFFCURVE",
"754 349 CURVE SMOOTH",
"712 153 OFFCURVE",
"546 32 OFFCURVE",
"374 32 CURVE SMOOTH"
);
},
{
closed = 1;
nodes = (
"459 837 LINE",
"415 951 LINE",
"369 951 LINE",
"421 837 LINE"
);
},
{
closed = 1;
nodes = (
"428 744 LINE",
"542 835 LINE",
"618 744 LINE",
"671 744 LINE",
"568 868 LINE",
"531 868 LINE",
"375 744 LINE"
);
}
);
width = 837;
}
);
leftKerningGroup = O;
note = Ocircumflexgrave;
rightKerningGroup = O;
unicode = 1ED2;
},
{
glyphname = Ocircumflexhookabove;
lastChange = "2015-11-29 23:52:22 +0000";
layers = (
{
layerId = "72ACC467-88F1-4B5B-B511-FE0603CECF6A";
name = "Light Italic";
paths = (
{
closed = 1;
nodes = (
"585 -15 OFFCURVE",
"759 131 OFFCURVE",
"806 349 CURVE SMOOTH",
"852 568 OFFCURVE",
"726 714 OFFCURVE",
"519 714 CURVE SMOOTH",
"298 714 OFFCURVE",
"125 568 OFFCURVE",
"79 349 CURVE SMOOTH",
"32 131 OFFCURVE",
"158 -15 OFFCURVE",
"364 -15 CURVE SMOOTH"
);
},
{
closed = 1;
nodes = (
"191 32 OFFCURVE",
"89 153 OFFCURVE",
"131 349 CURVE SMOOTH",
"172 543 OFFCURVE",
"335 666 OFFCURVE",
"509 666 CURVE SMOOTH",
"696 666 OFFCURVE",
"795 543 OFFCURVE",
"754 349 CURVE SMOOTH",
"712 153 OFFCURVE",
"546 32 OFFCURVE",
"374 32 CURVE SMOOTH"
);
},
{
closed = 1;
nodes = (
"427 744 LINE",
"541 835 LINE",
"617 744 LINE",
"669 744 LINE",
"566 868 LINE",
"529 868 LINE",
"373 744 LINE"
);
},
{
closed = 1;
nodes = (
"663 828 LINE",
"668 854 LINE",
"713 858 OFFCURVE",
"743 883 OFFCURVE",
"750 917 CURVE SMOOTH",
"758 955 OFFCURVE",
"738 981 OFFCURVE",
"686 981 CURVE SMOOTH",
"666 981 OFFCURVE",
"644 977 OFFCURVE",
"630 972 CURVE",
"624 942 LINE",
"636 947 OFFCURVE",
"656 950 OFFCURVE",
"672 950 CURVE SMOOTH",
"702 950 OFFCURVE",
"714 941 OFFCURVE",
"709 917 CURVE SMOOTH",
"703 889 OFFCURVE",
"681 878 OFFCURVE",
"638 878 CURVE",
"628 828 LINE"
);
}
);
width = 837;
}
);
leftKerningGroup = O;
note = Ocircumflexhookabove;
rightKerningGroup = O;
unicode = 1ED4;
},
{
glyphname = Ocircumflextilde;
lastChange = "2015-11-29 23:52:23 +0000";
layers = (
{
layerId = "72ACC467-88F1-4B5B-B511-FE0603CECF6A";
name = "Light Italic";
paths = (
{
closed = 1;
nodes = (
"585 -15 OFFCURVE",
"759 131 OFFCURVE",
"806 349 CURVE SMOOTH",
"852 568 OFFCURVE",
"726 714 OFFCURVE",
"519 714 CURVE SMOOTH",
"298 714 OFFCURVE",
"125 568 OFFCURVE",
"79 349 CURVE SMOOTH",
"32 131 OFFCURVE",
"158 -15 OFFCURVE",
"364 -15 CURVE SMOOTH"
);
},
{
closed = 1;
nodes = (
"191 32 OFFCURVE",
"89 153 OFFCURVE",
"131 349 CURVE SMOOTH",
"172 543 OFFCURVE",
"335 666 OFFCURVE",
"509 666 CURVE SMOOTH",
"696 666 OFFCURVE",
"795 543 OFFCURVE",
"754 349 CURVE SMOOTH",
"712 153 OFFCURVE",
"546 32 OFFCURVE",
"374 32 CURVE SMOOTH"
);
},
{
closed = 1;
nodes = (
"606 745 OFFCURVE",
"667 796 OFFCURVE",
"681 863 CURVE",
"641 863 LINE",
"631 816 OFFCURVE",
"591 783 OFFCURVE",
"537 783 CURVE SMOOTH",
"483 783 OFFCURVE",
"457 816 OFFCURVE",
"467 863 CURVE",
"426 863 LINE",
"412 796 OFFCURVE",
"452 745 OFFCURVE",
"529 745 CURVE SMOOTH"
);
},
{
closed = 1;
nodes = (
"436 921 OFFCURVE",
"461 931 OFFCURVE",
"491 931 CURVE SMOOTH",
"539 931 OFFCURVE",
"575 887 OFFCURVE",
"631 887 CURVE SMOOTH",
"666 887 OFFCURVE",
"692 896 OFFCURVE",
"714 923 CURVE",
"724 969 LINE",
"695 934 OFFCURVE",
"670 923 OFFCURVE",
"639 923 CURVE SMOOTH",
"590 923 OFFCURVE",
"551 968 OFFCURVE",
"499 968 CURVE SMOOTH",
"465 968 OFFCURVE",
"436 958 OFFCURVE",
"415 931 CURVE",
"405 886 LINE"
);
}
);
width = 837;
}
);
leftKerningGroup = O;
note = Ocircumflextilde;
rightKerningGroup = O;
unicode = 1ED6;
},
{
glyphname = Odieresis;
lastChange = "2015-11-29 23:52:21 +0000";
layers = (
{
layerId = "72ACC467-88F1-4B5B-B511-FE0603CECF6A";
name = "Light Italic";
paths = (
{
closed = 1;
nodes = (
"585 -15 OFFCURVE",
"759 131 OFFCURVE",
"806 349 CURVE SMOOTH",
"852 568 OFFCURVE",
"726 714 OFFCURVE",
"519 714 CURVE SMOOTH",
"298 714 OFFCURVE",
"125 568 OFFCURVE",
"79 349 CURVE SMOOTH",
"32 131 OFFCURVE",
"158 -15 OFFCURVE",
"364 -15 CURVE SMOOTH"
);
},
{
closed = 1;
nodes = (
"191 32 OFFCURVE",
"89 153 OFFCURVE",
"131 349 CURVE SMOOTH",
"172 543 OFFCURVE",
"335 666 OFFCURVE",
"509 666 CURVE SMOOTH",
"696 666 OFFCURVE",
"795 543 OFFCURVE",
"754 349 CURVE SMOOTH",
"712 153 OFFCURVE",
"546 32 OFFCURVE",
"374 32 CURVE SMOOTH"
);
},
{
closed = 1;
nodes = (
"447 771 OFFCURVE",
"469 789 OFFCURVE",
"474 810 CURVE",
"478 831 OFFCURVE",
"464 848 OFFCURVE",
"444 848 CURVE SMOOTH",
"423 848 OFFCURVE",
"402 831 OFFCURVE",
"398 810 CURVE",
"393 789 OFFCURVE",
"406 771 OFFCURVE",
"427 771 CURVE SMOOTH"
);
},
{
closed = 1;
nodes = (
"655 771 OFFCURVE",
"677 789 OFFCURVE",
"682 810 CURVE",
"686 831 OFFCURVE",
"672 848 OFFCURVE",
"651 848 CURVE SMOOTH",
"630 848 OFFCURVE",
"608 831 OFFCURVE",
"604 810 CURVE",
"599 789 OFFCURVE",
"613 771 OFFCURVE",
"634 771 CURVE SMOOTH"
);
}
);
width = 837;
}
);
leftKerningGroup = O;
note = Odieresis;
rightKerningGroup = O;
unicode = 00D6;
},
{
glyphname = Odotbelow;
lastChange = "2015-11-29 23:52:23 +0000";
layers = (
{
layerId = "72ACC467-88F1-4B5B-B511-FE0603CECF6A";
name = "Light Italic";
paths = (
{
closed = 1;
nodes = (
"585 -15 OFFCURVE",
"759 131 OFFCURVE",
"806 349 CURVE SMOOTH",
"852 568 OFFCURVE",
"726 714 OFFCURVE",
"519 714 CURVE SMOOTH",
"298 714 OFFCURVE",
"125 568 OFFCURVE",
"79 349 CURVE SMOOTH",
"32 131 OFFCURVE",
"158 -15 OFFCURVE",
"364 -15 CURVE SMOOTH"
);
},
{
closed = 1;
nodes = (
"360 -137 OFFCURVE",
"381 -119 OFFCURVE",
"386 -98 CURVE",
"390 -77 OFFCURVE",
"376 -60 OFFCURVE",
"357 -60 CURVE SMOOTH",
"336 -60 OFFCURVE",
"314 -77 OFFCURVE",
"310 -98 CURVE",
"305 -119 OFFCURVE",
"319 -137 OFFCURVE",
"340 -137 CURVE SMOOTH"
);
},
{
closed = 1;
nodes = (
"191 32 OFFCURVE",
"89 153 OFFCURVE",
"131 349 CURVE SMOOTH",
"172 543 OFFCURVE",
"335 666 OFFCURVE",
"509 666 CURVE SMOOTH",
"696 666 OFFCURVE",
"795 543 OFFCURVE",
"754 349 CURVE SMOOTH",
"712 153 OFFCURVE",
"546 32 OFFCURVE",
"374 32 CURVE SMOOTH"
);
}
);
width = 837;
}
);
leftKerningGroup = O;
note = Odotbelow;
rightKerningGroup = O;
unicode = 1ECC;
},
{
glyphname = Ograve;
lastChange = "2015-11-29 23:52:23 +0000";
layers = (
{
layerId = "72ACC467-88F1-4B5B-B511-FE0603CECF6A";
name = "Light Italic";
paths = (
{
closed = 1;
nodes = (
"585 -15 OFFCURVE",
"759 131 OFFCURVE",
"806 349 CURVE SMOOTH",
"852 568 OFFCURVE",
"726 714 OFFCURVE",
"519 714 CURVE SMOOTH",
"298 714 OFFCURVE",
"125 568 OFFCURVE",
"79 349 CURVE SMOOTH",
"32 131 OFFCURVE",
"158 -15 OFFCURVE",
"364 -15 CURVE SMOOTH"
);
},
{
closed = 1;
nodes = (
"191 32 OFFCURVE",
"89 153 OFFCURVE",
"131 349 CURVE SMOOTH",
"172 543 OFFCURVE",
"335 666 OFFCURVE",
"509 666 CURVE SMOOTH",
"696 666 OFFCURVE",
"795 543 OFFCURVE",
"754 349 CURVE SMOOTH",
"712 153 OFFCURVE",
"546 32 OFFCURVE",
"374 32 CURVE SMOOTH"
);
},
{
closed = 1;
nodes = (
"569 766 LINE",
"536 935 LINE",
"481 935 LINE",
"524 766 LINE"
);
}
);
width = 837;
}
);
leftKerningGroup = O;
note = Ograve;
rightKerningGroup = O;
unicode = 00D2;
},
{
glyphname = Ohookabove;
lastChange = "2015-11-29 23:52:22 +0000";
layers = (
{
layerId = "72ACC467-88F1-4B5B-B511-FE0603CECF6A";
name = "Light Italic";
paths = (
{
closed = 1;
nodes = (
"585 -15 OFFCURVE",
"759 131 OFFCURVE",
"806 349 CURVE SMOOTH",
"852 568 OFFCURVE",
"726 714 OFFCURVE",
"519 714 CURVE SMOOTH",
"298 714 OFFCURVE",
"125 568 OFFCURVE",
"79 349 CURVE SMOOTH",
"32 131 OFFCURVE",
"158 -15 OFFCURVE",
"364 -15 CURVE SMOOTH"
);
},
{
closed = 1;
nodes = (
"191 32 OFFCURVE",
"89 153 OFFCURVE",
"131 349 CURVE SMOOTH",
"172 543 OFFCURVE",
"335 666 OFFCURVE",
"509 666 CURVE SMOOTH",
"696 666 OFFCURVE",
"795 543 OFFCURVE",
"754 349 CURVE SMOOTH",
"712 153 OFFCURVE",
"546 32 OFFCURVE",
"374 32 CURVE SMOOTH"
);
},
{
closed = 1;
nodes = (
"544 743 LINE",
"552 782 LINE",
"616 787 OFFCURVE",
"656 824 OFFCURVE",
"666 873 CURVE SMOOTH",
"677 925 OFFCURVE",
"648 962 OFFCURVE",
"573 962 CURVE SMOOTH",
"549 962 OFFCURVE",
"521 958 OFFCURVE",
"505 953 CURVE",
"498 918 LINE",
"511 924 OFFCURVE",
"540 927 OFFCURVE",
"558 927 CURVE SMOOTH",
"605 927 OFFCURVE",
"627 910 OFFCURVE",
"619 871 CURVE SMOOTH",
"610 828 OFFCURVE",
"581 808 OFFCURVE",
"513 808 CURVE",
"499 743 LINE"
);
}
);
width = 837;
}
);
leftKerningGroup = O;
note = Ohookabove;
rightKerningGroup = O;
unicode = 1ECE;
},
{
glyphname = Ohorn;
lastChange = "2015-11-29 23:52:23 +0000";
layers = (
{
layerId = "72ACC467-88F1-4B5B-B511-FE0603CECF6A";
name = "Light Italic";
paths = (
{
closed = 1;
nodes = (
"582 -15 OFFCURVE",
"759 131 OFFCURVE",
"806 349 CURVE SMOOTH",
"825 442 OFFCURVE",
"814 522 OFFCURVE",
"778 583 CURVE",
"843 597 OFFCURVE",
"898 649 OFFCURVE",
"911 708 CURVE SMOOTH",
"919 747 LINE",
"871 747 LINE",
"863 710 LINE SMOOTH",
"852 660 OFFCURVE",
"809 623 OFFCURVE",
"751 621 CURVE",
"699 680 OFFCURVE",
"618 714 OFFCURVE",
"519 714 CURVE SMOOTH",
"305 714 OFFCURVE",
"125 568 OFFCURVE",
"79 349 CURVE SMOOTH",
"32 131 OFFCURVE",
"158 -15 OFFCURVE",
"364 -15 CURVE SMOOTH"
);
},
{
closed = 1;
nodes = (
"192 32 OFFCURVE",
"89 153 OFFCURVE",
"131 349 CURVE SMOOTH",
"172 543 OFFCURVE",
"335 665 OFFCURVE",
"509 666 CURVE SMOOTH",
"694 667 OFFCURVE",
"795 543 OFFCURVE",
"754 349 CURVE SMOOTH",
"712 153 OFFCURVE",
"546 32 OFFCURVE",
"374 32 CURVE SMOOTH"
);
}
);
width = 836;
}
);
leftKerningGroup = O;
note = Ohorn;
rightKerningGroup = O;
unicode = 01A0;
},
{
glyphname = Ohornacute;
lastChange = "2015-11-29 23:52:22 +0000";
layers = (
{
layerId = "72ACC467-88F1-4B5B-B511-FE0603CECF6A";
name = "Light Italic";
paths = (
{
closed = 1;
nodes = (
"582 -15 OFFCURVE",
"759 131 OFFCURVE",
"806 349 CURVE SMOOTH",
"825 442 OFFCURVE",
"814 522 OFFCURVE",
"778 583 CURVE",
"843 597 OFFCURVE",
"898 649 OFFCURVE",
"911 708 CURVE SMOOTH",
"919 747 LINE",
"871 747 LINE",
"863 710 LINE SMOOTH",
"852 660 OFFCURVE",
"809 623 OFFCURVE",
"751 621 CURVE",
"699 680 OFFCURVE",
"618 714 OFFCURVE",
"519 714 CURVE SMOOTH",
"305 714 OFFCURVE",
"125 568 OFFCURVE",
"79 349 CURVE SMOOTH",
"32 131 OFFCURVE",
"158 -15 OFFCURVE",
"364 -15 CURVE SMOOTH"
);
},
{
closed = 1;
nodes = (
"192 32 OFFCURVE",
"89 153 OFFCURVE",
"131 349 CURVE SMOOTH",
"172 543 OFFCURVE",
"335 665 OFFCURVE",
"509 666 CURVE SMOOTH",
"694 667 OFFCURVE",
"795 543 OFFCURVE",
"754 349 CURVE SMOOTH",
"712 153 OFFCURVE",
"546 32 OFFCURVE",
"374 32 CURVE SMOOTH"
);
},
{
closed = 1;
nodes = (
"558 754 LINE",
"672 923 LINE",
"618 923 LINE",
"512 754 LINE"
);
}
);
width = 843;
}
);
leftKerningGroup = O;
note = Ohornacute;
rightKerningGroup = O;
unicode = 1EDA;
},
{
glyphname = Ohorndotbelow;
lastChange = "2015-11-29 23:52:23 +0000";
layers = (
{
layerId = "72ACC467-88F1-4B5B-B511-FE0603CECF6A";
name = "Light Italic";
paths = (
{
closed = 1;
nodes = (
"582 -15 OFFCURVE",
"759 131 OFFCURVE",
"806 349 CURVE SMOOTH",
"825 442 OFFCURVE",
"814 522 OFFCURVE",
"778 583 CURVE",
"843 597 OFFCURVE",
"898 649 OFFCURVE",
"911 708 CURVE SMOOTH",
"919 747 LINE",
"871 747 LINE",
"863 710 LINE SMOOTH",
"852 660 OFFCURVE",
"809 623 OFFCURVE",
"751 621 CURVE",
"699 680 OFFCURVE",
"618 714 OFFCURVE",
"519 714 CURVE SMOOTH",
"305 714 OFFCURVE",
"125 568 OFFCURVE",
"79 349 CURVE SMOOTH",
"32 131 OFFCURVE",
"158 -15 OFFCURVE",
"364 -15 CURVE SMOOTH"
);
},
{
closed = 1;
nodes = (
"364 -137 OFFCURVE",
"385 -119 OFFCURVE",
"390 -98 CURVE",
"394 -77 OFFCURVE",
"380 -60 OFFCURVE",
"361 -60 CURVE SMOOTH",
"340 -60 OFFCURVE",
"318 -77 OFFCURVE",
"314 -98 CURVE",
"309 -119 OFFCURVE",
"323 -137 OFFCURVE",
"344 -137 CURVE SMOOTH"
);
},
{
closed = 1;
nodes = (
"192 32 OFFCURVE",
"89 153 OFFCURVE",
"131 349 CURVE SMOOTH",
"172 543 OFFCURVE",
"335 665 OFFCURVE",
"509 666 CURVE SMOOTH",
"694 667 OFFCURVE",
"795 543 OFFCURVE",
"754 349 CURVE SMOOTH",
"712 153 OFFCURVE",
"546 32 OFFCURVE",
"374 32 CURVE SMOOTH"
);
}
);
width = 843;
}
);
leftKerningGroup = O;
note = Ohorndotbelow;
rightKerningGroup = O;
unicode = 1EE2;
},
{
glyphname = Ohorngrave;
lastChange = "2015-11-29 23:52:21 +0000";
layers = (
{
layerId = "72ACC467-88F1-4B5B-B511-FE0603CECF6A";
name = "Light Italic";
paths = (
{
closed = 1;
nodes = (
"582 -15 OFFCURVE",
"759 131 OFFCURVE",
"806 349 CURVE SMOOTH",
"825 442 OFFCURVE",
"814 522 OFFCURVE",
"778 583 CURVE",
"843 597 OFFCURVE",
"898 649 OFFCURVE",
"911 708 CURVE SMOOTH",
"919 747 LINE",
"871 747 LINE",
"863 710 LINE SMOOTH",
"852 660 OFFCURVE",
"809 623 OFFCURVE",
"751 621 CURVE",
"699 680 OFFCURVE",
"618 714 OFFCURVE",
"519 714 CURVE SMOOTH",
"305 714 OFFCURVE",
"125 568 OFFCURVE",
"79 349 CURVE SMOOTH",
"32 131 OFFCURVE",
"158 -15 OFFCURVE",
"364 -15 CURVE SMOOTH"
);
},
{
closed = 1;
nodes = (
"192 32 OFFCURVE",
"89 153 OFFCURVE",
"131 349 CURVE SMOOTH",
"172 543 OFFCURVE",
"335 665 OFFCURVE",
"509 666 CURVE SMOOTH",
"694 667 OFFCURVE",
"795 543 OFFCURVE",
"754 349 CURVE SMOOTH",
"712 153 OFFCURVE",
"546 32 OFFCURVE",
"374 32 CURVE SMOOTH"
);
},
{
closed = 1;
nodes = (
"560 754 LINE",
"527 923 LINE",
"472 923 LINE",
"515 754 LINE"
);
}
);
width = 843;
}
);
leftKerningGroup = O;
note = Ohorngrave;
rightKerningGroup = O;
unicode = 1EDC;
},
{
glyphname = Ohornhookabove;
lastChange = "2015-11-29 23:52:23 +0000";
layers = (
{
layerId = "72ACC467-88F1-4B5B-B511-FE0603CECF6A";
name = "Light Italic";
paths = (
{
closed = 1;
nodes = (
"582 -15 OFFCURVE",
"759 131 OFFCURVE",
"806 349 CURVE SMOOTH",
"825 442 OFFCURVE",
"814 522 OFFCURVE",
"778 583 CURVE",
"843 597 OFFCURVE",
"898 649 OFFCURVE",
"911 708 CURVE SMOOTH",
"919 747 LINE",
"871 747 LINE",
"863 710 LINE SMOOTH",
"852 660 OFFCURVE",
"809 623 OFFCURVE",
"751 621 CURVE",
"699 680 OFFCURVE",
"618 714 OFFCURVE",
"519 714 CURVE SMOOTH",
"305 714 OFFCURVE",
"125 568 OFFCURVE",
"79 349 CURVE SMOOTH",
"32 131 OFFCURVE",
"158 -15 OFFCURVE",
"364 -15 CURVE SMOOTH"
);
},
{
closed = 1;
nodes = (
"192 32 OFFCURVE",
"89 153 OFFCURVE",
"131 349 CURVE SMOOTH",
"172 543 OFFCURVE",
"335 665 OFFCURVE",
"509 666 CURVE SMOOTH",
"694 667 OFFCURVE",
"795 543 OFFCURVE",
"754 349 CURVE SMOOTH",
"712 153 OFFCURVE",
"546 32 OFFCURVE",
"374 32 CURVE SMOOTH"
);
},
{
closed = 1;
nodes = (
"554 743 LINE",
"562 782 LINE",
"626 787 OFFCURVE",
"666 824 OFFCURVE",
"676 873 CURVE SMOOTH",
"687 925 OFFCURVE",
"658 962 OFFCURVE",
"583 962 CURVE SMOOTH",
"559 962 OFFCURVE",
"531 958 OFFCURVE",
"515 953 CURVE",
"508 918 LINE",
"521 924 OFFCURVE",
"550 927 OFFCURVE",
"568 927 CURVE SMOOTH",
"615 927 OFFCURVE",
"637 910 OFFCURVE",
"629 871 CURVE SMOOTH",
"620 828 OFFCURVE",
"591 808 OFFCURVE",
"523 808 CURVE",
"509 743 LINE"
);
}
);
width = 843;
}
);
leftKerningGroup = O;
note = Ohornhookabove;
rightKerningGroup = O;
unicode = 1EDE;
},
{
glyphname = Ohorntilde;
lastChange = "2015-11-29 23:52:21 +0000";
layers = (
{
layerId = "72ACC467-88F1-4B5B-B511-FE0603CECF6A";
name = "Light Italic";
paths = (
{
closed = 1;
nodes = (
"582 -15 OFFCURVE",
"759 131 OFFCURVE",
"806 349 CURVE SMOOTH",
"825 442 OFFCURVE",
"814 522 OFFCURVE",
"778 583 CURVE",
"843 597 OFFCURVE",
"898 649 OFFCURVE",
"911 708 CURVE SMOOTH",
"919 747 LINE",
"871 747 LINE",
"863 710 LINE SMOOTH",
"852 660 OFFCURVE",
"809 623 OFFCURVE",
"751 621 CURVE",
"699 680 OFFCURVE",
"618 714 OFFCURVE",
"519 714 CURVE SMOOTH",
"305 714 OFFCURVE",
"125 568 OFFCURVE",
"79 349 CURVE SMOOTH",
"32 131 OFFCURVE",
"158 -15 OFFCURVE",
"364 -15 CURVE SMOOTH"
);
},
{
closed = 1;
nodes = (
"192 32 OFFCURVE",
"89 153 OFFCURVE",
"131 349 CURVE SMOOTH",
"172 543 OFFCURVE",
"335 665 OFFCURVE",
"509 666 CURVE SMOOTH",
"694 667 OFFCURVE",
"795 543 OFFCURVE",
"754 349 CURVE SMOOTH",
"712 153 OFFCURVE",
"546 32 OFFCURVE",
"374 32 CURVE SMOOTH"
);
},
{
closed = 1;
nodes = (
"405 806 OFFCURVE",
"437 817 OFFCURVE",
"471 817 CURVE SMOOTH",
"535 817 OFFCURVE",
"564 767 OFFCURVE",
"637 767 CURVE SMOOTH",
"676 767 OFFCURVE",
"712 778 OFFCURVE",
"739 811 CURVE",
"750 862 LINE",
"715 820 OFFCURVE",
"681 809 OFFCURVE",
"646 809 CURVE SMOOTH",
"581 809 OFFCURVE",
"548 859 OFFCURVE",
"480 859 CURVE SMOOTH",
"442 859 OFFCURVE",
"405 847 OFFCURVE",
"378 815 CURVE",
"367 764 LINE"
);
}
);
width = 843;
}
);
leftKerningGroup = O;
note = Ohorntilde;
rightKerningGroup = O;
unicode = 1EE0;
},
{
glyphname = Ohungarumlaut;
lastChange = "2015-11-29 23:52:23 +0000";
layers = (
{
layerId = "72ACC467-88F1-4B5B-B511-FE0603CECF6A";
name = "Light Italic";
paths = (
{
closed = 1;
nodes = (
"585 -15 OFFCURVE",
"759 131 OFFCURVE",
"806 349 CURVE SMOOTH",
"852 568 OFFCURVE",
"726 714 OFFCURVE",
"519 714 CURVE SMOOTH",
"298 714 OFFCURVE",
"125 568 OFFCURVE",
"79 349 CURVE SMOOTH",
"32 131 OFFCURVE",
"158 -15 OFFCURVE",
"364 -15 CURVE SMOOTH"
);
},
{
closed = 1;
nodes = (
"191 32 OFFCURVE",
"89 153 OFFCURVE",
"131 349 CURVE SMOOTH",
"172 543 OFFCURVE",
"335 666 OFFCURVE",
"509 666 CURVE SMOOTH",
"696 666 OFFCURVE",
"795 543 OFFCURVE",
"754 349 CURVE SMOOTH",
"712 153 OFFCURVE",
"546 32 OFFCURVE",
"374 32 CURVE SMOOTH"
);
},
{
closed = 1;
nodes = (
"446 760 LINE",
"560 929 LINE",
"506 929 LINE",
"401 760 LINE"
);
},
{
closed = 1;
nodes = (
"624 760 LINE",
"739 929 LINE",
"684 929 LINE",
"579 760 LINE"
);
}
);
width = 837;
}
);
leftKerningGroup = O;
note = Ohungarumlaut;
rightKerningGroup = O;
unicode = 0150;
},
{
glyphname = Omacron;
lastChange = "2015-11-29 23:52:21 +0000";
layers = (
{
layerId = "72ACC467-88F1-4B5B-B511-FE0603CECF6A";
name = "Light Italic";
paths = (
{
closed = 1;
nodes = (
"585 -15 OFFCURVE",
"759 131 OFFCURVE",
"806 349 CURVE SMOOTH",
"852 568 OFFCURVE",
"726 714 OFFCURVE",
"519 714 CURVE SMOOTH",
"298 714 OFFCURVE",
"125 568 OFFCURVE",
"79 349 CURVE SMOOTH",
"32 131 OFFCURVE",
"158 -15 OFFCURVE",
"364 -15 CURVE SMOOTH"
);
},
{
closed = 1;
nodes = (
"191 32 OFFCURVE",
"89 153 OFFCURVE",
"131 349 CURVE SMOOTH",
"172 543 OFFCURVE",
"335 666 OFFCURVE",
"509 666 CURVE SMOOTH",
"696 666 OFFCURVE",
"795 543 OFFCURVE",
"754 349 CURVE SMOOTH",
"712 153 OFFCURVE",
"546 32 OFFCURVE",
"374 32 CURVE SMOOTH"
);
},
{
closed = 1;
nodes = (
"670 787 LINE",
"678 826 LINE",
"389 826 LINE",
"382 787 LINE"
);
}
);
width = 837;
}
);
leftKerningGroup = O;
note = Omacron;
rightKerningGroup = O;
unicode = 014C;
},
{
glyphname = Oslash;
lastChange = "2015-11-29 23:52:23 +0000";
layers = (
{
layerId = "72ACC467-88F1-4B5B-B511-FE0603CECF6A";
name = "Light Italic";
paths = (
{
closed = 1;
nodes = (
"206 -86 LINE",
"258 0 LINE",
"290 -10 OFFCURVE",
"326 -15 OFFCURVE",
"364 -15 CURVE SMOOTH",
"582 -15 OFFCURVE",
"759 131 OFFCURVE",
"806 349 CURVE SMOOTH",
"838 504 OFFCURVE",
"784 623 OFFCURVE",
"676 679 CURVE",
"741 784 LINE",
"689 784 LINE",
"635 696 LINE",
"600 708 OFFCURVE",
"561 714 OFFCURVE",
"519 714 CURVE SMOOTH",
"304 714 OFFCURVE",
"125 568 OFFCURVE",
"79 349 CURVE SMOOTH",
"44 190 OFFCURVE",
"102 69 OFFCURVE",
"216 15 CURVE",
"154 -86 LINE"
);
},
{
closed = 1;
nodes = (
"144 103 OFFCURVE",
"100 206 OFFCURVE",
"131 349 CURVE SMOOTH",
"172 543 OFFCURVE",
"335 666 OFFCURVE",
"509 666 CURVE SMOOTH",
"545 666 OFFCURVE",
"578 661 OFFCURVE",
"608 652 CURVE",
"242 58 LINE"
);
},
{
closed = 1;
nodes = (
"341 32 OFFCURVE",
"312 36 OFFCURVE",
"285 43 CURVE",
"650 636 LINE",
"743 588 OFFCURVE",
"783 486 OFFCURVE",
"754 349 CURVE SMOOTH",
"712 153 OFFCURVE",
"546 32 OFFCURVE",
"374 32 CURVE SMOOTH"
);
}
);
width = 837;
}
);
leftKerningGroup = O;
note = Oslash;
rightKerningGroup = O;
unicode = 00D8;
},
{
glyphname = Oslashacute;
lastChange = "2015-11-29 23:52:21 +0000";
layers = (
{
layerId = "72ACC467-88F1-4B5B-B511-FE0603CECF6A";
name = "Light Italic";
paths = (
{
closed = 1;
nodes = (
"206 -86 LINE",
"258 0 LINE",
"290 -10 OFFCURVE",
"326 -15 OFFCURVE",
"364 -15 CURVE SMOOTH",
"581 -15 OFFCURVE",
"759 131 OFFCURVE",
"806 349 CURVE SMOOTH",
"838 504 OFFCURVE",
"784 623 OFFCURVE",
"676 679 CURVE",
"741 784 LINE",
"689 784 LINE",
"635 696 LINE",
"600 708 OFFCURVE",
"561 714 OFFCURVE",
"519 714 CURVE SMOOTH",
"303 714 OFFCURVE",
"125 568 OFFCURVE",
"79 349 CURVE SMOOTH",
"44 190 OFFCURVE",
"102 69 OFFCURVE",
"216 15 CURVE",
"154 -86 LINE"
);
},
{
closed = 1;
nodes = (
"145 103 OFFCURVE",
"100 206 OFFCURVE",
"131 349 CURVE SMOOTH",
"172 543 OFFCURVE",
"335 666 OFFCURVE",
"509 666 CURVE SMOOTH",
"545 666 OFFCURVE",
"578 661 OFFCURVE",
"607 651 CURVE",
"242 58 LINE"
);
},
{
closed = 1;
nodes = (
"341 32 OFFCURVE",
"312 36 OFFCURVE",
"285 43 CURVE",
"649 634 LINE",
"740 586 OFFCURVE",
"783 485 OFFCURVE",
"754 349 CURVE SMOOTH",
"712 153 OFFCURVE",
"546 32 OFFCURVE",
"374 32 CURVE SMOOTH"
);
},
{
closed = 1;
nodes = (
"557 761 LINE",
"672 930 LINE",
"617 930 LINE",
"512 761 LINE"
);
}
);
width = 837;
}
);
leftKerningGroup = O;
note = Oslashacute;
rightKerningGroup = O;
unicode = 01FE;
},
{
glyphname = Otilde;
lastChange = "2015-11-29 23:52:23 +0000";
layers = (
{
layerId = "72ACC467-88F1-4B5B-B511-FE0603CECF6A";
name = "Light Italic";
paths = (
{
closed = 1;
nodes = (
"585 -15 OFFCURVE",
"759 131 OFFCURVE",
"806 349 CURVE SMOOTH",
"852 568 OFFCURVE",
"726 714 OFFCURVE",
"519 714 CURVE SMOOTH",
"298 714 OFFCURVE",
"125 568 OFFCURVE",
"79 349 CURVE SMOOTH",
"32 131 OFFCURVE",
"158 -15 OFFCURVE",
"364 -15 CURVE SMOOTH"
);
},
{
closed = 1;
nodes = (
"191 32 OFFCURVE",
"89 153 OFFCURVE",
"131 349 CURVE SMOOTH",
"172 543 OFFCURVE",
"335 666 OFFCURVE",
"509 666 CURVE SMOOTH",
"696 666 OFFCURVE",
"795 543 OFFCURVE",
"754 349 CURVE SMOOTH",
"712 153 OFFCURVE",
"546 32 OFFCURVE",
"374 32 CURVE SMOOTH"
);
},
{
closed = 1;
nodes = (
"390 818 OFFCURVE",
"422 829 OFFCURVE",
"456 829 CURVE SMOOTH",
"520 829 OFFCURVE",
"549 779 OFFCURVE",
"622 779 CURVE SMOOTH",
"661 779 OFFCURVE",
"697 790 OFFCURVE",
"724 823 CURVE",
"735 874 LINE",
"700 832 OFFCURVE",
"666 821 OFFCURVE",
"631 821 CURVE SMOOTH",
"566 821 OFFCURVE",
"533 871 OFFCURVE",
"465 871 CURVE SMOOTH",
"427 871 OFFCURVE",
"390 859 OFFCURVE",
"363 827 CURVE",
"352 776 LINE"
);
}
);
width = 837;
}
);
leftKerningGroup = O;
note = Otilde;
rightKerningGroup = O;
unicode = 00D5;
},
{
glyphname = OE;
lastChange = "2015-11-29 23:52:21 +0000";
layers = (
{
layerId = "72ACC467-88F1-4B5B-B511-FE0603CECF6A";
name = "Light Italic";
paths = (
{
closed = 1;
nodes = (
"782 0 LINE",
"791 45 LINE",
"462 45 LINE",
"522 327 LINE",
"757 327 LINE",
"767 372 LINE",
"532 372 LINE",
"592 654 LINE",
"921 654 LINE",
"930 699 LINE",
"519 699 LINE SMOOTH",
"298 699 OFFCURVE",
"125 568 OFFCURVE",
"79 349 CURVE SMOOTH",
"32 131 OFFCURVE",
"170 0 OFFCURVE",
"371 0 CURVE SMOOTH"
);
},
{
closed = 1;
nodes = (
"198 45 OFFCURVE",
"89 153 OFFCURVE",
"131 349 CURVE SMOOTH",
"172 544 OFFCURVE",
"334 654 OFFCURVE",
"508 654 CURVE SMOOTH",
"539 654 LINE",
"409 45 LINE",
"378 45 LINE SMOOTH"
);
}
);
width = 887;
}
);
leftKerningGroup = O;
note = OE;
rightKerningGroup = E;
unicode = 0152;
},
{
glyphname = P;
lastChange = "2015-11-29 23:52:21 +0000";
layers = (
{
layerId = "72ACC467-88F1-4B5B-B511-FE0603CECF6A";
name = "Light Italic";
paths = (
{
closed = 1;
nodes = (
"78 0 LINE",
"143 310 LINE",
"339 310 LINE SMOOTH",
"487 310 OFFCURVE",
"574 373 OFFCURVE",
"603 504 CURVE SMOOTH",
"633 639 OFFCURVE",
"559 699 OFFCURVE",
"422 699 CURVE SMOOTH",
"173 699 LINE",
"25 0 LINE"
);
},
{
closed = 1;
nodes = (
"217 654 LINE",
"411 654 LINE SMOOTH",
"518 654 OFFCURVE",
"577 626 OFFCURVE",
"551 504 CURVE SMOOTH",
"525 383 OFFCURVE",
"443 355 OFFCURVE",
"347 355 CURVE SMOOTH",
"153 355 LINE"
);
}
);
width = 581;
}
);
note = P;
unicode = 0050;
},
{
glyphname = Thorn;
lastChange = "2015-11-29 23:52:23 +0000";
layers = (
{
layerId = "72ACC467-88F1-4B5B-B511-FE0603CECF6A";
name = "Light Italic";
paths = (
{
closed = 1;
nodes = (
"78 0 LINE",
"111 158 LINE",
"309 158 LINE SMOOTH",
"449 158 OFFCURVE",
"541 214 OFFCURVE",
"570 350 CURVE SMOOTH",
"599 486 OFFCURVE",
"527 542 OFFCURVE",
"391 542 CURVE SMOOTH",
"193 542 LINE",
"226 699 LINE",
"173 699 LINE",
"25 0 LINE"
);
},
{
closed = 1;
nodes = (
"183 497 LINE",
"381 497 LINE SMOOTH",
"489 497 OFFCURVE",
"544 471 OFFCURVE",
"518 350 CURVE SMOOTH",
"492 229 OFFCURVE",
"411 203 OFFCURVE",
"315 203 CURVE SMOOTH",
"121 203 LINE"
);
}
);
width = 591;
}
);
note = Thorn;
unicode = 00DE;
},
{
glyphname = Q;
lastChange = "2015-11-29 23:52:21 +0000";
layers = (
{
layerId = "72ACC467-88F1-4B5B-B511-FE0603CECF6A";
name = "Light Italic";
paths = (
{
closed = 1;
nodes = (
"738 0 LINE",
"747 45 LINE",
"540 45 LINE",
"680 93 OFFCURVE",
"773 200 OFFCURVE",
"805 349 CURVE SMOOTH",
"851 568 OFFCURVE",
"725 714 OFFCURVE",
"519 714 CURVE SMOOTH",
"302 714 OFFCURVE",
"125 568 OFFCURVE",
"79 349 CURVE SMOOTH",
"34 137 OFFCURVE",
"160 0 OFFCURVE",
"380 0 CURVE SMOOTH"
);
},
{
closed = 1;
nodes = (
"196 48 OFFCURVE",
"89 154 OFFCURVE",
"131 349 CURVE SMOOTH",
"172 543 OFFCURVE",
"336 666 OFFCURVE",
"509 666 CURVE SMOOTH",
"691 666 OFFCURVE",
"794 543 OFFCURVE",
"753 349 CURVE SMOOTH",
"711 155 OFFCURVE",
"549 48 OFFCURVE",
"378 48 CURVE SMOOTH"
);
}
);
width = 833;
}
);
leftKerningGroup = O;
note = Q;
rightKerningGroup = O;
unicode = 0051;
},
{
glyphname = R;
lastChange = "2015-11-29 23:52:23 +0000";
layers = (
{
layerId = "72ACC467-88F1-4B5B-B511-FE0603CECF6A";
name = "Light Italic";
paths = (
{
closed = 1;
nodes = (
"78 0 LINE",
"145 318 LINE",
"328 318 LINE",
"440 0 LINE",
"495 0 LINE",
"383 319 LINE",
"507 330 OFFCURVE",
"582 408 OFFCURVE",
"603 507 CURVE SMOOTH",
"630 634 OFFCURVE",
"568 699 OFFCURVE",
"432 699 CURVE SMOOTH",
"173 699 LINE",
"25 0 LINE"
);
},
{
closed = 1;
nodes = (
"217 654 LINE",
"420 654 LINE SMOOTH",
"528 654 OFFCURVE",
"575 620 OFFCURVE",
"551 507 CURVE SMOOTH",
"531 412 OFFCURVE",
"457 363 OFFCURVE",
"357 363 CURVE SMOOTH",
"155 363 LINE"
);
}
);
width = 601;
}
);
note = R;
rightKerningGroup = R;
unicode = 0052;
},
{
glyphname = Racute;
lastChange = "2015-11-29 23:52:23 +0000";
layers = (
{
layerId = "72ACC467-88F1-4B5B-B511-FE0603CECF6A";
name = "Light Italic";
paths = (
{
closed = 1;
nodes = (
"78 0 LINE",
"145 318 LINE",
"328 318 LINE",
"440 0 LINE",
"495 0 LINE",
"383 319 LINE",
"507 330 OFFCURVE",
"582 408 OFFCURVE",
"603 507 CURVE SMOOTH",
"630 634 OFFCURVE",
"568 699 OFFCURVE",
"432 699 CURVE SMOOTH",
"173 699 LINE",
"25 0 LINE"
);
},
{
closed = 1;
nodes = (
"217 654 LINE",
"420 654 LINE SMOOTH",
"528 654 OFFCURVE",
"575 620 OFFCURVE",
"551 507 CURVE SMOOTH",
"531 412 OFFCURVE",
"457 363 OFFCURVE",
"357 363 CURVE SMOOTH",
"155 363 LINE"
);
},
{
closed = 1;
nodes = (
"390 760 LINE",
"504 929 LINE",
"450 929 LINE",
"344 760 LINE"
);
}
);
width = 601;
}
);
note = Racute;
rightKerningGroup = R;
unicode = 0154;
},
{
glyphname = Rcaron;
lastChange = "2015-11-29 23:52:23 +0000";
layers = (
{
layerId = "72ACC467-88F1-4B5B-B511-FE0603CECF6A";
name = "Light Italic";
paths = (
{
closed = 1;
nodes = (
"78 0 LINE",
"145 318 LINE",
"328 318 LINE",
"440 0 LINE",
"495 0 LINE",
"383 319 LINE",
"507 330 OFFCURVE",
"582 408 OFFCURVE",
"603 507 CURVE SMOOTH",
"630 634 OFFCURVE",
"568 699 OFFCURVE",
"432 699 CURVE SMOOTH",
"173 699 LINE",
"25 0 LINE"
);
},
{
closed = 1;
nodes = (
"217 654 LINE",
"420 654 LINE SMOOTH",
"528 654 OFFCURVE",
"575 620 OFFCURVE",
"551 507 CURVE SMOOTH",
"531 412 OFFCURVE",
"457 363 OFFCURVE",
"357 363 CURVE SMOOTH",
"155 363 LINE"
);
},
{
closed = 1;
nodes = (
"415 763 LINE",
"581 919 LINE",
"527 919 LINE",
"401 798 LINE",
"327 919 LINE",
"272 919 LINE",
"370 763 LINE"
);
}
);
width = 601;
}
);
note = Rcaron;
rightKerningGroup = R;
unicode = 0158;
},
{
glyphname = Rcommaaccent;
lastChange = "2015-11-29 23:52:22 +0000";
layers = (
{
layerId = "72ACC467-88F1-4B5B-B511-FE0603CECF6A";
name = "Light Italic";
paths = (
{
closed = 1;
nodes = (
"78 0 LINE",
"145 318 LINE",
"328 318 LINE",
"440 0 LINE",
"495 0 LINE",
"383 319 LINE",
"507 330 OFFCURVE",
"582 408 OFFCURVE",
"603 507 CURVE SMOOTH",
"630 634 OFFCURVE",
"568 699 OFFCURVE",
"432 699 CURVE SMOOTH",
"173 699 LINE",
"25 0 LINE"
);
},
{
closed = 1;
nodes = (
"120 -260 LINE",
"249 -67 LINE",
"193 -67 LINE",
"74 -260 LINE"
);
},
{
closed = 1;
nodes = (
"217 654 LINE",
"420 654 LINE SMOOTH",
"528 654 OFFCURVE",
"575 620 OFFCURVE",
"551 507 CURVE SMOOTH",
"531 412 OFFCURVE",
"457 363 OFFCURVE",
"357 363 CURVE SMOOTH",
"155 363 LINE"
);
}
);
width = 601;
}
);
note = Rcommaaccent;
rightKerningGroup = R;
unicode = 0156;
},
{
glyphname = Rdotbelow;
lastChange = "2015-11-29 23:52:23 +0000";
layers = (
{
layerId = "72ACC467-88F1-4B5B-B511-FE0603CECF6A";
name = "Light Italic";
paths = (
{
closed = 1;
nodes = (
"78 0 LINE",
"145 318 LINE",
"328 318 LINE",
"440 0 LINE",
"495 0 LINE",
"383 319 LINE",
"507 330 OFFCURVE",
"582 408 OFFCURVE",
"603 507 CURVE SMOOTH",
"630 634 OFFCURVE",
"568 699 OFFCURVE",
"432 699 CURVE SMOOTH",
"173 699 LINE",
"25 0 LINE"
);
},
{
closed = 1;
nodes = (
"233 -137 OFFCURVE",
"254 -119 OFFCURVE",
"259 -98 CURVE",
"263 -77 OFFCURVE",
"249 -60 OFFCURVE",
"230 -60 CURVE SMOOTH",
"209 -60 OFFCURVE",
"187 -77 OFFCURVE",
"183 -98 CURVE",
"178 -119 OFFCURVE",
"192 -137 OFFCURVE",
"213 -137 CURVE SMOOTH"
);
},
{
closed = 1;
nodes = (
"217 654 LINE",
"420 654 LINE SMOOTH",
"528 654 OFFCURVE",
"575 620 OFFCURVE",
"551 507 CURVE SMOOTH",
"531 412 OFFCURVE",
"457 363 OFFCURVE",
"357 363 CURVE SMOOTH",
"155 363 LINE"
);
}
);
width = 601;
}
);
note = Rdotbelow;
rightKerningGroup = R;
unicode = 1E5A;
},
{
glyphname = Rdotbelowmacron;
lastChange = "2015-11-29 23:52:23 +0000";
layers = (
{
layerId = "72ACC467-88F1-4B5B-B511-FE0603CECF6A";
name = "Light Italic";
paths = (
{
closed = 1;
nodes = (
"78 0 LINE",
"145 318 LINE",
"328 318 LINE",
"440 0 LINE",
"495 0 LINE",
"383 319 LINE",
"507 330 OFFCURVE",
"582 408 OFFCURVE",
"603 507 CURVE SMOOTH",
"630 634 OFFCURVE",
"568 699 OFFCURVE",
"432 699 CURVE SMOOTH",
"173 699 LINE",
"25 0 LINE"
);
},
{
closed = 1;
nodes = (
"210 -137 OFFCURVE",
"231 -119 OFFCURVE",
"236 -98 CURVE",
"240 -77 OFFCURVE",
"226 -60 OFFCURVE",
"207 -60 CURVE SMOOTH",
"186 -60 OFFCURVE",
"164 -77 OFFCURVE",
"160 -98 CURVE",
"155 -119 OFFCURVE",
"169 -137 OFFCURVE",
"190 -137 CURVE SMOOTH"
);
},
{
closed = 1;
nodes = (
"217 654 LINE",
"420 654 LINE SMOOTH",
"528 654 OFFCURVE",
"575 620 OFFCURVE",
"551 507 CURVE SMOOTH",
"531 412 OFFCURVE",
"457 363 OFFCURVE",
"357 363 CURVE SMOOTH",
"155 363 LINE"
);
},
{
closed = 1;
nodes = (
"534 799 LINE",
"542 838 LINE",
"253 838 LINE",
"246 799 LINE"
);
}
);
width = 601;
}
);
note = Rdotbelowmacron;
rightKerningGroup = R;
unicode = 1E5C;
},
{
glyphname = Rlinebelow;
lastChange = "2015-11-29 23:52:21 +0000";
layers = (
{
layerId = "72ACC467-88F1-4B5B-B511-FE0603CECF6A";
name = "Light Italic";
paths = (
{
closed = 1;
nodes = (
"78 0 LINE",
"145 318 LINE",
"328 318 LINE",
"440 0 LINE",
"495 0 LINE",
"383 319 LINE",
"507 330 OFFCURVE",
"582 408 OFFCURVE",
"603 507 CURVE SMOOTH",
"630 634 OFFCURVE",
"568 699 OFFCURVE",
"432 699 CURVE SMOOTH",
"173 699 LINE",
"25 0 LINE"
);
},
{
closed = 1;
nodes = (
"349 -121 LINE",
"357 -80 LINE",
"67 -80 LINE",
"59 -121 LINE"
);
},
{
closed = 1;
nodes = (
"217 654 LINE",
"420 654 LINE SMOOTH",
"528 654 OFFCURVE",
"575 620 OFFCURVE",
"551 507 CURVE SMOOTH",
"531 412 OFFCURVE",
"457 363 OFFCURVE",
"357 363 CURVE SMOOTH",
"155 363 LINE"
);
}
);
width = 601;
}
);
note = Rlinebelow;
rightKerningGroup = R;
unicode = 1E5E;
},
{
glyphname = S;
lastChange = "2015-11-29 23:52:21 +0000";
layers = (
{
layerId = "72ACC467-88F1-4B5B-B511-FE0603CECF6A";
name = "Light Italic";
paths = (
{
closed = 1;
nodes = (
"366 -15 OFFCURVE",
"453 49 OFFCURVE",
"478 164 CURVE SMOOTH",
"504 283 OFFCURVE",
"436 326 OFFCURVE",
"321 373 CURVE SMOOTH",
"200 423 OFFCURVE",
"163 462 OFFCURVE",
"179 540 CURVE SMOOTH",
"195 615 OFFCURVE",
"265 667 OFFCURVE",
"379 667 CURVE SMOOTH",
"445 667 OFFCURVE",
"497 655 OFFCURVE",
"548 632 CURVE",
"558 680 LINE",
"507 703 OFFCURVE",
"455 714 OFFCURVE",
"384 714 CURVE SMOOTH",
"244 714 OFFCURVE",
"150 645 OFFCURVE",
"127 540 CURVE SMOOTH",
"106 441 OFFCURVE",
"161 383 OFFCURVE",
"272 337 CURVE SMOOTH",
"402 283 OFFCURVE",
"446 257 OFFCURVE",
"426 164 CURVE SMOOTH",
"407 76 OFFCURVE",
"339 32 OFFCURVE",
"207 32 CURVE SMOOTH",
"139 32 OFFCURVE",
"75 43 OFFCURVE",
"19 69 CURVE",
"9 19 LINE",
"50 -2 OFFCURVE",
"124 -15 OFFCURVE",
"199 -15 CURVE SMOOTH"
);
}
);
width = 549;
}
);
leftKerningGroup = S;
note = S;
rightKerningGroup = S;
unicode = 0053;
},
{
glyphname = Sacute;
lastChange = "2015-11-29 23:52:21 +0000";
layers = (
{
layerId = "72ACC467-88F1-4B5B-B511-FE0603CECF6A";
name = "Light Italic";
paths = (
{
closed = 1;
nodes = (
"366 -15 OFFCURVE",
"453 49 OFFCURVE",
"478 164 CURVE SMOOTH",
"504 283 OFFCURVE",
"436 326 OFFCURVE",
"321 373 CURVE SMOOTH",
"200 423 OFFCURVE",
"163 462 OFFCURVE",
"179 540 CURVE SMOOTH",
"195 615 OFFCURVE",
"265 667 OFFCURVE",
"379 667 CURVE SMOOTH",
"445 667 OFFCURVE",
"497 655 OFFCURVE",
"548 632 CURVE",
"558 680 LINE",
"507 703 OFFCURVE",
"455 714 OFFCURVE",
"384 714 CURVE SMOOTH",
"244 714 OFFCURVE",
"150 645 OFFCURVE",
"127 540 CURVE SMOOTH",
"106 441 OFFCURVE",
"161 383 OFFCURVE",
"272 337 CURVE SMOOTH",
"402 283 OFFCURVE",
"446 257 OFFCURVE",
"426 164 CURVE SMOOTH",
"407 76 OFFCURVE",
"339 32 OFFCURVE",
"207 32 CURVE SMOOTH",
"139 32 OFFCURVE",
"75 43 OFFCURVE",
"19 69 CURVE",
"9 19 LINE",
"50 -2 OFFCURVE",
"124 -15 OFFCURVE",
"199 -15 CURVE SMOOTH"
);
},
{
closed = 1;
nodes = (
"410 760 LINE",
"524 929 LINE",
"470 929 LINE",
"364 760 LINE"
);
}
);
width = 549;
}
);
leftKerningGroup = S;
note = Sacute;
rightKerningGroup = S;
unicode = 015A;
},
{
glyphname = Scaron;
lastChange = "2015-11-29 23:52:21 +0000";
layers = (
{
layerId = "72ACC467-88F1-4B5B-B511-FE0603CECF6A";
name = "Light Italic";
paths = (
{
closed = 1;
nodes = (
"366 -15 OFFCURVE",
"453 49 OFFCURVE",
"478 164 CURVE SMOOTH",
"504 283 OFFCURVE",
"436 326 OFFCURVE",
"321 373 CURVE SMOOTH",
"200 423 OFFCURVE",
"163 462 OFFCURVE",
"179 540 CURVE SMOOTH",
"195 615 OFFCURVE",
"265 667 OFFCURVE",
"379 667 CURVE SMOOTH",
"445 667 OFFCURVE",
"497 655 OFFCURVE",
"548 632 CURVE",
"558 680 LINE",
"507 703 OFFCURVE",
"455 714 OFFCURVE",
"384 714 CURVE SMOOTH",
"244 714 OFFCURVE",
"150 645 OFFCURVE",
"127 540 CURVE SMOOTH",
"106 441 OFFCURVE",
"161 383 OFFCURVE",
"272 337 CURVE SMOOTH",
"402 283 OFFCURVE",
"446 257 OFFCURVE",
"426 164 CURVE SMOOTH",
"407 76 OFFCURVE",
"339 32 OFFCURVE",
"207 32 CURVE SMOOTH",
"139 32 OFFCURVE",
"75 43 OFFCURVE",
"19 69 CURVE",
"9 19 LINE",
"50 -2 OFFCURVE",
"124 -15 OFFCURVE",
"199 -15 CURVE SMOOTH"
);
},
{
closed = 1;
nodes = (
"434 769 LINE",
"600 925 LINE",
"546 925 LINE",
"420 804 LINE",
"346 925 LINE",
"291 925 LINE",
"389 769 LINE"
);
}
);
width = 549;
}
);
leftKerningGroup = S;
note = Scaron;
rightKerningGroup = S;
unicode = 0160;
},
{
glyphname = Scedilla;
lastChange = "2015-11-29 23:52:21 +0000";
layers = (
{
layerId = "72ACC467-88F1-4B5B-B511-FE0603CECF6A";
name = "Light Italic";
paths = (
{
closed = 1;
nodes = (
"225 -248 OFFCURVE",
"273 -209 OFFCURVE",
"284 -157 CURVE SMOOTH",
"295 -107 OFFCURVE",
"273 -73 OFFCURVE",
"209 -67 CURVE",
"242 -13 LINE",
"381 -3 OFFCURVE",
"455 59 OFFCURVE",
"478 164 CURVE SMOOTH",
"504 283 OFFCURVE",
"436 326 OFFCURVE",
"321 373 CURVE SMOOTH",
"200 423 OFFCURVE",
"163 462 OFFCURVE",
"179 540 CURVE SMOOTH",
"195 615 OFFCURVE",
"265 667 OFFCURVE",
"379 667 CURVE SMOOTH",
"445 667 OFFCURVE",
"497 655 OFFCURVE",
"548 632 CURVE",
"558 680 LINE",
"507 703 OFFCURVE",
"455 714 OFFCURVE",
"384 714 CURVE SMOOTH",
"244 714 OFFCURVE",
"150 645 OFFCURVE",
"127 540 CURVE SMOOTH",
"106 441 OFFCURVE",
"161 383 OFFCURVE",
"272 337 CURVE SMOOTH",
"402 283 OFFCURVE",
"446 257 OFFCURVE",
"426 164 CURVE SMOOTH",
"407 76 OFFCURVE",
"339 32 OFFCURVE",
"207 32 CURVE SMOOTH",
"139 32 OFFCURVE",
"75 43 OFFCURVE",
"19 69 CURVE",
"9 19 LINE",
"48 -1 OFFCURVE",
"119 -14 OFFCURVE",
"191 -15 CURVE",
"146 -93 LINE",
"224 -93 OFFCURVE",
"244 -115 OFFCURVE",
"235 -156 CURVE SMOOTH",
"227 -196 OFFCURVE",
"197 -212 OFFCURVE",
"152 -212 CURVE SMOOTH",
"133 -212 OFFCURVE",
"109 -209 OFFCURVE",
"98 -203 CURVE",
"91 -239 LINE",
"103 -244 OFFCURVE",
"129 -248 OFFCURVE",
"153 -248 CURVE SMOOTH"
);
}
);
width = 549;
}
);
leftKerningGroup = S;
note = Scedilla;
rightKerningGroup = S;
unicode = 015E;
},
{
glyphname = Scircumflex;
lastChange = "2015-11-29 23:52:23 +0000";
layers = (
{
layerId = "72ACC467-88F1-4B5B-B511-FE0603CECF6A";
name = "Light Italic";
paths = (
{
closed = 1;
nodes = (
"366 -15 OFFCURVE",
"453 49 OFFCURVE",
"478 164 CURVE SMOOTH",
"504 283 OFFCURVE",
"436 326 OFFCURVE",
"321 373 CURVE SMOOTH",
"200 423 OFFCURVE",
"163 462 OFFCURVE",
"179 540 CURVE SMOOTH",
"195 615 OFFCURVE",
"265 667 OFFCURVE",
"379 667 CURVE SMOOTH",
"445 667 OFFCURVE",
"497 655 OFFCURVE",
"548 632 CURVE",
"558 680 LINE",
"507 703 OFFCURVE",
"455 714 OFFCURVE",
"384 714 CURVE SMOOTH",
"244 714 OFFCURVE",
"150 645 OFFCURVE",
"127 540 CURVE SMOOTH",
"106 441 OFFCURVE",
"161 383 OFFCURVE",
"272 337 CURVE SMOOTH",
"402 283 OFFCURVE",
"446 257 OFFCURVE",
"426 164 CURVE SMOOTH",
"407 76 OFFCURVE",
"339 32 OFFCURVE",
"207 32 CURVE SMOOTH",
"139 32 OFFCURVE",
"75 43 OFFCURVE",
"19 69 CURVE",
"9 19 LINE",
"50 -2 OFFCURVE",
"124 -15 OFFCURVE",
"199 -15 CURVE SMOOTH"
);
},
{
closed = 1;
nodes = (
"295 764 LINE",
"420 885 LINE",
"495 764 LINE",
"549 764 LINE",
"450 920 LINE",
"405 920 LINE",
"241 764 LINE"
);
}
);
width = 549;
}
);
leftKerningGroup = S;
note = Scircumflex;
rightKerningGroup = S;
unicode = 015C;
},
{
glyphname = Scommaaccent;
lastChange = "2015-11-29 23:52:21 +0000";
layers = (
{
layerId = "72ACC467-88F1-4B5B-B511-FE0603CECF6A";
name = "Light Italic";
paths = (
{
closed = 1;
nodes = (
"366 -15 OFFCURVE",
"453 49 OFFCURVE",
"478 164 CURVE SMOOTH",
"504 283 OFFCURVE",
"436 326 OFFCURVE",
"321 373 CURVE SMOOTH",
"200 423 OFFCURVE",
"163 462 OFFCURVE",
"179 540 CURVE SMOOTH",
"195 615 OFFCURVE",
"265 667 OFFCURVE",
"379 667 CURVE SMOOTH",
"445 667 OFFCURVE",
"497 655 OFFCURVE",
"548 632 CURVE",
"558 680 LINE",
"507 703 OFFCURVE",
"455 714 OFFCURVE",
"384 714 CURVE SMOOTH",
"244 714 OFFCURVE",
"150 645 OFFCURVE",
"127 540 CURVE SMOOTH",
"106 441 OFFCURVE",
"161 383 OFFCURVE",
"272 337 CURVE SMOOTH",
"402 283 OFFCURVE",
"446 257 OFFCURVE",
"426 164 CURVE SMOOTH",
"407 76 OFFCURVE",
"339 32 OFFCURVE",
"207 32 CURVE SMOOTH",
"139 32 OFFCURVE",
"75 43 OFFCURVE",
"19 69 CURVE",
"9 19 LINE",
"50 -2 OFFCURVE",
"124 -15 OFFCURVE",
"199 -15 CURVE SMOOTH"
);
},
{
closed = 1;
nodes = (
"120 -259 LINE",
"249 -67 LINE",
"193 -67 LINE",
"73 -259 LINE"
);
}
);
width = 549;
}
);
leftKerningGroup = S;
note = Scommaaccent;
rightKerningGroup = S;
unicode = 0218;
},
{
glyphname = Sdotaccent;
lastChange = "2015-11-29 23:52:24 +0000";
layers = (
{
layerId = "72ACC467-88F1-4B5B-B511-FE0603CECF6A";
name = "Light Italic";
paths = (
{
closed = 1;
nodes = (
"366 -15 OFFCURVE",
"453 49 OFFCURVE",
"478 164 CURVE SMOOTH",
"504 283 OFFCURVE",
"436 326 OFFCURVE",
"321 373 CURVE SMOOTH",
"200 423 OFFCURVE",
"163 462 OFFCURVE",
"179 540 CURVE SMOOTH",
"195 615 OFFCURVE",
"265 667 OFFCURVE",
"379 667 CURVE SMOOTH",
"445 667 OFFCURVE",
"497 655 OFFCURVE",
"548 632 CURVE",
"558 680 LINE",
"507 703 OFFCURVE",
"455 714 OFFCURVE",
"384 714 CURVE SMOOTH",
"244 714 OFFCURVE",
"150 645 OFFCURVE",
"127 540 CURVE SMOOTH",
"106 441 OFFCURVE",
"161 383 OFFCURVE",
"272 337 CURVE SMOOTH",
"402 283 OFFCURVE",
"446 257 OFFCURVE",
"426 164 CURVE SMOOTH",
"407 76 OFFCURVE",
"339 32 OFFCURVE",
"207 32 CURVE SMOOTH",
"139 32 OFFCURVE",
"75 43 OFFCURVE",
"19 69 CURVE",
"9 19 LINE",
"50 -2 OFFCURVE",
"124 -15 OFFCURVE",
"199 -15 CURVE SMOOTH"
);
},
{
closed = 1;
nodes = (
"424 765 OFFCURVE",
"446 783 OFFCURVE",
"451 804 CURVE",
"455 825 OFFCURVE",
"441 842 OFFCURVE",
"421 842 CURVE SMOOTH",
"400 842 OFFCURVE",
"378 825 OFFCURVE",
"374 804 CURVE",
"369 783 OFFCURVE",
"383 765 OFFCURVE",
"404 765 CURVE SMOOTH"
);
}
);
width = 549;
}
);
leftKerningGroup = S;
note = Sdotaccent;
rightKerningGroup = S;
unicode = 1E60;
},
{
glyphname = Sdotbelow;
lastChange = "2015-11-29 23:52:21 +0000";
layers = (
{
layerId = "72ACC467-88F1-4B5B-B511-FE0603CECF6A";
name = "Light Italic";
paths = (
{
closed = 1;
nodes = (
"366 -15 OFFCURVE",
"453 49 OFFCURVE",
"478 164 CURVE SMOOTH",
"504 283 OFFCURVE",
"436 326 OFFCURVE",
"321 373 CURVE SMOOTH",
"200 423 OFFCURVE",
"163 462 OFFCURVE",
"179 540 CURVE SMOOTH",
"195 615 OFFCURVE",
"265 667 OFFCURVE",
"379 667 CURVE SMOOTH",
"445 667 OFFCURVE",
"497 655 OFFCURVE",
"548 632 CURVE",
"558 680 LINE",
"507 703 OFFCURVE",
"455 714 OFFCURVE",
"384 714 CURVE SMOOTH",
"244 714 OFFCURVE",
"150 645 OFFCURVE",
"127 540 CURVE SMOOTH",
"106 441 OFFCURVE",
"161 383 OFFCURVE",
"272 337 CURVE SMOOTH",
"402 283 OFFCURVE",
"446 257 OFFCURVE",
"426 164 CURVE SMOOTH",
"407 76 OFFCURVE",
"339 32 OFFCURVE",
"207 32 CURVE SMOOTH",
"139 32 OFFCURVE",
"75 43 OFFCURVE",
"19 69 CURVE",
"9 19 LINE",
"50 -2 OFFCURVE",
"124 -15 OFFCURVE",
"199 -15 CURVE SMOOTH"
);
},
{
closed = 1;
nodes = (
"212 -137 OFFCURVE",
"233 -119 OFFCURVE",
"238 -98 CURVE",
"242 -77 OFFCURVE",
"228 -60 OFFCURVE",
"209 -60 CURVE SMOOTH",
"188 -60 OFFCURVE",
"166 -77 OFFCURVE",
"162 -98 CURVE",
"157 -119 OFFCURVE",
"171 -137 OFFCURVE",
"192 -137 CURVE SMOOTH"
);
}
);
width = 549;
}
);
leftKerningGroup = S;
note = Sdotbelow;
rightKerningGroup = S;
unicode = 1E62;
},
{
glyphname = Germandbls;
lastChange = "2015-11-29 23:52:23 +0000";
layers = (
{
layerId = "72ACC467-88F1-4B5B-B511-FE0603CECF6A";
name = "Light Italic";
paths = (
{
closed = 1;
nodes = (
"424 -15 OFFCURVE",
"512 75 OFFCURVE",
"538 194 CURVE SMOOTH",
"564 317 OFFCURVE",
"502 383 OFFCURVE",
"361 388 CURVE",
"540 530 LINE",
"559 629 OFFCURVE",
"511 714 OFFCURVE",
"378 714 CURVE SMOOTH",
"260 714 OFFCURVE",
"158 653 OFFCURVE",
"124 491 CURVE SMOOTH",
"20 0 LINE",
"73 0 LINE",
"178 494 LINE SMOOTH",
"206 626 OFFCURVE",
"288 667 OFFCURVE",
"368 667 CURVE SMOOTH",
"452 667 OFFCURVE",
"501 617 OFFCURVE",
"487 539 CURVE",
"298 387 LINE",
"290 349 LINE",
"327 349 LINE SMOOTH",
"428 349 OFFCURVE",
"511 315 OFFCURVE",
"486 194 CURVE SMOOTH",
"463 88 OFFCURVE",
"392 31 OFFCURVE",
"282 31 CURVE SMOOTH",
"228 31 OFFCURVE",
"193 36 OFFCURVE",
"157 53 CURVE",
"147 5 LINE",
"178 -10 OFFCURVE",
"226 -15 OFFCURVE",
"279 -15 CURVE SMOOTH"
);
}
);
width = 602;
}
);
note = uni1E9E;
unicode = 1E9E;
},
{
glyphname = Schwa;
lastChange = "2015-11-29 23:52:21 +0000";
layers = (
{
layerId = "72ACC467-88F1-4B5B-B511-FE0603CECF6A";
name = "Light Italic";
paths = (
{
closed = 1;
nodes = (
"586 -15 OFFCURVE",
"740 129 OFFCURVE",
"787 349 CURVE SMOOTH",
"836 580 OFFCURVE",
"723 714 OFFCURVE",
"475 714 CURVE SMOOTH",
"386 714 OFFCURVE",
"276 693 OFFCURVE",
"218 671 CURVE",
"208 624 LINE",
"275 649 OFFCURVE",
"370 667 OFFCURVE",
"461 667 CURVE SMOOTH",
"689 667 OFFCURVE",
"774 561 OFFCURVE",
"735 365 CURVE",
"82 365 LINE",
"74 329 LINE SMOOTH",
"33 135 OFFCURVE",
"119 -15 OFFCURVE",
"355 -15 CURVE SMOOTH"
);
},
{
closed = 1;
nodes = (
"147 31 OFFCURVE",
"91 158 OFFCURVE",
"124 323 CURVE",
"727 323 LINE",
"690 159 OFFCURVE",
"570 31 OFFCURVE",
"364 31 CURVE SMOOTH"
);
}
);
width = 818;
}
);
note = uni018F;
unicode = 018F;
},
{
glyphname = T;
lastChange = "2015-11-29 23:52:20 +0000";
layers = (
{
layerId = "72ACC467-88F1-4B5B-B511-FE0603CECF6A";
name = "Light Italic";
paths = (
{
closed = 1;
nodes = (
"269 0 LINE",
"408 654 LINE",
"639 654 LINE",
"648 699 LINE",
"133 699 LINE",
"124 654 LINE",
"355 654 LINE",
"216 0 LINE"
);
}
);
width = 585;
}
);
leftKerningGroup = T;
note = T;
rightKerningGroup = T;
unicode = 0054;
},
{
glyphname = Tbar;
lastChange = "2015-11-29 23:52:21 +0000";
layers = (
{
layerId = "72ACC467-88F1-4B5B-B511-FE0603CECF6A";
name = "Light Italic";
paths = (
{
closed = 1;
nodes = (
"269 0 LINE",
"336 318 LINE",
"472 318 LINE",
"481 362 LINE",
"346 362 LINE",
"408 654 LINE",
"639 654 LINE",
"648 699 LINE",
"133 699 LINE",
"124 654 LINE",
"355 654 LINE",
"293 362 LINE",
"154 362 LINE",
"145 318 LINE",
"283 318 LINE",
"216 0 LINE"
);
}
);
width = 585;
}
);
leftKerningGroup = T;
note = Tbar;
rightKerningGroup = T;
unicode = 0166;
},
{
glyphname = Tcaron;
lastChange = "2015-11-29 23:52:21 +0000";
layers = (
{
layerId = "72ACC467-88F1-4B5B-B511-FE0603CECF6A";
name = "Light Italic";
paths = (
{
closed = 1;
nodes = (
"269 0 LINE",
"408 654 LINE",
"639 654 LINE",
"648 699 LINE",
"133 699 LINE",
"124 654 LINE",
"355 654 LINE",
"216 0 LINE"
);
},
{
closed = 1;
nodes = (
"426 763 LINE",
"592 919 LINE",
"538 919 LINE",
"412 798 LINE",
"338 919 LINE",
"283 919 LINE",
"381 763 LINE"
);
}
);
width = 585;
}
);
leftKerningGroup = T;
note = Tcaron;
rightKerningGroup = T;
unicode = 0164;
},
{
glyphname = Tcedilla;
lastChange = "2015-11-29 23:52:23 +0000";
layers = (
{
layerId = "72ACC467-88F1-4B5B-B511-FE0603CECF6A";
name = "Light Italic";
paths = (
{
closed = 1;
nodes = (
"242 -248 OFFCURVE",
"290 -209 OFFCURVE",
"301 -157 CURVE SMOOTH",
"312 -107 OFFCURVE",
"290 -73 OFFCURVE",
"226 -67 CURVE",
"267 0 LINE",
"269 0 LINE",
"408 654 LINE",
"639 654 LINE",
"648 699 LINE",
"133 699 LINE",
"124 654 LINE",
"355 654 LINE",
"216 0 LINE",
"217 0 LINE",
"163 -93 LINE",
"241 -93 OFFCURVE",
"261 -115 OFFCURVE",
"252 -156 CURVE SMOOTH",
"244 -196 OFFCURVE",
"214 -212 OFFCURVE",
"169 -212 CURVE SMOOTH",
"150 -212 OFFCURVE",
"126 -209 OFFCURVE",
"115 -203 CURVE",
"108 -239 LINE",
"120 -244 OFFCURVE",
"146 -248 OFFCURVE",
"170 -248 CURVE SMOOTH"
);
}
);
width = 585;
}
);
leftKerningGroup = T;
note = Tcedilla;
rightKerningGroup = T;
unicode = 0162;
},
{
glyphname = Tcommaaccent;
lastChange = "2015-11-29 23:52:22 +0000";
layers = (
{
layerId = "72ACC467-88F1-4B5B-B511-FE0603CECF6A";
name = "Light Italic";
paths = (
{
closed = 1;
nodes = (
"269 0 LINE",
"408 654 LINE",
"639 654 LINE",
"648 699 LINE",
"133 699 LINE",
"124 654 LINE",
"355 654 LINE",
"216 0 LINE"
);
},
{
closed = 1;
nodes = (
"126 -260 LINE",
"255 -67 LINE",
"199 -67 LINE",
"80 -260 LINE"
);
}
);
width = 585;
}
);
leftKerningGroup = T;
note = Tcommaaccent;
rightKerningGroup = T;
unicode = 021A;
},
{
glyphname = Tdotbelow;
lastChange = "2015-11-29 23:52:22 +0000";
layers = (
{
layerId = "72ACC467-88F1-4B5B-B511-FE0603CECF6A";
name = "Light Italic";
paths = (
{
closed = 1;
nodes = (
"269 0 LINE",
"408 654 LINE",
"639 654 LINE",
"648 699 LINE",
"133 699 LINE",
"124 654 LINE",
"355 654 LINE",
"216 0 LINE"
);
},
{
closed = 1;
nodes = (
"234 -137 OFFCURVE",
"255 -119 OFFCURVE",
"260 -98 CURVE",
"264 -77 OFFCURVE",
"250 -60 OFFCURVE",
"231 -60 CURVE SMOOTH",
"210 -60 OFFCURVE",
"188 -77 OFFCURVE",
"184 -98 CURVE",
"179 -119 OFFCURVE",
"193 -137 OFFCURVE",
"214 -137 CURVE SMOOTH"
);
}
);
width = 585;
}
);
leftKerningGroup = T;
note = Tdotbelow;
rightKerningGroup = T;
unicode = 1E6C;
},
{
glyphname = Tlinebelow;
lastChange = "2015-11-29 23:52:21 +0000";
layers = (
{
layerId = "72ACC467-88F1-4B5B-B511-FE0603CECF6A";
name = "Light Italic";
paths = (
{
closed = 1;
nodes = (
"269 0 LINE",
"408 654 LINE",
"639 654 LINE",
"648 699 LINE",
"133 699 LINE",
"124 654 LINE",
"355 654 LINE",
"216 0 LINE"
);
},
{
closed = 1;
nodes = (
"362 -121 LINE",
"370 -80 LINE",
"80 -80 LINE",
"72 -121 LINE"
);
}
);
width = 585;
}
);
leftKerningGroup = T;
note = Tlinebelow;
rightKerningGroup = T;
unicode = 1E6E;
},
{
glyphname = U;
lastChange = "2015-11-29 23:52:23 +0000";
layers = (
{
layerId = "72ACC467-88F1-4B5B-B511-FE0603CECF6A";
name = "Light Italic";
paths = (
{
closed = 1;
nodes = (
"474 -15 OFFCURVE",
"576 81 OFFCURVE",
"609 239 CURVE SMOOTH",
"707 699 LINE",
"654 699 LINE",
"555 231 LINE SMOOTH",
"527 97 OFFCURVE",
"422 32 OFFCURVE",
"295 32 CURVE SMOOTH",
"158 32 OFFCURVE",
"92 91 OFFCURVE",
"122 231 CURVE SMOOTH",
"221 699 LINE",
"168 699 LINE",
"70 239 LINE SMOOTH",
"37 81 OFFCURVE",
"113 -15 OFFCURVE",
"285 -15 CURVE SMOOTH"
);
}
);
width = 679;
}
);
leftKerningGroup = U;
note = U;
rightKerningGroup = U;
unicode = 0055;
},
{
glyphname = Uacute;
lastChange = "2015-11-29 23:52:23 +0000";
layers = (
{
layerId = "72ACC467-88F1-4B5B-B511-FE0603CECF6A";
name = "Light Italic";
paths = (
{
closed = 1;
nodes = (
"474 -15 OFFCURVE",
"576 81 OFFCURVE",
"609 239 CURVE SMOOTH",
"707 699 LINE",
"654 699 LINE",
"555 231 LINE SMOOTH",
"527 97 OFFCURVE",
"422 32 OFFCURVE",
"295 32 CURVE SMOOTH",
"158 32 OFFCURVE",
"92 91 OFFCURVE",
"122 231 CURVE SMOOTH",
"221 699 LINE",
"168 699 LINE",
"70 239 LINE SMOOTH",
"37 81 OFFCURVE",
"113 -15 OFFCURVE",
"285 -15 CURVE SMOOTH"
);
},
{
closed = 1;
nodes = (
"467 766 LINE",
"581 935 LINE",
"527 935 LINE",
"421 766 LINE"
);
}
);
width = 679;
}
);
leftKerningGroup = U;
note = Uacute;
rightKerningGroup = U;
unicode = 00DA;
},
{
glyphname = Ubreve;
lastChange = "2015-11-29 23:52:23 +0000";
layers = (
{
layerId = "72ACC467-88F1-4B5B-B511-FE0603CECF6A";
name = "Light Italic";
paths = (
{
closed = 1;
nodes = (
"474 -15 OFFCURVE",
"576 81 OFFCURVE",
"609 239 CURVE SMOOTH",
"707 699 LINE",
"654 699 LINE",
"555 231 LINE SMOOTH",
"527 97 OFFCURVE",
"422 32 OFFCURVE",
"295 32 CURVE SMOOTH",
"158 32 OFFCURVE",
"92 91 OFFCURVE",
"122 231 CURVE SMOOTH",
"221 699 LINE",
"168 699 LINE",
"70 239 LINE SMOOTH",
"37 81 OFFCURVE",
"113 -15 OFFCURVE",
"285 -15 CURVE SMOOTH"
);
},
{
closed = 1;
nodes = (
"525 749 OFFCURVE",
"587 801 OFFCURVE",
"601 868 CURVE",
"560 868 LINE",
"550 821 OFFCURVE",
"510 788 OFFCURVE",
"456 788 CURVE SMOOTH",
"402 788 OFFCURVE",
"376 821 OFFCURVE",
"386 868 CURVE",
"344 868 LINE",
"330 801 OFFCURVE",
"370 749 OFFCURVE",
"448 749 CURVE SMOOTH"
);
}
);
width = 679;
}
);
leftKerningGroup = U;
note = Ubreve;
rightKerningGroup = U;
unicode = 016C;
},
{
glyphname = Ucaron;
lastChange = "2015-11-29 23:52:24 +0000";
layers = (
{
layerId = "72ACC467-88F1-4B5B-B511-FE0603CECF6A";
name = "Light Italic";
paths = (
{
closed = 1;
nodes = (
"474 -15 OFFCURVE",
"576 81 OFFCURVE",
"609 239 CURVE SMOOTH",
"707 699 LINE",
"654 699 LINE",
"555 231 LINE SMOOTH",
"527 97 OFFCURVE",
"422 32 OFFCURVE",
"295 32 CURVE SMOOTH",
"158 32 OFFCURVE",
"92 91 OFFCURVE",
"122 231 CURVE SMOOTH",
"221 699 LINE",
"168 699 LINE",
"70 239 LINE SMOOTH",
"37 81 OFFCURVE",
"113 -15 OFFCURVE",
"285 -15 CURVE SMOOTH"
);
},
{
closed = 1;
nodes = (
"473 763 LINE",
"639 919 LINE",
"585 919 LINE",
"459 798 LINE",
"385 919 LINE",
"330 919 LINE",
"428 763 LINE"
);
}
);
width = 679;
}
);
leftKerningGroup = U;
note = Ucaron;
rightKerningGroup = U;
unicode = 01D3;
},
{
glyphname = Ucircumflex;
lastChange = "2015-11-29 23:52:21 +0000";
layers = (
{
layerId = "72ACC467-88F1-4B5B-B511-FE0603CECF6A";
name = "Light Italic";
paths = (
{
closed = 1;
nodes = (
"474 -15 OFFCURVE",
"576 81 OFFCURVE",
"609 239 CURVE SMOOTH",
"707 699 LINE",
"654 699 LINE",
"555 231 LINE SMOOTH",
"527 97 OFFCURVE",
"422 32 OFFCURVE",
"295 32 CURVE SMOOTH",
"158 32 OFFCURVE",
"92 91 OFFCURVE",
"122 231 CURVE SMOOTH",
"221 699 LINE",
"168 699 LINE",
"70 239 LINE SMOOTH",
"37 81 OFFCURVE",
"113 -15 OFFCURVE",
"285 -15 CURVE SMOOTH"
);
},
{
closed = 1;
nodes = (
"353 770 LINE",
"478 891 LINE",
"553 770 LINE",
"607 770 LINE",
"508 926 LINE",
"463 926 LINE",
"299 770 LINE"
);
}
);
width = 679;
}
);
leftKerningGroup = U;
note = Ucircumflex;
rightKerningGroup = U;
unicode = 00DB;
},
{
glyphname = Udieresis;
lastChange = "2015-11-29 23:52:22 +0000";
layers = (
{
layerId = "72ACC467-88F1-4B5B-B511-FE0603CECF6A";
name = "Light Italic";
paths = (
{
closed = 1;
nodes = (
"474 -15 OFFCURVE",
"576 81 OFFCURVE",
"609 239 CURVE SMOOTH",
"707 699 LINE",
"654 699 LINE",
"555 231 LINE SMOOTH",
"527 97 OFFCURVE",
"422 32 OFFCURVE",
"295 32 CURVE SMOOTH",
"158 32 OFFCURVE",
"92 91 OFFCURVE",
"122 231 CURVE SMOOTH",
"221 699 LINE",
"168 699 LINE",
"70 239 LINE SMOOTH",
"37 81 OFFCURVE",
"113 -15 OFFCURVE",
"285 -15 CURVE SMOOTH"
);
},
{
closed = 1;
nodes = (
"368 771 OFFCURVE",
"390 789 OFFCURVE",
"395 810 CURVE",
"399 831 OFFCURVE",
"385 848 OFFCURVE",
"365 848 CURVE SMOOTH",
"344 848 OFFCURVE",
"323 831 OFFCURVE",
"319 810 CURVE",
"314 789 OFFCURVE",
"327 771 OFFCURVE",
"348 771 CURVE SMOOTH"
);
},
{
closed = 1;
nodes = (
"576 771 OFFCURVE",
"598 789 OFFCURVE",
"603 810 CURVE",
"607 831 OFFCURVE",
"593 848 OFFCURVE",
"572 848 CURVE SMOOTH",
"551 848 OFFCURVE",
"529 831 OFFCURVE",
"525 810 CURVE",
"520 789 OFFCURVE",
"534 771 OFFCURVE",
"555 771 CURVE SMOOTH"
);
}
);
width = 679;
}
);
leftKerningGroup = U;
note = Udieresis;
rightKerningGroup = U;
unicode = 00DC;
},
{
glyphname = Udieresisacute;
lastChange = "2015-11-29 23:52:20 +0000";
layers = (
{
layerId = "72ACC467-88F1-4B5B-B511-FE0603CECF6A";
name = "Light Italic";
paths = (
{
closed = 1;
nodes = (
"474 -15 OFFCURVE",
"576 81 OFFCURVE",
"609 239 CURVE SMOOTH",
"707 699 LINE",
"654 699 LINE",
"555 231 LINE SMOOTH",
"527 97 OFFCURVE",
"422 32 OFFCURVE",
"295 32 CURVE SMOOTH",
"158 32 OFFCURVE",
"92 91 OFFCURVE",
"122 231 CURVE SMOOTH",
"221 699 LINE",
"168 699 LINE",
"70 239 LINE SMOOTH",
"37 81 OFFCURVE",
"113 -15 OFFCURVE",
"285 -15 CURVE SMOOTH"
);
},
{
closed = 1;
nodes = (
"371 766 OFFCURVE",
"393 784 OFFCURVE",
"398 805 CURVE",
"402 826 OFFCURVE",
"388 843 OFFCURVE",
"368 843 CURVE SMOOTH",
"347 843 OFFCURVE",
"325 826 OFFCURVE",
"321 805 CURVE",
"316 784 OFFCURVE",
"330 766 OFFCURVE",
"351 766 CURVE SMOOTH"
);
},
{
closed = 1;
nodes = (
"578 766 OFFCURVE",
"600 784 OFFCURVE",
"605 805 CURVE",
"609 826 OFFCURVE",
"595 843 OFFCURVE",
"574 843 CURVE SMOOTH",
"553 843 OFFCURVE",
"531 826 OFFCURVE",
"527 805 CURVE",
"522 784 OFFCURVE",
"536 766 OFFCURVE",
"557 766 CURVE SMOOTH"
);
},
{
closed = 1;
nodes = (
"480 830 LINE",
"571 958 LINE",
"525 958 LINE",
"442 830 LINE"
);
}
);
width = 679;
}
);
leftKerningGroup = U;
note = Udieresisacute;
rightKerningGroup = U;
unicode = 01D7;
},
{
glyphname = Udieresiscaron;
lastChange = "2015-11-29 23:52:22 +0000";
layers = (
{
layerId = "72ACC467-88F1-4B5B-B511-FE0603CECF6A";
name = "Light Italic";
paths = (
{
closed = 1;
nodes = (
"474 -15 OFFCURVE",
"576 81 OFFCURVE",
"609 239 CURVE SMOOTH",
"707 699 LINE",
"654 699 LINE",
"555 231 LINE SMOOTH",
"527 97 OFFCURVE",
"422 32 OFFCURVE",
"295 32 CURVE SMOOTH",
"158 32 OFFCURVE",
"92 91 OFFCURVE",
"122 231 CURVE SMOOTH",
"221 699 LINE",
"168 699 LINE",
"70 239 LINE SMOOTH",
"37 81 OFFCURVE",
"113 -15 OFFCURVE",
"285 -15 CURVE SMOOTH"
);
},
{
closed = 1;
nodes = (
"369 766 OFFCURVE",
"391 784 OFFCURVE",
"396 805 CURVE",
"400 826 OFFCURVE",
"386 843 OFFCURVE",
"365 843 CURVE SMOOTH",
"344 843 OFFCURVE",
"322 826 OFFCURVE",
"318 805 CURVE",
"313 784 OFFCURVE",
"327 766 OFFCURVE",
"348 766 CURVE SMOOTH"
);
},
{
closed = 1;
nodes = (
"575 766 OFFCURVE",
"597 784 OFFCURVE",
"602 805 CURVE",
"606 826 OFFCURVE",
"592 843 OFFCURVE",
"571 843 CURVE SMOOTH",
"551 843 OFFCURVE",
"529 826 OFFCURVE",
"525 805 CURVE",
"520 784 OFFCURVE",
"534 766 OFFCURVE",
"554 766 CURVE SMOOTH"
);
},
{
closed = 1;
nodes = (
"484 831 LINE",
"640 955 LINE",
"587 955 LINE",
"473 864 LINE",
"398 955 LINE",
"344 955 LINE",
"447 831 LINE"
);
}
);
width = 679;
}
);
leftKerningGroup = U;
note = Udieresiscaron;
rightKerningGroup = U;
unicode = 01D9;
},
{
glyphname = Udieresisgrave;
lastChange = "2015-11-29 23:52:20 +0000";
layers = (
{
layerId = "72ACC467-88F1-4B5B-B511-FE0603CECF6A";
name = "Light Italic";
paths = (
{
closed = 1;
nodes = (
"474 -15 OFFCURVE",
"576 81 OFFCURVE",
"609 239 CURVE SMOOTH",
"707 699 LINE",
"654 699 LINE",
"555 231 LINE SMOOTH",
"527 97 OFFCURVE",
"422 32 OFFCURVE",
"295 32 CURVE SMOOTH",
"158 32 OFFCURVE",
"92 91 OFFCURVE",
"122 231 CURVE SMOOTH",
"221 699 LINE",
"168 699 LINE",
"70 239 LINE SMOOTH",
"37 81 OFFCURVE",
"113 -15 OFFCURVE",
"285 -15 CURVE SMOOTH"
);
},
{
closed = 1;
nodes = (
"369 765 OFFCURVE",
"391 783 OFFCURVE",
"396 804 CURVE",
"400 825 OFFCURVE",
"386 842 OFFCURVE",
"365 842 CURVE SMOOTH",
"344 842 OFFCURVE",
"322 825 OFFCURVE",
"318 804 CURVE",
"313 783 OFFCURVE",
"327 765 OFFCURVE",
"348 765 CURVE SMOOTH"
);
},
{
closed = 1;
nodes = (
"491 829 LINE",
"462 957 LINE",
"416 957 LINE",
"454 829 LINE"
);
},
{
closed = 1;
nodes = (
"575 765 OFFCURVE",
"597 783 OFFCURVE",
"602 804 CURVE",
"606 825 OFFCURVE",
"592 842 OFFCURVE",
"571 842 CURVE SMOOTH",
"551 842 OFFCURVE",
"529 825 OFFCURVE",
"525 804 CURVE",
"520 783 OFFCURVE",
"534 765 OFFCURVE",
"554 765 CURVE SMOOTH"
);
}
);
width = 679;
}
);
leftKerningGroup = U;
note = Udieresisgrave;
rightKerningGroup = U;
unicode = 01DB;
},
{
glyphname = Udieresismacron;
lastChange = "2015-11-29 23:52:23 +0000";
layers = (
{
layerId = "72ACC467-88F1-4B5B-B511-FE0603CECF6A";
name = "Light Italic";
paths = (
{
closed = 1;
nodes = (
"474 -15 OFFCURVE",
"576 81 OFFCURVE",
"609 239 CURVE SMOOTH",
"707 699 LINE",
"654 699 LINE",
"555 231 LINE SMOOTH",
"527 97 OFFCURVE",
"422 32 OFFCURVE",
"295 32 CURVE SMOOTH",
"158 32 OFFCURVE",
"92 91 OFFCURVE",
"122 231 CURVE SMOOTH",
"221 699 LINE",
"168 699 LINE",
"70 239 LINE SMOOTH",
"37 81 OFFCURVE",
"113 -15 OFFCURVE",
"285 -15 CURVE SMOOTH"
);
},
{
closed = 1;
nodes = (
"363 749 OFFCURVE",
"385 767 OFFCURVE",
"390 788 CURVE",
"394 809 OFFCURVE",
"380 826 OFFCURVE",
"360 826 CURVE SMOOTH",
"339 826 OFFCURVE",
"318 809 OFFCURVE",
"314 788 CURVE",
"309 767 OFFCURVE",
"322 749 OFFCURVE",
"343 749 CURVE SMOOTH"
);
},
{
closed = 1;
nodes = (
"571 749 OFFCURVE",
"593 767 OFFCURVE",
"598 788 CURVE",
"602 809 OFFCURVE",
"588 826 OFFCURVE",
"567 826 CURVE SMOOTH",
"546 826 OFFCURVE",
"524 809 OFFCURVE",
"520 788 CURVE",
"515 767 OFFCURVE",
"529 749 OFFCURVE",
"550 749 CURVE SMOOTH"
);
},
{
closed = 1;
nodes = (
"625 910 LINE",
"633 949 LINE",
"344 949 LINE",
"337 910 LINE"
);
}
);
width = 679;
}
);
leftKerningGroup = U;
note = Udieresismacron;
rightKerningGroup = U;
unicode = 01D5;
},
{
glyphname = Udotbelow;
lastChange = "2015-11-29 23:52:24 +0000";
layers = (
{
layerId = "72ACC467-88F1-4B5B-B511-FE0603CECF6A";
name = "Light Italic";
paths = (
{
closed = 1;
nodes = (
"474 -15 OFFCURVE",
"576 81 OFFCURVE",
"609 239 CURVE SMOOTH",
"707 699 LINE",
"654 699 LINE",
"555 231 LINE SMOOTH",
"527 97 OFFCURVE",
"422 32 OFFCURVE",
"295 32 CURVE SMOOTH",
"158 32 OFFCURVE",
"92 91 OFFCURVE",
"122 231 CURVE SMOOTH",
"221 699 LINE",
"168 699 LINE",
"70 239 LINE SMOOTH",
"37 81 OFFCURVE",
"113 -15 OFFCURVE",
"285 -15 CURVE SMOOTH"
);
},
{
closed = 1;
nodes = (
"281 -137 OFFCURVE",
"302 -119 OFFCURVE",
"307 -98 CURVE",
"311 -77 OFFCURVE",
"297 -60 OFFCURVE",
"278 -60 CURVE SMOOTH",
"257 -60 OFFCURVE",
"235 -77 OFFCURVE",
"231 -98 CURVE",
"226 -119 OFFCURVE",
"240 -137 OFFCURVE",
"261 -137 CURVE SMOOTH"
);
}
);
width = 679;
}
);
leftKerningGroup = U;
note = Udotbelow;
rightKerningGroup = U;
unicode = 1EE4;
},
{
glyphname = Ugrave;
lastChange = "2015-11-29 23:52:22 +0000";
layers = (
{
layerId = "72ACC467-88F1-4B5B-B511-FE0603CECF6A";
name = "Light Italic";
paths = (
{
closed = 1;
nodes = (
"474 -15 OFFCURVE",
"576 81 OFFCURVE",
"609 239 CURVE SMOOTH",
"707 699 LINE",
"654 699 LINE",
"555 231 LINE SMOOTH",
"527 97 OFFCURVE",
"422 32 OFFCURVE",
"295 32 CURVE SMOOTH",
"158 32 OFFCURVE",
"92 91 OFFCURVE",
"122 231 CURVE SMOOTH",
"221 699 LINE",
"168 699 LINE",
"70 239 LINE SMOOTH",
"37 81 OFFCURVE",
"113 -15 OFFCURVE",
"285 -15 CURVE SMOOTH"
);
},
{
closed = 1;
nodes = (
"483 766 LINE",
"450 935 LINE",
"395 935 LINE",
"438 766 LINE"
);
}
);
width = 679;
}
);
leftKerningGroup = U;
note = Ugrave;
rightKerningGroup = U;
unicode = 00D9;
},
{
glyphname = Uhookabove;
lastChange = "2015-11-29 23:52:23 +0000";
layers = (
{
layerId = "72ACC467-88F1-4B5B-B511-FE0603CECF6A";
name = "Light Italic";
paths = (
{
closed = 1;
nodes = (
"474 -15 OFFCURVE",
"576 81 OFFCURVE",
"609 239 CURVE SMOOTH",
"707 699 LINE",
"654 699 LINE",
"555 231 LINE SMOOTH",
"527 97 OFFCURVE",
"422 32 OFFCURVE",
"295 32 CURVE SMOOTH",
"158 32 OFFCURVE",
"92 91 OFFCURVE",
"122 231 CURVE SMOOTH",
"221 699 LINE",
"168 699 LINE",
"70 239 LINE SMOOTH",
"37 81 OFFCURVE",
"113 -15 OFFCURVE",
"285 -15 CURVE SMOOTH"
);
},
{
closed = 1;
nodes = (
"461 743 LINE",
"469 782 LINE",
"533 787 OFFCURVE",
"573 824 OFFCURVE",
"583 873 CURVE SMOOTH",
"594 925 OFFCURVE",
"565 962 OFFCURVE",
"490 962 CURVE SMOOTH",
"466 962 OFFCURVE",
"438 958 OFFCURVE",
"422 953 CURVE",
"415 918 LINE",
"428 924 OFFCURVE",
"457 927 OFFCURVE",
"475 927 CURVE SMOOTH",
"522 927 OFFCURVE",
"544 910 OFFCURVE",
"536 871 CURVE SMOOTH",
"527 828 OFFCURVE",
"498 808 OFFCURVE",
"430 808 CURVE",
"416 743 LINE"
);
}
);
width = 679;
}
);
leftKerningGroup = U;
note = Uhookabove;
rightKerningGroup = U;
unicode = 1EE6;
},
{
glyphname = Uhorn;
lastChange = "2015-11-29 23:52:21 +0000";
layers = (
{
layerId = "72ACC467-88F1-4B5B-B511-FE0603CECF6A";
name = "Light Italic";
paths = (
{
closed = 1;
nodes = (
"473 -15 OFFCURVE",
"576 81 OFFCURVE",
"609 239 CURVE SMOOTH",
"681 579 LINE",
"769 579 OFFCURVE",
"841 639 OFFCURVE",
"856 708 CURVE SMOOTH",
"864 747 LINE",
"811 747 LINE",
"803 710 LINE SMOOTH",
"792 658 OFFCURVE",
"757 626 OFFCURVE",
"691 626 CURVE",
"707 699 LINE",
"654 699 LINE",
"555 231 LINE SMOOTH",
"525 91 OFFCURVE",
"422 32 OFFCURVE",
"295 32 CURVE SMOOTH",
"160 32 OFFCURVE",
"92 91 OFFCURVE",
"122 231 CURVE SMOOTH",
"221 699 LINE",
"168 699 LINE",
"70 239 LINE SMOOTH",
"37 81 OFFCURVE",
"111 -15 OFFCURVE",
"285 -15 CURVE SMOOTH"
);
}
);
width = 781;
}
);
leftKerningGroup = U;
note = Uhorn;
rightKerningGroup = U;
unicode = 01AF;
},
{
glyphname = Uhornacute;
lastChange = "2015-11-29 23:52:22 +0000";
layers = (
{
layerId = "72ACC467-88F1-4B5B-B511-FE0603CECF6A";
name = "Light Italic";
paths = (
{
closed = 1;
nodes = (
"473 -15 OFFCURVE",
"576 81 OFFCURVE",
"609 239 CURVE SMOOTH",
"681 579 LINE",
"769 579 OFFCURVE",
"841 639 OFFCURVE",
"856 708 CURVE SMOOTH",
"864 747 LINE",
"811 747 LINE",
"803 710 LINE SMOOTH",
"792 658 OFFCURVE",
"757 626 OFFCURVE",
"691 626 CURVE",
"707 699 LINE",
"654 699 LINE",
"555 231 LINE SMOOTH",
"525 91 OFFCURVE",
"422 32 OFFCURVE",
"295 32 CURVE SMOOTH",
"160 32 OFFCURVE",
"92 91 OFFCURVE",
"122 231 CURVE SMOOTH",
"221 699 LINE",
"168 699 LINE",
"70 239 LINE SMOOTH",
"37 81 OFFCURVE",
"111 -15 OFFCURVE",
"285 -15 CURVE SMOOTH"
);
},
{
closed = 1;
nodes = (
"477 754 LINE",
"591 923 LINE",
"537 923 LINE",
"431 754 LINE"
);
}
);
width = 802;
}
);
leftKerningGroup = U;
note = Uhornacute;
rightKerningGroup = U;
unicode = 1EE8;
},
{
glyphname = Uhorndotbelow;
lastChange = "2015-11-29 23:52:21 +0000";
layers = (
{
layerId = "72ACC467-88F1-4B5B-B511-FE0603CECF6A";
name = "Light Italic";
paths = (
{
closed = 1;
nodes = (
"473 -15 OFFCURVE",
"576 81 OFFCURVE",
"609 239 CURVE SMOOTH",
"681 579 LINE",
"769 579 OFFCURVE",
"841 639 OFFCURVE",
"856 708 CURVE SMOOTH",
"864 747 LINE",
"811 747 LINE",
"803 710 LINE SMOOTH",
"792 658 OFFCURVE",
"757 626 OFFCURVE",
"691 626 CURVE",
"707 699 LINE",
"654 699 LINE",
"555 231 LINE SMOOTH",
"525 91 OFFCURVE",
"422 32 OFFCURVE",
"295 32 CURVE SMOOTH",
"160 32 OFFCURVE",
"92 91 OFFCURVE",
"122 231 CURVE SMOOTH",
"221 699 LINE",
"168 699 LINE",
"70 239 LINE SMOOTH",
"37 81 OFFCURVE",
"111 -15 OFFCURVE",
"285 -15 CURVE SMOOTH"
);
},
{
closed = 1;
nodes = (
"273 -137 OFFCURVE",
"294 -119 OFFCURVE",
"299 -98 CURVE",
"303 -77 OFFCURVE",
"289 -60 OFFCURVE",
"270 -60 CURVE SMOOTH",
"249 -60 OFFCURVE",
"227 -77 OFFCURVE",
"223 -98 CURVE",
"218 -119 OFFCURVE",
"232 -137 OFFCURVE",
"253 -137 CURVE SMOOTH"
);
}
);
width = 788;
}
);
leftKerningGroup = U;
note = Uhorndotbelow;
rightKerningGroup = U;
unicode = 1EF0;
},
{
glyphname = Uhorngrave;
lastChange = "2015-11-29 23:52:21 +0000";
layers = (
{
layerId = "72ACC467-88F1-4B5B-B511-FE0603CECF6A";
name = "Light Italic";
paths = (
{
closed = 1;
nodes = (
"473 -15 OFFCURVE",
"576 81 OFFCURVE",
"609 239 CURVE SMOOTH",
"681 579 LINE",
"769 579 OFFCURVE",
"841 639 OFFCURVE",
"856 708 CURVE SMOOTH",
"864 747 LINE",
"811 747 LINE",
"803 710 LINE SMOOTH",
"792 658 OFFCURVE",
"757 626 OFFCURVE",
"691 626 CURVE",
"707 699 LINE",
"654 699 LINE",
"555 231 LINE SMOOTH",
"525 91 OFFCURVE",
"422 32 OFFCURVE",
"295 32 CURVE SMOOTH",
"160 32 OFFCURVE",
"92 91 OFFCURVE",
"122 231 CURVE SMOOTH",
"221 699 LINE",
"168 699 LINE",
"70 239 LINE SMOOTH",
"37 81 OFFCURVE",
"111 -15 OFFCURVE",
"285 -15 CURVE SMOOTH"
);
},
{
closed = 1;
nodes = (
"487 754 LINE",
"454 923 LINE",
"399 923 LINE",
"442 754 LINE"
);
}
);
width = 788;
}
);
leftKerningGroup = U;
note = Uhorngrave;
rightKerningGroup = U;
unicode = 1EEA;
},
{
glyphname = Uhornhookabove;
lastChange = "2015-11-29 23:52:22 +0000";
layers = (
{
layerId = "72ACC467-88F1-4B5B-B511-FE0603CECF6A";
name = "Light Italic";
paths = (
{
closed = 1;
nodes = (
"473 -15 OFFCURVE",
"576 81 OFFCURVE",
"609 239 CURVE SMOOTH",
"681 579 LINE",
"769 579 OFFCURVE",
"841 639 OFFCURVE",
"856 708 CURVE SMOOTH",
"864 747 LINE",
"811 747 LINE",
"803 710 LINE SMOOTH",
"792 658 OFFCURVE",
"757 626 OFFCURVE",
"691 626 CURVE",
"707 699 LINE",
"654 699 LINE",
"555 231 LINE SMOOTH",
"525 91 OFFCURVE",
"422 32 OFFCURVE",
"295 32 CURVE SMOOTH",
"160 32 OFFCURVE",
"92 91 OFFCURVE",
"122 231 CURVE SMOOTH",
"221 699 LINE",
"168 699 LINE",
"70 239 LINE SMOOTH",
"37 81 OFFCURVE",
"111 -15 OFFCURVE",
"285 -15 CURVE SMOOTH"
);
},
{
closed = 1;
nodes = (
"465 743 LINE",
"473 782 LINE",
"537 787 OFFCURVE",
"577 824 OFFCURVE",
"587 873 CURVE SMOOTH",
"598 925 OFFCURVE",
"569 962 OFFCURVE",
"494 962 CURVE SMOOTH",
"470 962 OFFCURVE",
"442 958 OFFCURVE",
"426 953 CURVE",
"419 918 LINE",
"432 924 OFFCURVE",
"461 927 OFFCURVE",
"479 927 CURVE SMOOTH",
"526 927 OFFCURVE",
"548 910 OFFCURVE",
"540 871 CURVE SMOOTH",
"531 828 OFFCURVE",
"502 808 OFFCURVE",
"434 808 CURVE",
"420 743 LINE"
);
}
);
width = 788;
}
);
leftKerningGroup = U;
note = Uhornhookabove;
rightKerningGroup = U;
unicode = 1EEC;
},
{
glyphname = Uhorntilde;
lastChange = "2015-11-29 23:52:24 +0000";
layers = (
{
layerId = "72ACC467-88F1-4B5B-B511-FE0603CECF6A";
name = "Light Italic";
paths = (
{
closed = 1;
nodes = (
"473 -15 OFFCURVE",
"576 81 OFFCURVE",
"609 239 CURVE SMOOTH",
"681 579 LINE",
"769 579 OFFCURVE",
"841 639 OFFCURVE",
"856 708 CURVE SMOOTH",
"864 747 LINE",
"811 747 LINE",
"803 710 LINE SMOOTH",
"792 658 OFFCURVE",
"757 626 OFFCURVE",
"691 626 CURVE",
"707 699 LINE",
"654 699 LINE",
"555 231 LINE SMOOTH",
"525 91 OFFCURVE",
"422 32 OFFCURVE",
"295 32 CURVE SMOOTH",
"160 32 OFFCURVE",
"92 91 OFFCURVE",
"122 231 CURVE SMOOTH",
"221 699 LINE",
"168 699 LINE",
"70 239 LINE SMOOTH",
"37 81 OFFCURVE",
"111 -15 OFFCURVE",
"285 -15 CURVE SMOOTH"
);
},
{
closed = 1;
nodes = (
"309 806 OFFCURVE",
"341 817 OFFCURVE",
"375 817 CURVE SMOOTH",
"439 817 OFFCURVE",
"468 767 OFFCURVE",
"541 767 CURVE SMOOTH",
"580 767 OFFCURVE",
"616 778 OFFCURVE",
"643 811 CURVE",
"654 862 LINE",
"619 820 OFFCURVE",
"585 809 OFFCURVE",
"550 809 CURVE SMOOTH",
"485 809 OFFCURVE",
"452 859 OFFCURVE",
"384 859 CURVE SMOOTH",
"346 859 OFFCURVE",
"309 847 OFFCURVE",
"282 815 CURVE",
"271 764 LINE"
);
}
);
width = 788;
}
);
leftKerningGroup = U;
note = Uhorntilde;
rightKerningGroup = U;
unicode = 1EEE;
},
{
glyphname = Uhungarumlaut;
lastChange = "2015-11-29 23:52:21 +0000";
layers = (
{
layerId = "72ACC467-88F1-4B5B-B511-FE0603CECF6A";
name = "Light Italic";
paths = (
{
closed = 1;
nodes = (
"474 -15 OFFCURVE",
"576 81 OFFCURVE",
"609 239 CURVE SMOOTH",
"707 699 LINE",
"654 699 LINE",
"555 231 LINE SMOOTH",
"527 97 OFFCURVE",
"422 32 OFFCURVE",
"295 32 CURVE SMOOTH",
"158 32 OFFCURVE",
"92 91 OFFCURVE",
"122 231 CURVE SMOOTH",
"221 699 LINE",
"168 699 LINE",
"70 239 LINE SMOOTH",
"37 81 OFFCURVE",
"113 -15 OFFCURVE",
"285 -15 CURVE SMOOTH"
);
},
{
closed = 1;
nodes = (
"368 760 LINE",
"482 929 LINE",
"428 929 LINE",
"323 760 LINE"
);
},
{
closed = 1;
nodes = (
"546 760 LINE",
"661 929 LINE",
"606 929 LINE",
"501 760 LINE"
);
}
);
width = 679;
}
);
leftKerningGroup = U;
note = Uhungarumlaut;
rightKerningGroup = U;
unicode = 0170;
},
{
glyphname = Umacron;
lastChange = "2015-11-29 23:52:22 +0000";
layers = (
{
layerId = "72ACC467-88F1-4B5B-B511-FE0603CECF6A";
name = "Light Italic";
paths = (
{
closed = 1;
nodes = (
"474 -15 OFFCURVE",
"576 81 OFFCURVE",
"609 239 CURVE SMOOTH",
"707 699 LINE",
"654 699 LINE",
"555 231 LINE SMOOTH",
"527 97 OFFCURVE",
"422 32 OFFCURVE",
"295 32 CURVE SMOOTH",
"158 32 OFFCURVE",
"92 91 OFFCURVE",
"122 231 CURVE SMOOTH",
"221 699 LINE",
"168 699 LINE",
"70 239 LINE SMOOTH",
"37 81 OFFCURVE",
"113 -15 OFFCURVE",
"285 -15 CURVE SMOOTH"
);
},
{
closed = 1;
nodes = (
"600 787 LINE",
"608 826 LINE",
"319 826 LINE",
"312 787 LINE"
);
}
);
width = 679;
}
);
leftKerningGroup = U;
note = Umacron;
rightKerningGroup = U;
unicode = 016A;
},
{
glyphname = Uogonek;
lastChange = "2015-11-29 23:52:21 +0000";
layers = (
{
layerId = "72ACC467-88F1-4B5B-B511-FE0603CECF6A";
name = "Light Italic";
paths = (
{
closed = 1;
nodes = (
"288 -208 OFFCURVE",
"308 -205 OFFCURVE",
"322 -199 CURVE",
"330 -162 LINE",
"317 -167 OFFCURVE",
"300 -171 OFFCURVE",
"283 -171 CURVE SMOOTH",
"251 -171 OFFCURVE",
"235 -155 OFFCURVE",
"242 -119 CURVE SMOOTH",
"250 -79 OFFCURVE",
"280 -45 OFFCURVE",
"325 -13 CURVE",
"488 0 OFFCURVE",
"578 92 OFFCURVE",
"609 239 CURVE SMOOTH",
"707 699 LINE",
"654 699 LINE",
"555 231 LINE SMOOTH",
"527 97 OFFCURVE",
"422 32 OFFCURVE",
"295 32 CURVE SMOOTH",
"158 32 OFFCURVE",
"92 91 OFFCURVE",
"122 231 CURVE SMOOTH",
"221 699 LINE",
"168 699 LINE",
"70 239 LINE SMOOTH",
"37 85 OFFCURVE",
"109 -10 OFFCURVE",
"273 -15 CURVE",
"235 -42 OFFCURVE",
"203 -80 OFFCURVE",
"194 -124 CURVE SMOOTH",
"182 -181 OFFCURVE",
"217 -208 OFFCURVE",
"265 -208 CURVE SMOOTH"
);
}
);
width = 679;
}
);
leftKerningGroup = U;
note = Uogonek;
rightKerningGroup = U;
unicode = 0172;
},
{
glyphname = Uring;
lastChange = "2015-11-29 23:52:22 +0000";
layers = (
{
layerId = "72ACC467-88F1-4B5B-B511-FE0603CECF6A";
name = "Light Italic";
paths = (
{
closed = 1;
nodes = (
"474 -15 OFFCURVE",
"576 81 OFFCURVE",
"609 239 CURVE SMOOTH",
"707 699 LINE",
"654 699 LINE",
"555 231 LINE SMOOTH",
"527 97 OFFCURVE",
"422 32 OFFCURVE",
"295 32 CURVE SMOOTH",
"158 32 OFFCURVE",
"92 91 OFFCURVE",
"122 231 CURVE SMOOTH",
"221 699 LINE",
"168 699 LINE",
"70 239 LINE SMOOTH",
"37 81 OFFCURVE",
"113 -15 OFFCURVE",
"285 -15 CURVE SMOOTH"
);
},
{
closed = 1;
nodes = (
"501 750 OFFCURVE",
"556 795 OFFCURVE",
"568 850 CURVE SMOOTH",
"579 904 OFFCURVE",
"544 949 OFFCURVE",
"490 949 CURVE SMOOTH",
"435 949 OFFCURVE",
"380 904 OFFCURVE",
"369 850 CURVE SMOOTH",
"357 795 OFFCURVE",
"392 750 OFFCURVE",
"447 750 CURVE SMOOTH"
);
},
{
closed = 1;
nodes = (
"420 786 OFFCURVE",
"398 815 OFFCURVE",
"406 850 CURVE SMOOTH",
"413 884 OFFCURVE",
"446 913 OFFCURVE",
"482 913 CURVE SMOOTH",
"517 913 OFFCURVE",
"539 884 OFFCURVE",
"532 850 CURVE SMOOTH",
"524 815 OFFCURVE",
"490 786 OFFCURVE",
"455 786 CURVE SMOOTH"
);
}
);
width = 679;
}
);
leftKerningGroup = U;
note = Uring;
rightKerningGroup = U;
unicode = 016E;
},
{
glyphname = Utilde;
lastChange = "2015-11-29 23:52:21 +0000";
layers = (
{
layerId = "72ACC467-88F1-4B5B-B511-FE0603CECF6A";
name = "Light Italic";
paths = (
{
closed = 1;
nodes = (
"474 -15 OFFCURVE",
"576 81 OFFCURVE",
"609 239 CURVE SMOOTH",
"707 699 LINE",
"654 699 LINE",
"555 231 LINE SMOOTH",
"527 97 OFFCURVE",
"422 32 OFFCURVE",
"295 32 CURVE SMOOTH",
"158 32 OFFCURVE",
"92 91 OFFCURVE",
"122 231 CURVE SMOOTH",
"221 699 LINE",
"168 699 LINE",
"70 239 LINE SMOOTH",
"37 81 OFFCURVE",
"113 -15 OFFCURVE",
"285 -15 CURVE SMOOTH"
);
},
{
closed = 1;
nodes = (
"321 812 OFFCURVE",
"353 823 OFFCURVE",
"387 823 CURVE SMOOTH",
"451 823 OFFCURVE",
"480 773 OFFCURVE",
"553 773 CURVE SMOOTH",
"592 773 OFFCURVE",
"628 784 OFFCURVE",
"655 817 CURVE",
"666 868 LINE",
"631 826 OFFCURVE",
"597 815 OFFCURVE",
"562 815 CURVE SMOOTH",
"497 815 OFFCURVE",
"464 865 OFFCURVE",
"396 865 CURVE SMOOTH",
"358 865 OFFCURVE",
"321 853 OFFCURVE",
"294 821 CURVE",
"283 770 LINE"
);
}
);
width = 679;
}
);
leftKerningGroup = U;
note = Utilde;
rightKerningGroup = U;
unicode = 0168;
},
{
glyphname = V;
lastChange = "2015-11-29 23:52:23 +0000";
layers = (
{
layerId = "72ACC467-88F1-4B5B-B511-FE0603CECF6A";
name = "Light Italic";
paths = (
{
closed = 1;
nodes = (
"331 0 LINE",
"758 699 LINE",
"701 699 LINE",
"320 75 LINE",
"206 699 LINE",
"153 699 LINE",
"284 0 LINE"
);
}
);
width = 715;
}
);
note = V;
unicode = 0056;
},
{
glyphname = W;
lastChange = "2015-11-29 23:52:20 +0000";
layers = (
{
layerId = "72ACC467-88F1-4B5B-B511-FE0603CECF6A";
name = "Light Italic";
paths = (
{
closed = 1;
nodes = (
"268 0 LINE",
"586 618 LINE",
"643 0 LINE",
"692 0 LINE",
"1054 699 LINE",
"999 699 LINE",
"682 89 LINE",
"627 699 LINE",
"581 699 LINE",
"264 89 LINE",
"207 699 LINE",
"153 699 LINE",
"219 0 LINE"
);
}
);
width = 1011;
}
);
leftKerningGroup = W;
note = W;
rightKerningGroup = W;
unicode = 0057;
},
{
glyphname = Wacute;
lastChange = "2015-11-29 23:52:24 +0000";
layers = (
{
layerId = "72ACC467-88F1-4B5B-B511-FE0603CECF6A";
name = "Light Italic";
paths = (
{
closed = 1;
nodes = (
"268 0 LINE",
"586 618 LINE",
"643 0 LINE",
"692 0 LINE",
"1054 699 LINE",
"999 699 LINE",
"682 89 LINE",
"627 699 LINE",
"581 699 LINE",
"264 89 LINE",
"207 699 LINE",
"153 699 LINE",
"219 0 LINE"
);
},
{
closed = 1;
nodes = (
"640 760 LINE",
"754 929 LINE",
"700 929 LINE",
"594 760 LINE"
);
}
);
width = 1011;
}
);
leftKerningGroup = W;
note = Wacute;
rightKerningGroup = W;
unicode = 1E82;
},
{
glyphname = Wcircumflex;
lastChange = "2015-11-29 23:52:23 +0000";
layers = (
{
layerId = "72ACC467-88F1-4B5B-B511-FE0603CECF6A";
name = "Light Italic";
paths = (
{
closed = 1;
nodes = (
"268 0 LINE",
"586 618 LINE",
"643 0 LINE",
"692 0 LINE",
"1054 699 LINE",
"999 699 LINE",
"682 89 LINE",
"627 699 LINE",
"581 699 LINE",
"264 89 LINE",
"207 699 LINE",
"153 699 LINE",
"219 0 LINE"
);
},
{
closed = 1;
nodes = (
"517 764 LINE",
"642 885 LINE",
"717 764 LINE",
"771 764 LINE",
"672 920 LINE",
"627 920 LINE",
"463 764 LINE"
);
}
);
width = 1011;
}
);
leftKerningGroup = W;
note = Wcircumflex;
rightKerningGroup = W;
unicode = 0174;
},
{
glyphname = Wdieresis;
lastChange = "2015-11-29 23:52:23 +0000";
layers = (
{
layerId = "72ACC467-88F1-4B5B-B511-FE0603CECF6A";
name = "Light Italic";
paths = (
{
closed = 1;
nodes = (
"268 0 LINE",
"586 618 LINE",
"643 0 LINE",
"692 0 LINE",
"1054 699 LINE",
"999 699 LINE",
"682 89 LINE",
"627 699 LINE",
"581 699 LINE",
"264 89 LINE",
"207 699 LINE",
"153 699 LINE",
"219 0 LINE"
);
},
{
closed = 1;
nodes = (
"532 765 OFFCURVE",
"554 783 OFFCURVE",
"559 804 CURVE",
"563 825 OFFCURVE",
"549 842 OFFCURVE",
"529 842 CURVE SMOOTH",
"508 842 OFFCURVE",
"487 825 OFFCURVE",
"483 804 CURVE",
"478 783 OFFCURVE",
"491 765 OFFCURVE",
"512 765 CURVE SMOOTH"
);
},
{
closed = 1;
nodes = (
"740 765 OFFCURVE",
"762 783 OFFCURVE",
"767 804 CURVE",
"771 825 OFFCURVE",
"757 842 OFFCURVE",
"736 842 CURVE SMOOTH",
"715 842 OFFCURVE",
"693 825 OFFCURVE",
"689 804 CURVE",
"684 783 OFFCURVE",
"698 765 OFFCURVE",
"719 765 CURVE SMOOTH"
);
}
);
width = 1011;
}
);
leftKerningGroup = W;
note = Wdieresis;
rightKerningGroup = W;
unicode = 1E84;
},
{
glyphname = Wgrave;
lastChange = "2015-11-29 23:52:20 +0000";
layers = (
{
layerId = "72ACC467-88F1-4B5B-B511-FE0603CECF6A";
name = "Light Italic";
paths = (
{
closed = 1;
nodes = (
"268 0 LINE",
"586 618 LINE",
"643 0 LINE",
"692 0 LINE",
"1054 699 LINE",
"999 699 LINE",
"682 89 LINE",
"627 699 LINE",
"581 699 LINE",
"264 89 LINE",
"207 699 LINE",
"153 699 LINE",
"219 0 LINE"
);
},
{
closed = 1;
nodes = (
"634 760 LINE",
"601 929 LINE",
"546 929 LINE",
"589 760 LINE"
);
}
);
width = 1011;
}
);
leftKerningGroup = W;
note = Wgrave;
rightKerningGroup = W;
unicode = 1E80;
},
{
glyphname = X;
lastChange = "2015-11-29 23:52:22 +0000";
layers = (
{
layerId = "72ACC467-88F1-4B5B-B511-FE0603CECF6A";
name = "Light Italic";
paths = (
{
closed = 1;
nodes = (
"68 0 LINE",
"372 318 LINE",
"541 0 LINE",
"597 0 LINE",
"407 356 LINE",
"734 699 LINE",
"672 699 LINE",
"385 398 LINE",
"225 699 LINE",
"169 699 LINE",
"349 360 LINE",
"6 0 LINE"
);
}
);
width = 707;
}
);
note = X;
unicode = 0058;
},
{
glyphname = Y;
lastChange = "2015-11-29 23:52:23 +0000";
layers = (
{
layerId = "72ACC467-88F1-4B5B-B511-FE0603CECF6A";
name = "Light Italic";
paths = (
{
closed = 1;
nodes = (
"312 0 LINE",
"368 265 LINE",
"715 699 LINE",
"658 699 LINE",
"350 312 LINE",
"206 699 LINE",
"153 699 LINE",
"315 265 LINE",
"259 0 LINE"
);
}
);
width = 672;
}
);
leftKerningGroup = Y;
note = Y;
rightKerningGroup = Y;
unicode = 0059;
},
{
glyphname = Yacute;
lastChange = "2015-11-29 23:52:21 +0000";
layers = (
{
layerId = "72ACC467-88F1-4B5B-B511-FE0603CECF6A";
name = "Light Italic";
paths = (
{
closed = 1;
nodes = (
"312 0 LINE",
"368 265 LINE",
"715 699 LINE",
"658 699 LINE",
"350 312 LINE",
"206 699 LINE",
"153 699 LINE",
"315 265 LINE",
"259 0 LINE"
);
},
{
closed = 1;
nodes = (
"463 766 LINE",
"577 935 LINE",
"523 935 LINE",
"417 766 LINE"
);
}
);
width = 672;
}
);
leftKerningGroup = Y;
note = Yacute;
rightKerningGroup = Y;
unicode = 00DD;
},
{
glyphname = Ycircumflex;
lastChange = "2015-11-29 23:52:22 +0000";
layers = (
{
layerId = "72ACC467-88F1-4B5B-B511-FE0603CECF6A";
name = "Light Italic";
paths = (
{
closed = 1;
nodes = (
"312 0 LINE",
"368 265 LINE",
"715 699 LINE",
"658 699 LINE",
"350 312 LINE",
"206 699 LINE",
"153 699 LINE",
"315 265 LINE",
"259 0 LINE"
);
},
{
closed = 1;
nodes = (
"348 764 LINE",
"473 885 LINE",
"548 764 LINE",
"602 764 LINE",
"503 920 LINE",
"458 920 LINE",
"294 764 LINE"
);
}
);
width = 672;
}
);
leftKerningGroup = Y;
note = Ycircumflex;
rightKerningGroup = Y;
unicode = 0176;
},
{
glyphname = Ydieresis;
lastChange = "2015-11-29 23:52:22 +0000";
layers = (
{
layerId = "72ACC467-88F1-4B5B-B511-FE0603CECF6A";
name = "Light Italic";
paths = (
{
closed = 1;
nodes = (
"312 0 LINE",
"368 265 LINE",
"715 699 LINE",
"658 699 LINE",
"350 312 LINE",
"206 699 LINE",
"153 699 LINE",
"315 265 LINE",
"259 0 LINE"
);
},
{
closed = 1;
nodes = (
"364 771 OFFCURVE",
"386 789 OFFCURVE",
"391 810 CURVE",
"395 831 OFFCURVE",
"381 848 OFFCURVE",
"361 848 CURVE SMOOTH",
"340 848 OFFCURVE",
"319 831 OFFCURVE",
"315 810 CURVE",
"310 789 OFFCURVE",
"323 771 OFFCURVE",
"344 771 CURVE SMOOTH"
);
},
{
closed = 1;
nodes = (
"572 771 OFFCURVE",
"594 789 OFFCURVE",
"599 810 CURVE",
"603 831 OFFCURVE",
"589 848 OFFCURVE",
"568 848 CURVE SMOOTH",
"547 848 OFFCURVE",
"525 831 OFFCURVE",
"521 810 CURVE",
"516 789 OFFCURVE",
"530 771 OFFCURVE",
"551 771 CURVE SMOOTH"
);
}
);
width = 672;
}
);
leftKerningGroup = Y;
note = Ydieresis;
rightKerningGroup = Y;
unicode = 0178;
},
{
glyphname = Ydotaccent;
lastChange = "2015-11-29 23:52:23 +0000";
layers = (
{
layerId = "72ACC467-88F1-4B5B-B511-FE0603CECF6A";
name = "Light Italic";
paths = (
{
closed = 1;
nodes = (
"312 0 LINE",
"368 265 LINE",
"715 699 LINE",
"658 699 LINE",
"350 312 LINE",
"206 699 LINE",
"153 699 LINE",
"315 265 LINE",
"259 0 LINE"
);
},
{
closed = 1;
nodes = (
"467 765 OFFCURVE",
"489 783 OFFCURVE",
"494 804 CURVE",
"498 825 OFFCURVE",
"484 842 OFFCURVE",
"464 842 CURVE SMOOTH",
"443 842 OFFCURVE",
"421 825 OFFCURVE",
"417 804 CURVE",
"412 783 OFFCURVE",
"426 765 OFFCURVE",
"447 765 CURVE SMOOTH"
);
}
);
width = 672;
}
);
leftKerningGroup = Y;
note = Ydotaccent;
rightKerningGroup = Y;
unicode = 1E8E;
},
{
glyphname = Ydotbelow;
lastChange = "2015-11-29 23:52:23 +0000";
layers = (
{
layerId = "72ACC467-88F1-4B5B-B511-FE0603CECF6A";
name = "Light Italic";
paths = (
{
closed = 1;
nodes = (
"312 0 LINE",
"368 265 LINE",
"715 699 LINE",
"658 699 LINE",
"350 312 LINE",
"206 699 LINE",
"153 699 LINE",
"315 265 LINE",
"259 0 LINE"
);
},
{
closed = 1;
nodes = (
"277 -137 OFFCURVE",
"298 -119 OFFCURVE",
"303 -98 CURVE",
"307 -77 OFFCURVE",
"293 -60 OFFCURVE",
"274 -60 CURVE SMOOTH",
"253 -60 OFFCURVE",
"231 -77 OFFCURVE",
"227 -98 CURVE",
"222 -119 OFFCURVE",
"236 -137 OFFCURVE",
"257 -137 CURVE SMOOTH"
);
}
);
width = 672;
}
);
leftKerningGroup = Y;
note = Ydotbelow;
rightKerningGroup = Y;
unicode = 1EF4;
},
{
glyphname = Ygrave;
lastChange = "2015-11-29 23:52:22 +0000";
layers = (
{
layerId = "72ACC467-88F1-4B5B-B511-FE0603CECF6A";
name = "Light Italic";
paths = (
{
closed = 1;
nodes = (
"312 0 LINE",
"368 265 LINE",
"715 699 LINE",
"658 699 LINE",
"350 312 LINE",
"206 699 LINE",
"153 699 LINE",
"315 265 LINE",
"259 0 LINE"
);
},
{
closed = 1;
nodes = (
"472 760 LINE",
"439 929 LINE",
"384 929 LINE",
"427 760 LINE"
);
}
);
width = 672;
}
);
leftKerningGroup = Y;
note = Ygrave;
rightKerningGroup = Y;
unicode = 1EF2;
},
{
glyphname = Yhookabove;
lastChange = "2015-11-29 23:52:24 +0000";
layers = (
{
layerId = "72ACC467-88F1-4B5B-B511-FE0603CECF6A";
name = "Light Italic";
paths = (
{
closed = 1;
nodes = (
"312 0 LINE",
"368 265 LINE",
"715 699 LINE",
"658 699 LINE",
"350 312 LINE",
"206 699 LINE",
"153 699 LINE",
"315 265 LINE",
"259 0 LINE"
);
},
{
closed = 1;
nodes = (
"456 743 LINE",
"464 782 LINE",
"528 787 OFFCURVE",
"568 824 OFFCURVE",
"578 873 CURVE SMOOTH",
"589 925 OFFCURVE",
"560 962 OFFCURVE",
"485 962 CURVE SMOOTH",
"461 962 OFFCURVE",
"433 958 OFFCURVE",
"417 953 CURVE",
"410 918 LINE",
"423 924 OFFCURVE",
"452 927 OFFCURVE",
"470 927 CURVE SMOOTH",
"517 927 OFFCURVE",
"539 910 OFFCURVE",
"531 871 CURVE SMOOTH",
"522 828 OFFCURVE",
"493 808 OFFCURVE",
"425 808 CURVE",
"411 743 LINE"
);
}
);
width = 672;
}
);
leftKerningGroup = Y;
note = Yhookabove;
rightKerningGroup = Y;
unicode = 1EF6;
},
{
glyphname = Ytilde;
lastChange = "2015-11-29 23:52:24 +0000";
layers = (
{
layerId = "72ACC467-88F1-4B5B-B511-FE0603CECF6A";
name = "Light Italic";
paths = (
{
closed = 1;
nodes = (
"312 0 LINE",
"368 265 LINE",
"715 699 LINE",
"658 699 LINE",
"350 312 LINE",
"206 699 LINE",
"153 699 LINE",
"315 265 LINE",
"259 0 LINE"
);
},
{
closed = 1;
nodes = (
"306 812 OFFCURVE",
"338 823 OFFCURVE",
"372 823 CURVE SMOOTH",
"436 823 OFFCURVE",
"465 773 OFFCURVE",
"538 773 CURVE SMOOTH",
"577 773 OFFCURVE",
"613 784 OFFCURVE",
"640 817 CURVE",
"651 868 LINE",
"616 826 OFFCURVE",
"582 815 OFFCURVE",
"547 815 CURVE SMOOTH",
"482 815 OFFCURVE",
"449 865 OFFCURVE",
"381 865 CURVE SMOOTH",
"343 865 OFFCURVE",
"306 853 OFFCURVE",
"279 821 CURVE",
"268 770 LINE"
);
}
);
width = 672;
}
);
leftKerningGroup = Y;
note = Ytilde;
rightKerningGroup = Y;
unicode = 1EF8;
},
{
glyphname = Z;
lastChange = "2015-11-29 23:52:23 +0000";
layers = (
{
layerId = "72ACC467-88F1-4B5B-B511-FE0603CECF6A";
name = "Light Italic";
paths = (
{
closed = 1;
nodes = (
"511 0 LINE",
"520 44 LINE",
"77 44 LINE",
"637 658 LINE",
"646 699 LINE",
"164 699 LINE",
"155 654 LINE",
"574 654 LINE",
"13 40 LINE",
"5 0 LINE"
);
}
);
width = 616;
}
);
leftKerningGroup = Z;
note = Z;
rightKerningGroup = Z;
unicode = 005A;
},
{
glyphname = Zacute;
lastChange = "2015-11-29 23:52:23 +0000";
layers = (
{
layerId = "72ACC467-88F1-4B5B-B511-FE0603CECF6A";
name = "Light Italic";
paths = (
{
closed = 1;
nodes = (
"511 0 LINE",
"520 44 LINE",
"77 44 LINE",
"637 658 LINE",
"646 699 LINE",
"164 699 LINE",
"155 654 LINE",
"574 654 LINE",
"13 40 LINE",
"5 0 LINE"
);
},
{
closed = 1;
nodes = (
"416 760 LINE",
"530 929 LINE",
"476 929 LINE",
"370 760 LINE"
);
}
);
width = 616;
}
);
leftKerningGroup = Z;
note = Zacute;
rightKerningGroup = Z;
unicode = 0179;
},
{
glyphname = Zcaron;
lastChange = "2015-11-29 23:52:23 +0000";
layers = (
{
layerId = "72ACC467-88F1-4B5B-B511-FE0603CECF6A";
name = "Light Italic";
paths = (
{
closed = 1;
nodes = (
"511 0 LINE",
"520 44 LINE",
"77 44 LINE",
"637 658 LINE",
"646 699 LINE",
"164 699 LINE",
"155 654 LINE",
"574 654 LINE",
"13 40 LINE",
"5 0 LINE"
);
},
{
closed = 1;
nodes = (
"446 769 LINE",
"612 925 LINE",
"558 925 LINE",
"432 804 LINE",
"358 925 LINE",
"303 925 LINE",
"401 769 LINE"
);
}
);
width = 616;
}
);
leftKerningGroup = Z;
note = Zcaron;
rightKerningGroup = Z;
unicode = 017D;
},
{
glyphname = Zdotaccent;
lastChange = "2015-11-29 23:52:23 +0000";
layers = (
{
layerId = "72ACC467-88F1-4B5B-B511-FE0603CECF6A";
name = "Light Italic";
paths = (
{
closed = 1;
nodes = (
"511 0 LINE",
"520 44 LINE",
"77 44 LINE",
"637 658 LINE",
"646 699 LINE",
"164 699 LINE",
"155 654 LINE",
"574 654 LINE",
"13 40 LINE",
"5 0 LINE"
);
},
{
closed = 1;
nodes = (
"430 765 OFFCURVE",
"452 783 OFFCURVE",
"457 804 CURVE",
"461 825 OFFCURVE",
"447 842 OFFCURVE",
"427 842 CURVE SMOOTH",
"406 842 OFFCURVE",
"384 825 OFFCURVE",
"380 804 CURVE",
"375 783 OFFCURVE",
"389 765 OFFCURVE",
"410 765 CURVE SMOOTH"
);
}
);
width = 616;
}
);
leftKerningGroup = Z;
note = Zdotaccent;
rightKerningGroup = Z;
unicode = 017B;
},
{
glyphname = Zdotbelow;
lastChange = "2015-11-29 23:52:23 +0000";
layers = (
{
layerId = "72ACC467-88F1-4B5B-B511-FE0603CECF6A";
name = "Light Italic";
paths = (
{
closed = 1;
nodes = (
"511 0 LINE",
"520 44 LINE",
"77 44 LINE",
"637 658 LINE",
"646 699 LINE",
"164 699 LINE",
"155 654 LINE",
"574 654 LINE",
"13 40 LINE",
"5 0 LINE"
);
},
{
closed = 1;
nodes = (
"258 -137 OFFCURVE",
"279 -119 OFFCURVE",
"284 -98 CURVE",
"288 -77 OFFCURVE",
"274 -60 OFFCURVE",
"255 -60 CURVE SMOOTH",
"234 -60 OFFCURVE",
"212 -77 OFFCURVE",
"208 -98 CURVE",
"203 -119 OFFCURVE",
"217 -137 OFFCURVE",
"238 -137 CURVE SMOOTH"
);
}
);
width = 616;
}
);
leftKerningGroup = Z;
note = Zdotbelow;
rightKerningGroup = Z;
unicode = 1E92;
},
{
glyphname = a;
lastChange = "2015-11-29 23:52:20 +0000";
layers = (
{
layerId = "72ACC467-88F1-4B5B-B511-FE0603CECF6A";
name = "Light Italic";
paths = (
{
closed = 1;
nodes = (
"356 -15 OFFCURVE",
"433 23 OFFCURVE",
"494 98 CURVE",
"474 0 LINE",
"526 0 LINE",
"628 480 LINE",
"575 480 LINE",
"554 382 LINE",
"524 457 OFFCURVE",
"452 495 OFFCURVE",
"359 495 CURVE SMOOTH",
"212 495 OFFCURVE",
"88 397 OFFCURVE",
"54 239 CURVE SMOOTH",
"20 82 OFFCURVE",
"114 -15 OFFCURVE",
"250 -15 CURVE SMOOTH"
);
},
{
closed = 1;
nodes = (
"143 27 OFFCURVE",
"77 106 OFFCURVE",
"105 239 CURVE SMOOTH",
"132 368 OFFCURVE",
"244 452 OFFCURVE",
"358 452 CURVE SMOOTH",
"467 452 OFFCURVE",
"528 398 OFFCURVE",
"537 304 CURVE",
"509 173 LINE",
"461 81 OFFCURVE",
"368 27 OFFCURVE",
"267 27 CURVE SMOOTH"
);
}
);
width = 647;
}
);
leftKerningGroup = a;
note = a;
rightKerningGroup = a;
unicode = 0061;
},
{
glyphname = aacute;
lastChange = "2015-11-29 23:52:20 +0000";
layers = (
{
layerId = "72ACC467-88F1-4B5B-B511-FE0603CECF6A";
name = "Light Italic";
paths = (
{
closed = 1;
nodes = (
"356 -15 OFFCURVE",
"433 23 OFFCURVE",
"494 98 CURVE",
"474 0 LINE",
"526 0 LINE",
"628 480 LINE",
"575 480 LINE",
"554 382 LINE",
"524 457 OFFCURVE",
"452 495 OFFCURVE",
"359 495 CURVE SMOOTH",
"212 495 OFFCURVE",
"88 397 OFFCURVE",
"54 239 CURVE SMOOTH",
"20 82 OFFCURVE",
"114 -15 OFFCURVE",
"250 -15 CURVE SMOOTH"
);
},
{
closed = 1;
nodes = (
"143 27 OFFCURVE",
"77 106 OFFCURVE",
"105 239 CURVE SMOOTH",
"132 368 OFFCURVE",
"244 452 OFFCURVE",
"358 452 CURVE SMOOTH",
"467 452 OFFCURVE",
"528 398 OFFCURVE",
"537 304 CURVE",
"509 173 LINE",
"461 81 OFFCURVE",
"368 27 OFFCURVE",
"267 27 CURVE SMOOTH"
);
},
{
closed = 1;
nodes = (
"467 568 LINE",
"581 737 LINE",
"527 737 LINE",
"421 568 LINE"
);
}
);
width = 647;
}
);
leftKerningGroup = a;
note = aacute;
rightKerningGroup = a;
unicode = 00E1;
},
{
glyphname = abreve;
lastChange = "2015-11-29 23:52:23 +0000";
layers = (
{
layerId = "72ACC467-88F1-4B5B-B511-FE0603CECF6A";
name = "Light Italic";
paths = (
{
closed = 1;
nodes = (
"356 -15 OFFCURVE",
"433 23 OFFCURVE",
"494 98 CURVE",
"474 0 LINE",
"526 0 LINE",
"628 480 LINE",
"575 480 LINE",
"554 382 LINE",
"524 457 OFFCURVE",
"452 495 OFFCURVE",
"359 495 CURVE SMOOTH",
"212 495 OFFCURVE",
"88 397 OFFCURVE",
"54 239 CURVE SMOOTH",
"20 82 OFFCURVE",
"114 -15 OFFCURVE",
"250 -15 CURVE SMOOTH"
);
},
{
closed = 1;
nodes = (
"143 27 OFFCURVE",
"77 106 OFFCURVE",
"105 239 CURVE SMOOTH",
"132 368 OFFCURVE",
"244 452 OFFCURVE",
"358 452 CURVE SMOOTH",
"467 452 OFFCURVE",
"528 398 OFFCURVE",
"537 304 CURVE",
"509 173 LINE",
"461 81 OFFCURVE",
"368 27 OFFCURVE",
"267 27 CURVE SMOOTH"
);
},
{
closed = 1;
nodes = (
"537 557 OFFCURVE",
"599 609 OFFCURVE",
"613 676 CURVE",
"572 676 LINE",
"562 629 OFFCURVE",
"522 596 OFFCURVE",
"468 596 CURVE SMOOTH",
"414 596 OFFCURVE",
"388 629 OFFCURVE",
"398 676 CURVE",
"356 676 LINE",
"342 609 OFFCURVE",
"382 557 OFFCURVE",
"460 557 CURVE SMOOTH"
);
}
);
width = 647;
}
);
leftKerningGroup = a;
note = abreve;
rightKerningGroup = a;
unicode = 0103;
},
{
glyphname = abreveacute;
lastChange = "2015-11-29 23:52:23 +0000";
layers = (
{
layerId = "72ACC467-88F1-4B5B-B511-FE0603CECF6A";
name = "Light Italic";
paths = (
{
closed = 1;
nodes = (
"356 -15 OFFCURVE",
"433 23 OFFCURVE",
"494 98 CURVE",
"474 0 LINE",
"526 0 LINE",
"628 480 LINE",
"575 480 LINE",
"554 382 LINE",
"524 457 OFFCURVE",
"452 495 OFFCURVE",
"359 495 CURVE SMOOTH",
"212 495 OFFCURVE",
"88 397 OFFCURVE",
"54 239 CURVE SMOOTH",
"20 82 OFFCURVE",
"114 -15 OFFCURVE",
"250 -15 CURVE SMOOTH"
);
},
{
closed = 1;
nodes = (
"143 27 OFFCURVE",
"77 106 OFFCURVE",
"105 239 CURVE SMOOTH",
"132 368 OFFCURVE",
"244 452 OFFCURVE",
"358 452 CURVE SMOOTH",
"467 452 OFFCURVE",
"528 398 OFFCURVE",
"537 304 CURVE",
"509 173 LINE",
"461 81 OFFCURVE",
"368 27 OFFCURVE",
"267 27 CURVE SMOOTH"
);
},
{
closed = 1;
nodes = (
"522 549 OFFCURVE",
"583 600 OFFCURVE",
"597 667 CURVE",
"556 667 LINE",
"546 620 OFFCURVE",
"507 587 OFFCURVE",
"453 587 CURVE SMOOTH",
"399 587 OFFCURVE",
"373 620 OFFCURVE",
"383 667 CURVE",
"342 667 LINE",
"328 600 OFFCURVE",
"368 549 OFFCURVE",
"445 549 CURVE SMOOTH"
);
},
{
closed = 1;
nodes = (
"472 643 LINE",
"559 764 LINE",
"513 764 LINE",
"434 643 LINE"
);
}
);
width = 647;
}
);
leftKerningGroup = a;
note = abreveacute;
rightKerningGroup = a;
unicode = 1EAF;
},
{
glyphname = abrevedotbelow;
lastChange = "2015-11-29 23:52:21 +0000";
layers = (
{
layerId = "72ACC467-88F1-4B5B-B511-FE0603CECF6A";
name = "Light Italic";
paths = (
{
closed = 1;
nodes = (
"356 -15 OFFCURVE",
"433 23 OFFCURVE",
"494 98 CURVE",
"474 0 LINE",
"526 0 LINE",
"628 480 LINE",
"575 480 LINE",
"554 382 LINE",
"524 457 OFFCURVE",
"452 495 OFFCURVE",
"359 495 CURVE SMOOTH",
"212 495 OFFCURVE",
"88 397 OFFCURVE",
"54 239 CURVE SMOOTH",
"20 82 OFFCURVE",
"114 -15 OFFCURVE",
"250 -15 CURVE SMOOTH"
);
},
{
closed = 1;
nodes = (
"314 -137 OFFCURVE",
"335 -119 OFFCURVE",
"340 -98 CURVE",
"344 -77 OFFCURVE",
"330 -60 OFFCURVE",
"311 -60 CURVE SMOOTH",
"290 -60 OFFCURVE",
"268 -77 OFFCURVE",
"264 -98 CURVE",
"259 -119 OFFCURVE",
"273 -137 OFFCURVE",
"294 -137 CURVE SMOOTH"
);
},
{
closed = 1;
nodes = (
"143 27 OFFCURVE",
"77 106 OFFCURVE",
"105 239 CURVE SMOOTH",
"132 368 OFFCURVE",
"244 452 OFFCURVE",
"358 452 CURVE SMOOTH",
"467 452 OFFCURVE",
"528 398 OFFCURVE",
"537 304 CURVE",
"509 173 LINE",
"461 81 OFFCURVE",
"368 27 OFFCURVE",
"267 27 CURVE SMOOTH"
);
},
{
closed = 1;
nodes = (
"515 547 OFFCURVE",
"577 599 OFFCURVE",
"591 666 CURVE",
"550 666 LINE",
"540 619 OFFCURVE",
"500 586 OFFCURVE",
"446 586 CURVE SMOOTH",
"392 586 OFFCURVE",
"366 619 OFFCURVE",
"376 666 CURVE",
"334 666 LINE",
"320 599 OFFCURVE",
"360 547 OFFCURVE",
"438 547 CURVE SMOOTH"
);
}
);
width = 647;
}
);
leftKerningGroup = a;
note = abrevedotbelow;
rightKerningGroup = a;
unicode = 1EB7;
},
{
glyphname = abrevegrave;
lastChange = "2015-11-29 23:52:23 +0000";
layers = (
{
layerId = "72ACC467-88F1-4B5B-B511-FE0603CECF6A";
name = "Light Italic";
paths = (
{
closed = 1;
nodes = (
"356 -15 OFFCURVE",
"433 23 OFFCURVE",
"494 98 CURVE",
"474 0 LINE",
"526 0 LINE",
"628 480 LINE",
"575 480 LINE",
"554 382 LINE",
"524 457 OFFCURVE",
"452 495 OFFCURVE",
"359 495 CURVE SMOOTH",
"212 495 OFFCURVE",
"88 397 OFFCURVE",
"54 239 CURVE SMOOTH",
"20 82 OFFCURVE",
"114 -15 OFFCURVE",
"250 -15 CURVE SMOOTH"
);
},
{
closed = 1;
nodes = (
"143 27 OFFCURVE",
"77 106 OFFCURVE",
"105 239 CURVE SMOOTH",
"132 368 OFFCURVE",
"244 452 OFFCURVE",
"358 452 CURVE SMOOTH",
"467 452 OFFCURVE",
"528 398 OFFCURVE",
"537 304 CURVE",
"509 173 LINE",
"461 81 OFFCURVE",
"368 27 OFFCURVE",
"267 27 CURVE SMOOTH"
);
},
{
closed = 1;
nodes = (
"524 549 OFFCURVE",
"585 600 OFFCURVE",
"599 667 CURVE",
"558 667 LINE",
"548 620 OFFCURVE",
"509 587 OFFCURVE",
"455 587 CURVE SMOOTH",
"401 587 OFFCURVE",
"375 620 OFFCURVE",
"385 667 CURVE",
"344 667 LINE",
"330 600 OFFCURVE",
"370 549 OFFCURVE",
"447 549 CURVE SMOOTH"
);
},
{
closed = 1;
nodes = (
"498 643 LINE",
"471 764 LINE",
"424 764 LINE",
"460 643 LINE"
);
}
);
width = 647;
}
);
leftKerningGroup = a;
note = abrevegrave;
rightKerningGroup = a;
unicode = 1EB1;
},
{
glyphname = abrevehookabove;
lastChange = "2015-11-29 23:52:23 +0000";
layers = (
{
layerId = "72ACC467-88F1-4B5B-B511-FE0603CECF6A";
name = "Light Italic";
paths = (
{
closed = 1;
nodes = (
"356 -15 OFFCURVE",
"433 23 OFFCURVE",
"494 98 CURVE",
"474 0 LINE",
"526 0 LINE",
"628 480 LINE",
"575 480 LINE",
"554 382 LINE",
"524 457 OFFCURVE",
"452 495 OFFCURVE",
"359 495 CURVE SMOOTH",
"212 495 OFFCURVE",
"88 397 OFFCURVE",
"54 239 CURVE SMOOTH",
"20 82 OFFCURVE",
"114 -15 OFFCURVE",
"250 -15 CURVE SMOOTH"
);
},
{
closed = 1;
nodes = (
"143 27 OFFCURVE",
"77 106 OFFCURVE",
"105 239 CURVE SMOOTH",
"132 368 OFFCURVE",
"244 452 OFFCURVE",
"358 452 CURVE SMOOTH",
"467 452 OFFCURVE",
"528 398 OFFCURVE",
"537 304 CURVE",
"509 173 LINE",
"461 81 OFFCURVE",
"368 27 OFFCURVE",
"267 27 CURVE SMOOTH"
);
},
{
closed = 1;
nodes = (
"523 549 OFFCURVE",
"584 600 OFFCURVE",
"598 667 CURVE",
"558 667 LINE",
"548 620 OFFCURVE",
"508 587 OFFCURVE",
"454 587 CURVE SMOOTH",
"400 587 OFFCURVE",
"374 620 OFFCURVE",
"384 667 CURVE",
"343 667 LINE",
"329 600 OFFCURVE",
"369 549 OFFCURVE",
"446 549 CURVE SMOOTH"
);
},
{
closed = 1;
nodes = (
"473 632 LINE",
"478 658 LINE",
"523 662 OFFCURVE",
"553 687 OFFCURVE",
"560 721 CURVE SMOOTH",
"568 759 OFFCURVE",
"548 785 OFFCURVE",
"496 785 CURVE SMOOTH",
"476 785 OFFCURVE",
"453 781 OFFCURVE",
"439 776 CURVE",
"433 746 LINE",
"445 751 OFFCURVE",
"466 754 OFFCURVE",
"482 754 CURVE SMOOTH",
"512 754 OFFCURVE",
"524 745 OFFCURVE",
"519 721 CURVE SMOOTH",
"513 693 OFFCURVE",
"491 682 OFFCURVE",
"447 682 CURVE",
"437 632 LINE"
);
}
);
width = 647;
}
);
leftKerningGroup = a;
note = abrevehookabove;
rightKerningGroup = a;
unicode = 1EB3;
},
{
glyphname = abrevetilde;
lastChange = "2015-11-29 23:52:24 +0000";
layers = (
{
layerId = "72ACC467-88F1-4B5B-B511-FE0603CECF6A";
name = "Light Italic";
paths = (
{
closed = 1;
nodes = (
"356 -15 OFFCURVE",
"433 23 OFFCURVE",
"494 98 CURVE",
"474 0 LINE",
"526 0 LINE",
"628 480 LINE",
"575 480 LINE",
"554 382 LINE",
"524 457 OFFCURVE",
"452 495 OFFCURVE",
"359 495 CURVE SMOOTH",
"212 495 OFFCURVE",
"88 397 OFFCURVE",
"54 239 CURVE SMOOTH",
"20 82 OFFCURVE",
"114 -15 OFFCURVE",
"250 -15 CURVE SMOOTH"
);
},
{
closed = 1;
nodes = (
"143 27 OFFCURVE",
"77 106 OFFCURVE",
"105 239 CURVE SMOOTH",
"132 368 OFFCURVE",
"244 452 OFFCURVE",
"358 452 CURVE SMOOTH",
"467 452 OFFCURVE",
"528 398 OFFCURVE",
"537 304 CURVE",
"509 173 LINE",
"461 81 OFFCURVE",
"368 27 OFFCURVE",
"267 27 CURVE SMOOTH"
);
},
{
closed = 1;
nodes = (
"532 549 OFFCURVE",
"593 600 OFFCURVE",
"607 667 CURVE",
"567 667 LINE",
"557 620 OFFCURVE",
"517 587 OFFCURVE",
"463 587 CURVE SMOOTH",
"409 587 OFFCURVE",
"383 620 OFFCURVE",
"393 667 CURVE",
"352 667 LINE",
"338 600 OFFCURVE",
"378 549 OFFCURVE",
"455 549 CURVE SMOOTH"
);
},
{
closed = 1;
nodes = (
"362 725 OFFCURVE",
"387 735 OFFCURVE",
"417 735 CURVE SMOOTH",
"465 735 OFFCURVE",
"501 691 OFFCURVE",
"557 691 CURVE SMOOTH",
"592 691 OFFCURVE",
"618 700 OFFCURVE",
"640 727 CURVE",
"650 773 LINE",
"621 738 OFFCURVE",
"596 727 OFFCURVE",
"565 727 CURVE SMOOTH",
"516 727 OFFCURVE",
"477 772 OFFCURVE",
"425 772 CURVE SMOOTH",
"391 772 OFFCURVE",
"362 762 OFFCURVE",
"341 735 CURVE",
"331 690 LINE"
);
}
);
width = 647;
}
);
leftKerningGroup = a;
note = abrevetilde;
rightKerningGroup = a;
unicode = 1EB5;
},
{
glyphname = acaron;
lastChange = "2015-11-29 23:52:20 +0000";
layers = (
{
layerId = "72ACC467-88F1-4B5B-B511-FE0603CECF6A";
name = "Light Italic";
paths = (
{
closed = 1;
nodes = (
"356 -15 OFFCURVE",
"433 23 OFFCURVE",
"494 98 CURVE",
"474 0 LINE",
"526 0 LINE",
"628 480 LINE",
"575 480 LINE",
"554 382 LINE",
"524 457 OFFCURVE",
"452 495 OFFCURVE",
"359 495 CURVE SMOOTH",
"212 495 OFFCURVE",
"88 397 OFFCURVE",
"54 239 CURVE SMOOTH",
"20 82 OFFCURVE",
"114 -15 OFFCURVE",
"250 -15 CURVE SMOOTH"
);
},
{
closed = 1;
nodes = (
"143 27 OFFCURVE",
"77 106 OFFCURVE",
"105 239 CURVE SMOOTH",
"132 368 OFFCURVE",
"244 452 OFFCURVE",
"358 452 CURVE SMOOTH",
"467 452 OFFCURVE",
"528 398 OFFCURVE",
"537 304 CURVE",
"509 173 LINE",
"461 81 OFFCURVE",
"368 27 OFFCURVE",
"267 27 CURVE SMOOTH"
);
},
{
closed = 1;
nodes = (
"472 551 LINE",
"638 707 LINE",
"584 707 LINE",
"458 586 LINE",
"384 707 LINE",
"329 707 LINE",
"427 551 LINE"
);
}
);
width = 647;
}
);
leftKerningGroup = a;
note = acaron;
rightKerningGroup = a;
unicode = 01CE;
},
{
glyphname = acircumflex;
lastChange = "2015-11-29 23:52:21 +0000";
layers = (
{
layerId = "72ACC467-88F1-4B5B-B511-FE0603CECF6A";
name = "Light Italic";
paths = (
{
closed = 1;
nodes = (
"356 -15 OFFCURVE",
"433 23 OFFCURVE",
"494 98 CURVE",
"474 0 LINE",
"526 0 LINE",
"628 480 LINE",
"575 480 LINE",
"554 382 LINE",
"524 457 OFFCURVE",
"452 495 OFFCURVE",
"359 495 CURVE SMOOTH",
"212 495 OFFCURVE",
"88 397 OFFCURVE",
"54 239 CURVE SMOOTH",
"20 82 OFFCURVE",
"114 -15 OFFCURVE",
"250 -15 CURVE SMOOTH"
);
},
{
closed = 1;
nodes = (
"143 27 OFFCURVE",
"77 106 OFFCURVE",
"105 239 CURVE SMOOTH",
"132 368 OFFCURVE",
"244 452 OFFCURVE",
"358 452 CURVE SMOOTH",
"467 452 OFFCURVE",
"528 398 OFFCURVE",
"537 304 CURVE",
"509 173 LINE",
"461 81 OFFCURVE",
"368 27 OFFCURVE",
"267 27 CURVE SMOOTH"
);
},
{
closed = 1;
nodes = (
"344 551 LINE",
"469 672 LINE",
"544 551 LINE",
"598 551 LINE",
"499 707 LINE",
"454 707 LINE",
"290 551 LINE"
);
}
);
width = 647;
}
);
leftKerningGroup = a;
note = acircumflex;
rightKerningGroup = a;
unicode = 00E2;
},
{
glyphname = acircumflexacute;
lastChange = "2015-11-29 23:52:22 +0000";
layers = (
{
layerId = "72ACC467-88F1-4B5B-B511-FE0603CECF6A";
name = "Light Italic";
paths = (
{
closed = 1;
nodes = (
"356 -15 OFFCURVE",
"433 23 OFFCURVE",
"494 98 CURVE",
"474 0 LINE",
"526 0 LINE",
"628 480 LINE",
"575 480 LINE",
"554 382 LINE",
"524 457 OFFCURVE",
"452 495 OFFCURVE",
"359 495 CURVE SMOOTH",
"212 495 OFFCURVE",
"88 397 OFFCURVE",
"54 239 CURVE SMOOTH",
"20 82 OFFCURVE",
"114 -15 OFFCURVE",
"250 -15 CURVE SMOOTH"
);
},
{
closed = 1;
nodes = (
"143 27 OFFCURVE",
"77 106 OFFCURVE",
"105 239 CURVE SMOOTH",
"132 368 OFFCURVE",
"244 452 OFFCURVE",
"358 452 CURVE SMOOTH",
"467 452 OFFCURVE",
"528 398 OFFCURVE",
"537 304 CURVE",
"509 173 LINE",
"461 81 OFFCURVE",
"368 27 OFFCURVE",
"267 27 CURVE SMOOTH"
);
},
{
closed = 1;
nodes = (
"349 546 LINE",
"463 637 LINE",
"539 546 LINE",
"592 546 LINE",
"488 670 LINE",
"451 670 LINE",
"295 546 LINE"
);
},
{
closed = 1;
nodes = (
"586 639 LINE",
"685 753 LINE",
"639 753 LINE",
"548 639 LINE"
);
}
);
width = 647;
}
);
leftKerningGroup = a;
note = acircumflexacute;
rightKerningGroup = a;
unicode = 1EA5;
},
{
glyphname = acircumflexdotbelow;
lastChange = "2015-11-29 23:52:20 +0000";
layers = (
{
layerId = "72ACC467-88F1-4B5B-B511-FE0603CECF6A";
name = "Light Italic";
paths = (
{
closed = 1;
nodes = (
"356 -15 OFFCURVE",
"433 23 OFFCURVE",
"494 98 CURVE",
"474 0 LINE",
"526 0 LINE",
"628 480 LINE",
"575 480 LINE",
"554 382 LINE",
"524 457 OFFCURVE",
"452 495 OFFCURVE",
"359 495 CURVE SMOOTH",
"212 495 OFFCURVE",
"88 397 OFFCURVE",
"54 239 CURVE SMOOTH",
"20 82 OFFCURVE",
"114 -15 OFFCURVE",
"250 -15 CURVE SMOOTH"
);
},
{
closed = 1;
nodes = (
"315 -137 OFFCURVE",
"336 -119 OFFCURVE",
"341 -98 CURVE",
"345 -77 OFFCURVE",
"331 -60 OFFCURVE",
"312 -60 CURVE SMOOTH",
"291 -60 OFFCURVE",
"269 -77 OFFCURVE",
"265 -98 CURVE",
"260 -119 OFFCURVE",
"274 -137 OFFCURVE",
"295 -137 CURVE SMOOTH"
);
},
{
closed = 1;
nodes = (
"143 27 OFFCURVE",
"77 106 OFFCURVE",
"105 239 CURVE SMOOTH",
"132 368 OFFCURVE",
"244 452 OFFCURVE",
"358 452 CURVE SMOOTH",
"467 452 OFFCURVE",
"528 398 OFFCURVE",
"537 304 CURVE",
"509 173 LINE",
"461 81 OFFCURVE",
"368 27 OFFCURVE",
"267 27 CURVE SMOOTH"
);
},
{
closed = 1;
nodes = (
"342 551 LINE",
"467 672 LINE",
"542 551 LINE",
"596 551 LINE",
"497 707 LINE",
"452 707 LINE",
"288 551 LINE"
);
}
);
width = 647;
}
);
leftKerningGroup = a;
note = acircumflexdotbelow;
rightKerningGroup = a;
unicode = 1EAD;
},
{
glyphname = acircumflexgrave;
lastChange = "2015-11-29 23:52:23 +0000";
layers = (
{
layerId = "72ACC467-88F1-4B5B-B511-FE0603CECF6A";
name = "Light Italic";
paths = (
{
closed = 1;
nodes = (
"356 -15 OFFCURVE",
"433 23 OFFCURVE",
"494 98 CURVE",
"474 0 LINE",
"526 0 LINE",
"628 480 LINE",
"575 480 LINE",
"554 382 LINE",
"524 457 OFFCURVE",
"452 495 OFFCURVE",
"359 495 CURVE SMOOTH",
"212 495 OFFCURVE",
"88 397 OFFCURVE",
"54 239 CURVE SMOOTH",
"20 82 OFFCURVE",
"114 -15 OFFCURVE",
"250 -15 CURVE SMOOTH"
);
},
{
closed = 1;
nodes = (
"143 27 OFFCURVE",
"77 106 OFFCURVE",
"105 239 CURVE SMOOTH",
"132 368 OFFCURVE",
"244 452 OFFCURVE",
"358 452 CURVE SMOOTH",
"467 452 OFFCURVE",
"528 398 OFFCURVE",
"537 304 CURVE",
"509 173 LINE",
"461 81 OFFCURVE",
"368 27 OFFCURVE",
"267 27 CURVE SMOOTH"
);
},
{
closed = 1;
nodes = (
"390 639 LINE",
"346 753 LINE",
"300 753 LINE",
"352 639 LINE"
);
},
{
closed = 1;
nodes = (
"359 546 LINE",
"473 637 LINE",
"549 546 LINE",
"602 546 LINE",
"499 670 LINE",
"462 670 LINE",
"306 546 LINE"
);
}
);
width = 647;
}
);
leftKerningGroup = a;
note = acircumflexgrave;
rightKerningGroup = a;
unicode = 1EA7;
},
{
glyphname = acircumflexhookabove;
lastChange = "2015-11-29 23:52:20 +0000";
layers = (
{
layerId = "72ACC467-88F1-4B5B-B511-FE0603CECF6A";
name = "Light Italic";
paths = (
{
closed = 1;
nodes = (
"356 -15 OFFCURVE",
"433 23 OFFCURVE",
"494 98 CURVE",
"474 0 LINE",
"526 0 LINE",
"628 480 LINE",
"575 480 LINE",
"554 382 LINE",
"524 457 OFFCURVE",
"452 495 OFFCURVE",
"359 495 CURVE SMOOTH",
"212 495 OFFCURVE",
"88 397 OFFCURVE",
"54 239 CURVE SMOOTH",
"20 82 OFFCURVE",
"114 -15 OFFCURVE",
"250 -15 CURVE SMOOTH"
);
},
{
closed = 1;
nodes = (
"143 27 OFFCURVE",
"77 106 OFFCURVE",
"105 239 CURVE SMOOTH",
"132 368 OFFCURVE",
"244 452 OFFCURVE",
"358 452 CURVE SMOOTH",
"467 452 OFFCURVE",
"528 398 OFFCURVE",
"537 304 CURVE",
"509 173 LINE",
"461 81 OFFCURVE",
"368 27 OFFCURVE",
"267 27 CURVE SMOOTH"
);
},
{
closed = 1;
nodes = (
"348 546 LINE",
"462 637 LINE",
"538 546 LINE",
"590 546 LINE",
"487 670 LINE",
"450 670 LINE",
"294 546 LINE"
);
},
{
closed = 1;
nodes = (
"584 630 LINE",
"589 656 LINE",
"634 660 OFFCURVE",
"664 685 OFFCURVE",
"671 719 CURVE SMOOTH",
"679 757 OFFCURVE",
"659 783 OFFCURVE",
"607 783 CURVE SMOOTH",
"587 783 OFFCURVE",
"565 779 OFFCURVE",
"551 774 CURVE",
"545 744 LINE",
"557 749 OFFCURVE",
"577 752 OFFCURVE",
"593 752 CURVE SMOOTH",
"623 752 OFFCURVE",
"635 743 OFFCURVE",
"630 719 CURVE SMOOTH",
"624 691 OFFCURVE",
"602 680 OFFCURVE",
"559 680 CURVE",
"549 630 LINE"
);
}
);
width = 647;
}
);
leftKerningGroup = a;
note = acircumflexhookabove;
rightKerningGroup = a;
unicode = 1EA9;
},
{
glyphname = acircumflextilde;
lastChange = "2015-11-29 23:52:21 +0000";
layers = (
{
layerId = "72ACC467-88F1-4B5B-B511-FE0603CECF6A";
name = "Light Italic";
paths = (
{
closed = 1;
nodes = (
"356 -15 OFFCURVE",
"433 23 OFFCURVE",
"494 98 CURVE",
"474 0 LINE",
"526 0 LINE",
"628 480 LINE",
"575 480 LINE",
"554 382 LINE",
"524 457 OFFCURVE",
"452 495 OFFCURVE",
"359 495 CURVE SMOOTH",
"212 495 OFFCURVE",
"88 397 OFFCURVE",
"54 239 CURVE SMOOTH",
"20 82 OFFCURVE",
"114 -15 OFFCURVE",
"250 -15 CURVE SMOOTH"
);
},
{
closed = 1;
nodes = (
"143 27 OFFCURVE",
"77 106 OFFCURVE",
"105 239 CURVE SMOOTH",
"132 368 OFFCURVE",
"244 452 OFFCURVE",
"358 452 CURVE SMOOTH",
"467 452 OFFCURVE",
"528 398 OFFCURVE",
"537 304 CURVE",
"509 173 LINE",
"461 81 OFFCURVE",
"368 27 OFFCURVE",
"267 27 CURVE SMOOTH"
);
},
{
closed = 1;
nodes = (
"349 546 LINE",
"463 637 LINE",
"539 546 LINE",
"591 546 LINE",
"488 670 LINE",
"451 670 LINE",
"295 546 LINE"
);
},
{
closed = 1;
nodes = (
"356 719 OFFCURVE",
"380 729 OFFCURVE",
"410 729 CURVE SMOOTH",
"459 729 OFFCURVE",
"494 684 OFFCURVE",
"551 684 CURVE SMOOTH",
"584 684 OFFCURVE",
"612 694 OFFCURVE",
"634 721 CURVE",
"644 766 LINE",
"614 731 OFFCURVE",
"588 721 OFFCURVE",
"559 721 CURVE SMOOTH",
"509 721 OFFCURVE",
"471 766 OFFCURVE",
"418 766 CURVE SMOOTH",
"384 766 OFFCURVE",
"357 756 OFFCURVE",
"334 729 CURVE",
"324 683 LINE"
);
}
);
width = 647;
}
);
leftKerningGroup = a;
note = acircumflextilde;
rightKerningGroup = a;
unicode = 1EAB;
},
{
glyphname = adieresis;
lastChange = "2015-11-29 23:52:24 +0000";
layers = (
{
layerId = "72ACC467-88F1-4B5B-B511-FE0603CECF6A";
name = "Light Italic";
paths = (
{
closed = 1;
nodes = (
"356 -15 OFFCURVE",
"433 23 OFFCURVE",
"494 98 CURVE",
"474 0 LINE",
"526 0 LINE",
"628 480 LINE",
"575 480 LINE",
"554 382 LINE",
"524 457 OFFCURVE",
"452 495 OFFCURVE",
"359 495 CURVE SMOOTH",
"212 495 OFFCURVE",
"88 397 OFFCURVE",
"54 239 CURVE SMOOTH",
"20 82 OFFCURVE",
"114 -15 OFFCURVE",
"250 -15 CURVE SMOOTH"
);
},
{
closed = 1;
nodes = (
"143 27 OFFCURVE",
"77 106 OFFCURVE",
"105 239 CURVE SMOOTH",
"132 368 OFFCURVE",
"244 452 OFFCURVE",
"358 452 CURVE SMOOTH",
"467 452 OFFCURVE",
"528 398 OFFCURVE",
"537 304 CURVE",
"509 173 LINE",
"461 81 OFFCURVE",
"368 27 OFFCURVE",
"267 27 CURVE SMOOTH"
);
},
{
closed = 1;
nodes = (
"367 553 OFFCURVE",
"389 571 OFFCURVE",
"394 592 CURVE",
"398 613 OFFCURVE",
"384 630 OFFCURVE",
"364 630 CURVE SMOOTH",
"343 630 OFFCURVE",
"322 613 OFFCURVE",
"318 592 CURVE",
"313 571 OFFCURVE",
"326 553 OFFCURVE",
"347 553 CURVE SMOOTH"
);
},
{
closed = 1;
nodes = (
"575 553 OFFCURVE",
"597 571 OFFCURVE",
"602 592 CURVE",
"606 613 OFFCURVE",
"592 630 OFFCURVE",
"571 630 CURVE SMOOTH",
"550 630 OFFCURVE",
"528 613 OFFCURVE",
"524 592 CURVE",
"519 571 OFFCURVE",
"533 553 OFFCURVE",
"554 553 CURVE SMOOTH"
);
}
);
width = 647;
}
);
leftKerningGroup = a;
note = adieresis;
rightKerningGroup = a;
unicode = 00E4;
},
{
glyphname = adotbelow;
lastChange = "2015-11-29 23:52:22 +0000";
layers = (
{
layerId = "72ACC467-88F1-4B5B-B511-FE0603CECF6A";
name = "Light Italic";
paths = (
{
closed = 1;
nodes = (
"356 -15 OFFCURVE",
"433 23 OFFCURVE",
"494 98 CURVE",
"474 0 LINE",
"526 0 LINE",
"628 480 LINE",
"575 480 LINE",
"554 382 LINE",
"524 457 OFFCURVE",
"452 495 OFFCURVE",
"359 495 CURVE SMOOTH",
"212 495 OFFCURVE",
"88 397 OFFCURVE",
"54 239 CURVE SMOOTH",
"20 82 OFFCURVE",
"114 -15 OFFCURVE",
"250 -15 CURVE SMOOTH"
);
},
{
closed = 1;
nodes = (
"305 -137 OFFCURVE",
"326 -119 OFFCURVE",
"331 -98 CURVE",
"335 -77 OFFCURVE",
"321 -60 OFFCURVE",
"302 -60 CURVE SMOOTH",
"281 -60 OFFCURVE",
"259 -77 OFFCURVE",
"255 -98 CURVE",
"250 -119 OFFCURVE",
"264 -137 OFFCURVE",
"285 -137 CURVE SMOOTH"
);
},
{
closed = 1;
nodes = (
"143 27 OFFCURVE",
"77 106 OFFCURVE",
"105 239 CURVE SMOOTH",
"132 368 OFFCURVE",
"244 452 OFFCURVE",
"358 452 CURVE SMOOTH",
"467 452 OFFCURVE",
"528 398 OFFCURVE",
"537 304 CURVE",
"509 173 LINE",
"461 81 OFFCURVE",
"368 27 OFFCURVE",
"267 27 CURVE SMOOTH"
);
}
);
width = 647;
}
);
leftKerningGroup = a;
note = adotbelow;
rightKerningGroup = a;
unicode = 1EA1;
},
{
glyphname = agrave;
lastChange = "2015-11-29 23:52:23 +0000";
layers = (
{
layerId = "72ACC467-88F1-4B5B-B511-FE0603CECF6A";
name = "Light Italic";
paths = (
{
closed = 1;
nodes = (
"356 -15 OFFCURVE",
"433 23 OFFCURVE",
"494 98 CURVE",
"474 0 LINE",
"526 0 LINE",
"628 480 LINE",
"575 480 LINE",
"554 382 LINE",
"524 457 OFFCURVE",
"452 495 OFFCURVE",
"359 495 CURVE SMOOTH",
"212 495 OFFCURVE",
"88 397 OFFCURVE",
"54 239 CURVE SMOOTH",
"20 82 OFFCURVE",
"114 -15 OFFCURVE",
"250 -15 CURVE SMOOTH"
);
},
{
closed = 1;
nodes = (
"143 27 OFFCURVE",
"77 106 OFFCURVE",
"105 239 CURVE SMOOTH",
"132 368 OFFCURVE",
"244 452 OFFCURVE",
"358 452 CURVE SMOOTH",
"467 452 OFFCURVE",
"528 398 OFFCURVE",
"537 304 CURVE",
"509 173 LINE",
"461 81 OFFCURVE",
"368 27 OFFCURVE",
"267 27 CURVE SMOOTH"
);
},
{
closed = 1;
nodes = (
"490 568 LINE",
"457 737 LINE",
"402 737 LINE",
"445 568 LINE"
);
}
);
width = 647;
}
);
leftKerningGroup = a;
note = agrave;
rightKerningGroup = a;
unicode = 00E0;
},
{
glyphname = ahookabove;
lastChange = "2015-11-29 23:52:21 +0000";
layers = (
{
layerId = "72ACC467-88F1-4B5B-B511-FE0603CECF6A";
name = "Light Italic";
paths = (
{
closed = 1;
nodes = (
"356 -15 OFFCURVE",
"433 23 OFFCURVE",
"494 98 CURVE",
"474 0 LINE",
"526 0 LINE",
"628 480 LINE",
"575 480 LINE",
"554 382 LINE",
"524 457 OFFCURVE",
"452 495 OFFCURVE",
"359 495 CURVE SMOOTH",
"212 495 OFFCURVE",
"88 397 OFFCURVE",
"54 239 CURVE SMOOTH",
"20 82 OFFCURVE",
"114 -15 OFFCURVE",
"250 -15 CURVE SMOOTH"
);
},
{
closed = 1;
nodes = (
"143 27 OFFCURVE",
"77 106 OFFCURVE",
"105 239 CURVE SMOOTH",
"132 368 OFFCURVE",
"244 452 OFFCURVE",
"358 452 CURVE SMOOTH",
"467 452 OFFCURVE",
"528 398 OFFCURVE",
"537 304 CURVE",
"509 173 LINE",
"461 81 OFFCURVE",
"368 27 OFFCURVE",
"267 27 CURVE SMOOTH"
);
},
{
closed = 1;
nodes = (
"468 545 LINE",
"476 584 LINE",
"540 589 OFFCURVE",
"580 626 OFFCURVE",
"590 675 CURVE SMOOTH",
"601 727 OFFCURVE",
"572 764 OFFCURVE",
"497 764 CURVE SMOOTH",
"473 764 OFFCURVE",
"445 760 OFFCURVE",
"429 755 CURVE",
"422 720 LINE",
"435 726 OFFCURVE",
"464 729 OFFCURVE",
"482 729 CURVE SMOOTH",
"529 729 OFFCURVE",
"551 712 OFFCURVE",
"543 673 CURVE SMOOTH",
"534 630 OFFCURVE",
"505 610 OFFCURVE",
"437 610 CURVE",
"423 545 LINE"
);
}
);
width = 647;
}
);
leftKerningGroup = a;
note = ahookabove;
rightKerningGroup = a;
unicode = 1EA3;
},
{
glyphname = "alpha-latin";
lastChange = "2015-11-29 23:52:23 +0000";
layers = (
{
layerId = "72ACC467-88F1-4B5B-B511-FE0603CECF6A";
name = "Light Italic";
paths = (
{
closed = 1;
nodes = (
"349 -15 OFFCURVE",
"432 24 OFFCURVE",
"494 98 CURVE",
"474 0 LINE",
"526 0 LINE",
"628 480 LINE",
"575 480 LINE",
"554 382 LINE",
"529 457 OFFCURVE",
"452 495 OFFCURVE",
"359 495 CURVE SMOOTH",
"214 495 OFFCURVE",
"87 393 OFFCURVE",
"54 239 CURVE SMOOTH",
"21 82 OFFCURVE",
"116 -15 OFFCURVE",
"250 -15 CURVE SMOOTH"
);
},
{
closed = 1;
nodes = (
"142 27 OFFCURVE",
"78 110 OFFCURVE",
"105 239 CURVE SMOOTH",
"133 368 OFFCURVE",
"244 452 OFFCURVE",
"358 452 CURVE SMOOTH",
"460 452 OFFCURVE",
"531 397 OFFCURVE",
"537 304 CURVE",
"509 173 LINE",
"461 81 OFFCURVE",
"368 27 OFFCURVE",
"267 27 CURVE SMOOTH"
);
}
);
width = 651;
}
);
leftKerningGroup = a;
note = ascript;
rightKerningGroup = a;
unicode = 0251;
},
{
glyphname = amacron;
lastChange = "2015-11-29 23:52:23 +0000";
layers = (
{
layerId = "72ACC467-88F1-4B5B-B511-FE0603CECF6A";
name = "Light Italic";
paths = (
{
closed = 1;
nodes = (
"356 -15 OFFCURVE",
"433 23 OFFCURVE",
"494 98 CURVE",
"474 0 LINE",
"526 0 LINE",
"628 480 LINE",
"575 480 LINE",
"554 382 LINE",
"524 457 OFFCURVE",
"452 495 OFFCURVE",
"359 495 CURVE SMOOTH",
"212 495 OFFCURVE",
"88 397 OFFCURVE",
"54 239 CURVE SMOOTH",
"20 82 OFFCURVE",
"114 -15 OFFCURVE",
"250 -15 CURVE SMOOTH"
);
},
{
closed = 1;
nodes = (
"143 27 OFFCURVE",
"77 106 OFFCURVE",
"105 239 CURVE SMOOTH",
"132 368 OFFCURVE",
"244 452 OFFCURVE",
"358 452 CURVE SMOOTH",
"467 452 OFFCURVE",
"528 398 OFFCURVE",
"537 304 CURVE",
"509 173 LINE",
"461 81 OFFCURVE",
"368 27 OFFCURVE",
"267 27 CURVE SMOOTH"
);
},
{
closed = 1;
nodes = (
"602 574 LINE",
"610 613 LINE",
"321 613 LINE",
"314 574 LINE"
);
}
);
width = 647;
}
);
leftKerningGroup = a;
note = amacron;
rightKerningGroup = a;
unicode = 0101;
},
{
glyphname = aogonek;
lastChange = "2015-11-29 23:52:21 +0000";
layers = (
{
layerId = "72ACC467-88F1-4B5B-B511-FE0603CECF6A";
name = "Light Italic";
paths = (
{
closed = 1;
nodes = (
"468 -208 OFFCURVE",
"488 -205 OFFCURVE",
"502 -199 CURVE",
"510 -162 LINE",
"497 -167 OFFCURVE",
"480 -171 OFFCURVE",
"463 -171 CURVE SMOOTH",
"431 -171 OFFCURVE",
"415 -155 OFFCURVE",
"422 -119 CURVE SMOOTH",
"432 -73 OFFCURVE",
"469 -35 OFFCURVE",
"526 0 CURVE",
"628 480 LINE",
"575 480 LINE",
"554 382 LINE",
"524 457 OFFCURVE",
"452 495 OFFCURVE",
"359 495 CURVE SMOOTH",
"212 495 OFFCURVE",
"88 397 OFFCURVE",
"54 239 CURVE SMOOTH",
"20 82 OFFCURVE",
"114 -15 OFFCURVE",
"250 -15 CURVE SMOOTH",
"356 -15 OFFCURVE",
"433 23 OFFCURVE",
"494 98 CURVE",
"474 0 LINE",
"429 -27 OFFCURVE",
"385 -72 OFFCURVE",
"374 -124 CURVE SMOOTH",
"362 -181 OFFCURVE",
"397 -208 OFFCURVE",
"445 -208 CURVE SMOOTH"
);
},
{
closed = 1;
nodes = (
"143 27 OFFCURVE",
"77 106 OFFCURVE",
"105 239 CURVE SMOOTH",
"132 368 OFFCURVE",
"244 452 OFFCURVE",
"358 452 CURVE SMOOTH",
"467 452 OFFCURVE",
"528 398 OFFCURVE",
"537 304 CURVE",
"509 173 LINE",
"461 81 OFFCURVE",
"368 27 OFFCURVE",
"267 27 CURVE SMOOTH"
);
}
);
width = 658;
}
);
leftKerningGroup = a;
note = aogonek;
rightKerningGroup = a;
unicode = 0105;
},
